<svg xmlns="http://www.w3.org/2000/svg" xmlns:xlink="http://www.w3.org/1999/xlink" width="108" height="108" viewBox="0 0 108 108">
  <defs>
    <filter id="Path_982547" x="0" y="0" width="108" height="108" filterUnits="userSpaceOnUse">
      <feOffset dy="3" input="SourceAlpha"/>
      <feGaussianBlur stdDeviation="3" result="blur"/>
      <feFlood flood-opacity="0.161"/>
      <feComposite operator="in" in2="blur"/>
      <feComposite in="SourceGraphic"/>
    </filter>
  </defs>
  <g id="Group_1149598" data-name="Group 1149598" transform="translate(-200 -413)">
    <g id="Group_1148770" data-name="Group 1148770" transform="translate(-1 -2368)">
      <g id="Group_1146954" data-name="Group 1146954" transform="translate(-415 -1202)">
        <g transform="matrix(1, 0, 0, 1, 616, 3983)" filter="url(#Path_982547)">
          <g id="Path_982547-2" data-name="Path 982547" transform="translate(9 6)" fill="#fdeffe">
            <path d="M 45 88.5 C 39.12687683105469 88.5 33.43022537231445 87.35007476806641 28.06830024719238 85.08217620849609 C 22.88852500915527 82.89131164550781 18.23629951477051 79.75458526611328 14.2408504486084 75.75914764404297 C 10.24541282653809 71.76370239257812 7.108687400817871 67.11147308349609 4.917825222015381 61.93170166015625 C 2.649924993515015 56.56977462768555 1.5 50.87312316894531 1.5 45 C 1.5 39.12687683105469 2.649924993515015 33.43022537231445 4.917825222015381 28.06830024719238 C 7.108687400817871 22.88852500915527 10.24541282653809 18.23629951477051 14.2408504486084 14.2408504486084 C 18.23629951477051 10.24541282653809 22.88852500915527 7.108687400817871 28.06830024719238 4.917825222015381 C 33.43022537231445 2.649924993515015 39.12687683105469 1.5 45 1.5 C 50.87312316894531 1.5 56.56977462768555 2.649924993515015 61.93170166015625 4.917825222015381 C 67.11147308349609 7.108687400817871 71.76370239257812 10.24541282653809 75.75914764404297 14.2408504486084 C 79.75458526611328 18.23629951477051 82.89131164550781 22.88852500915527 85.08217620849609 28.06830024719238 C 87.35007476806641 33.43022537231445 88.5 39.12687683105469 88.5 45 C 88.5 50.87312316894531 87.35007476806641 56.56977462768555 85.08217620849609 61.93170166015625 C 82.89131164550781 67.11147308349609 79.75458526611328 71.76370239257812 75.75914764404297 75.75914764404297 C 71.76370239257812 79.75458526611328 67.11147308349609 82.89131164550781 61.93170166015625 85.08217620849609 C 56.56977462768555 87.35007476806641 50.87312316894531 88.5 45 88.5 Z" stroke="none"/>
            <path d="M 45 3 C 39.32871246337891 3 33.82865524291992 4.110054016113281 28.65262985229492 6.299339294433594 C 23.65165710449219 8.414573669433594 19.15968322753906 11.44334411621094 15.301513671875 15.301513671875 C 11.44334411621094 19.15968322753906 8.414573669433594 23.65165710449219 6.299339294433594 28.65262985229492 C 4.110054016113281 33.82865524291992 3 39.32871246337891 3 45 C 3 50.67128753662109 4.110054016113281 56.17134475708008 6.299339294433594 61.34737396240234 C 8.414573669433594 66.34834289550781 11.44334411621094 70.84031677246094 15.301513671875 74.698486328125 C 19.15968322753906 78.55665588378906 23.65165710449219 81.58542633056641 28.65262985229492 83.70066070556641 C 33.82865524291992 85.88994598388672 39.32871246337891 87 45 87 C 50.67128753662109 87 56.17134475708008 85.88994598388672 61.34737396240234 83.70066070556641 C 66.34834289550781 81.58542633056641 70.84031677246094 78.55665588378906 74.698486328125 74.698486328125 C 78.55665588378906 70.84031677246094 81.58542633056641 66.34834289550781 83.70066070556641 61.34737396240234 C 85.88994598388672 56.17134475708008 87 50.67128753662109 87 45 C 87 39.32871246337891 85.88994598388672 33.82865524291992 83.70066070556641 28.65262985229492 C 81.58542633056641 23.65165710449219 78.55665588378906 19.15968322753906 74.698486328125 15.301513671875 C 70.84031677246094 11.44334411621094 66.34834289550781 8.414573669433594 61.34737396240234 6.299339294433594 C 56.17134475708008 4.110054016113281 50.67128753662109 3 45 3 M 45 0 C 69.85281372070312 0 90 20.14718627929688 90 45 C 90 69.85281372070312 69.85281372070312 90 45 90 C 20.14718627929688 90 0 69.85281372070312 0 45 C 0 20.14718627929688 20.14718627929688 0 45 0 Z" stroke="none" fill="#ee70f7"/>
          </g>
        </g>
      </g>
    </g>
    <g id="analytics_18273667" transform="translate(225.909 408.28)">
      <g id="Group_1149597" data-name="Group 1149597" transform="translate(1.202 31.794)">
        <g id="Group_1149579" data-name="Group 1149579" transform="translate(0 0)">
          <path id="Path_985450" data-name="Path 985450" d="M11.4,34.437H50.44a4.407,4.407,0,0,1,4.393,4.393v32.2a4.407,4.407,0,0,1-4.393,4.4H11.4a4.408,4.408,0,0,1-4.4-4.4V38.83a4.407,4.407,0,0,1,4.4-4.393Z" transform="translate(-7 -34.437)" fill="#eaf6ff" fill-rule="evenodd"/>
        </g>
        <g id="Group_1149580" data-name="Group 1149580" transform="translate(7.359 35.622)">
          <path id="Path_985451" data-name="Path 985451" d="M75.145,364.307h7.6v11.458h-7.6Z" transform="translate(-75.145 -364.307)" fill="#ec5a6e" fill-rule="evenodd"/>
        </g>
        <g id="Group_1149581" data-name="Group 1149581" transform="translate(20.115 32.252)">
          <path id="Path_985452" data-name="Path 985452" d="M193.266,333.1h7.6v14.828h-7.6Z" transform="translate(-193.266 -333.097)" fill="#f9d266" fill-rule="evenodd"/>
        </g>
        <g id="Group_1149582" data-name="Group 1149582" transform="translate(2.991 28.175)">
          <path id="Path_985453" data-name="Path 985453" d="M37.336,300.622a2.642,2.642,0,1,0-2.642-2.642A2.644,2.644,0,0,0,37.336,300.622Z" transform="translate(-34.694 -295.339)" fill="#6c9" fill-rule="evenodd"/>
        </g>
        <g id="Group_1149583" data-name="Group 1149583" transform="translate(14.531 21.893)">
          <path id="Path_985454" data-name="Path 985454" d="M144.2,242.455a2.642,2.642,0,1,0-2.642-2.642A2.648,2.648,0,0,0,144.2,242.455Z" transform="translate(-141.561 -237.172)" fill="#6c9" fill-rule="evenodd"/>
        </g>
        <g id="Group_1149584" data-name="Group 1149584" transform="translate(40.685 0)">
          <path id="Path_985455" data-name="Path 985455" d="M383.755,34.437h2.755A4.407,4.407,0,0,1,390.9,38.83v32.2a4.407,4.407,0,0,1-4.393,4.4h-2.755a4.408,4.408,0,0,0,4.4-4.4V38.83a4.407,4.407,0,0,0-4.4-4.393Z" transform="translate(-383.755 -34.437)" fill="#c4d3e4" fill-rule="evenodd"/>
        </g>
        <g id="Group_1149585" data-name="Group 1149585" transform="translate(0 0)">
          <path id="Path_985456" data-name="Path 985456" d="M7,42.184H54.833V38.829a4.407,4.407,0,0,0-4.393-4.393H11.4A4.407,4.407,0,0,0,7,38.829Z" transform="translate(-7 -34.436)" fill="#0593fc" fill-rule="evenodd"/>
        </g>
        <g id="Group_1149586" data-name="Group 1149586" transform="translate(40.685 0)">
          <path id="Path_985457" data-name="Path 985457" d="M388.151,42.184H390.9V38.829a4.407,4.407,0,0,0-4.393-4.393h-2.755a4.407,4.407,0,0,1,4.4,4.393Z" transform="translate(-383.755 -34.436)" fill="#2e73db" fill-rule="evenodd"/>
        </g>
        <g id="Group_1149587" data-name="Group 1149587" transform="translate(32.87 26.381)">
          <path id="Path_985458" data-name="Path 985458" d="M311.386,278.728h7.607v20.7h-7.607Z" transform="translate(-311.386 -278.728)" fill="#6c9" fill-rule="evenodd"/>
        </g>
        <g id="Group_1149588" data-name="Group 1149588" transform="translate(37.939 26.381)">
          <path id="Path_985459" data-name="Path 985459" d="M358.329,278.728h2.538v20.7h-2.538Z" transform="translate(-358.329 -278.728)" fill="#396" fill-rule="evenodd"/>
        </g>
        <g id="Group_1149589" data-name="Group 1149589" transform="translate(25.184 32.252)">
          <path id="Path_985460" data-name="Path 985460" d="M240.208,333.1h2.535v14.828h-2.535Z" transform="translate(-240.208 -333.097)" fill="#f0ae42" fill-rule="evenodd"/>
        </g>
        <g id="Group_1149590" data-name="Group 1149590" transform="translate(12.428 35.622)">
          <path id="Path_985461" data-name="Path 985461" d="M122.088,364.307h2.535v11.458h-2.535Z" transform="translate(-122.088 -364.307)" fill="#d62f45" fill-rule="evenodd"/>
        </g>
        <g id="Group_1149591" data-name="Group 1149591" transform="translate(42.558 27.888)">
          <path id="Path_985462" data-name="Path 985462" d="M402.687,292.989a2.892,2.892,0,0,1,3.866,1.289l5.461,10.907a2.881,2.881,0,0,1-5.152,2.58l-5.461-10.91A2.889,2.889,0,0,1,402.687,292.989Z" transform="translate(-401.098 -292.687)" fill="#4f66d0" fill-rule="evenodd"/>
        </g>
        <g id="Group_1149592" data-name="Group 1149592" transform="translate(31.202 13.443)">
          <path id="Path_985463" data-name="Path 985463" d="M302.084,160.1a11.133,11.133,0,1,1-4.968,14.938A11.136,11.136,0,0,1,302.084,160.1Z" transform="translate(-295.934 -158.922)" fill="#fe646f" fill-rule="evenodd"/>
        </g>
        <g id="Group_1149593" data-name="Group 1149593" transform="translate(34.687 16.928)">
          <path id="Path_985464" data-name="Path 985464" d="M332.436,192a7.648,7.648,0,1,1-3.416,10.264A7.648,7.648,0,0,1,332.436,192Z" transform="translate(-328.21 -191.19)" fill="#8dcafc" fill-rule="evenodd"/>
        </g>
        <g id="Group_1149594" data-name="Group 1149594" transform="translate(41.252 16.927)">
          <path id="Path_985465" data-name="Path 985465" d="M389,191.263a7.65,7.65,0,1,1,.012,15.146A7.65,7.65,0,0,0,389,191.263Z" transform="translate(-389 -191.185)" fill="#48affb" fill-rule="evenodd"/>
        </g>
        <g id="Group_1149595" data-name="Group 1149595" transform="translate(16.769 21.893)">
          <path id="Path_985466" data-name="Path 985466" d="M162.687,237.172a2.642,2.642,0,0,1,0,5.283,2.517,2.517,0,0,1-.4-.031,2.643,2.643,0,0,0,0-5.222,2.515,2.515,0,0,1,.4-.031Z" transform="translate(-162.283 -237.172)" fill="#396" fill-rule="evenodd"/>
        </g>
        <g id="Group_1149596" data-name="Group 1149596" transform="translate(5.228 28.175)">
          <path id="Path_985467" data-name="Path 985467" d="M55.82,295.339a2.642,2.642,0,0,1,0,5.283,2.515,2.515,0,0,1-.4-.031,2.642,2.642,0,0,0,0-5.222,2.937,2.937,0,0,1,.4-.031Z" transform="translate(-55.416 -295.339)" fill="#396" fill-rule="evenodd"/>
        </g>
      </g>
      <path id="Path_985468" data-name="Path 985468" d="M47.709,78.457h-5.3v-4.57h2.2a5.13,5.13,0,0,0,.973-.093.755.755,0,0,0-.283-1.482,3.638,3.638,0,0,1-.69.066h-2.2v-1.94a.755.755,0,0,0-1.509,0v8.019H34.814V66.827a.755.755,0,1,0-1.509,0v5.551H29.673V64.416a.755.755,0,0,0-.755-.755H21.329a.755.755,0,0,0-.755.755v7.961H16.942v-4.6a.755.755,0,0,0-.755-.755H8.6a.755.755,0,0,0-.755.755v4.6h-2.2a3.637,3.637,0,0,1-3.632-3.632V40.715H48.238v3.373a.755.755,0,0,0,1.509,0V36.613a5.144,5.144,0,0,0-5.139-5.139H5.642A5.146,5.146,0,0,0,.5,36.613V68.745a5.148,5.148,0,0,0,5.142,5.142h2.2v4.57h-5.3a.755.755,0,0,0,0,1.509H47.71a.755.755,0,1,0,0-1.509ZM5.642,32.983H44.609a3.633,3.633,0,0,1,3.629,3.629v2.594H2.009V36.613A3.635,3.635,0,0,1,5.642,32.983ZM33.3,73.887v4.57H29.673v-4.57Zm-12.73,0v4.57H16.942v-4.57ZM9.354,78.457V68.535h6.079v9.923Zm12.73,0V65.171h6.08V78.457ZM4.028,44.314a.755.755,0,0,1,.755-.755H18.635a.755.755,0,0,1,0,1.509H4.783A.755.755,0,0,1,4.028,44.314Zm0,4.106a.755.755,0,0,1,.755-.755H18.635a.755.755,0,0,1,0,1.509H4.783A.755.755,0,0,1,4.028,48.42ZM19.35,36.093a.755.755,0,0,1,.755-.755H44.813a.755.755,0,1,1,0,1.509H20.1A.755.755,0,0,1,19.35,36.093Zm-14,0a.755.755,0,0,1,.755-.755h.046a.755.755,0,0,1,0,1.509H6.109A.755.755,0,0,1,5.354,36.093Zm2.725,0a.755.755,0,0,1,.755-.755H8.88a.755.755,0,0,1,0,1.509H8.834A.755.755,0,0,1,8.08,36.093Zm2.725,0a.755.755,0,0,1,.755-.755h.046a.755.755,0,0,1,0,1.509h-.046A.755.755,0,0,1,10.8,36.093ZM6.876,66.375a3.4,3.4,0,0,0,3.305-2.637h4.592a.754.754,0,0,0,.653-.377l1.967-3.406A3.391,3.391,0,0,0,21.7,57.469h3.825a.755.755,0,0,0,.656-.382l4.25-7.494H32.2a.755.755,0,1,0,0-1.509H29.99a.755.755,0,0,0-.656.382l-4.25,7.494H21.7A3.39,3.39,0,1,0,16.087,59.2l-1.75,3.031H10.181a3.391,3.391,0,1,0-3.305,4.146ZM18.393,54.833a1.882,1.882,0,1,1-1.882,1.882A1.884,1.884,0,0,1,18.393,54.833ZM6.876,61.1a1.882,1.882,0,1,1-1.882,1.882A1.884,1.884,0,0,1,6.876,61.1ZM55.3,72.2l-3.486-6.963a11.824,11.824,0,1,0-8.292,3.4,11.71,11.71,0,0,0,1.8-.14l3.487,6.959a3.606,3.606,0,0,0,2.1,1.816,3.653,3.653,0,0,0,1.154.188A3.633,3.633,0,0,0,55.3,72.2ZM40.239,66.583a10.356,10.356,0,1,1,7.906-.566A10.287,10.287,0,0,1,40.239,66.583Zm13.822,7.909a2.121,2.121,0,0,1-3.9.279l-3.318-6.623a11.975,11.975,0,0,0,3.794-1.9l3.316,6.624A2.106,2.106,0,0,1,54.061,74.492ZM51.008,53a8.4,8.4,0,1,0-3.743,11.256A8.4,8.4,0,0,0,51.008,53Zm-4.419,9.907a6.878,6.878,0,1,1,3.07-9.231,6.839,6.839,0,0,1-3.07,9.231Z"/>
    </g>
  </g>
</svg>
