<svg xmlns="http://www.w3.org/2000/svg" xmlns:xlink="http://www.w3.org/1999/xlink" width="113" height="113" viewBox="0 0 113 113">
  <defs>
    <filter id="Path_982547" x="0" y="0" width="113" height="113" filterUnits="userSpaceOnUse">
      <feOffset dy="3" input="SourceAlpha"/>
      <feGaussianBlur stdDeviation="3" result="blur"/>
      <feFlood flood-opacity="0.161"/>
      <feComposite operator="in" in2="blur"/>
      <feComposite in="SourceGraphic"/>
    </filter>
  </defs>
  <g id="Group_1150815" data-name="Group 1150815" transform="translate(-1164 -3116.155)">
    <g id="Group_1150762" data-name="Group 1150762" transform="translate(0 -3.341)">
      <g id="Group_1149520" data-name="Group 1149520" transform="translate(0 -584.682)">
        <g id="Group_1147088" data-name="Group 1147088" transform="translate(1173 3710.178)">
          <g transform="matrix(1, 0, 0, 1, -9, -6)" filter="url(#Path_982547)">
            <g id="Path_982547-2" data-name="Path 982547" transform="translate(9 6)" fill="#fdeffe">
              <path d="M 47.5 93.5 C 41.28937149047852 93.5 35.26533508300781 92.28397369384766 29.59518623352051 89.88570404052734 C 24.11771965026855 87.56893157958984 19.19813346862793 84.25196075439453 14.97309303283691 80.02691650390625 C 10.74804019927979 75.80186462402344 7.431066513061523 70.88229370117188 5.114293098449707 65.40481567382812 C 2.716026782989502 59.73468017578125 1.5 53.71062850952148 1.5 47.5 C 1.5 41.28937149047852 2.716026782989502 35.26533508300781 5.114293098449707 29.59518623352051 C 7.431066513061523 24.11771965026855 10.74804019927979 19.19813346862793 14.97309303283691 14.97309303283691 C 19.19813346862793 10.74804019927979 24.11771965026855 7.431066513061523 29.59518623352051 5.114293098449707 C 35.26533508300781 2.716026782989502 41.28937149047852 1.5 47.5 1.5 C 53.71062850952148 1.5 59.73468017578125 2.716026782989502 65.40481567382812 5.114293098449707 C 70.88229370117188 7.431066513061523 75.80186462402344 10.74804019927979 80.02691650390625 14.97309303283691 C 84.25196075439453 19.19813346862793 87.56893157958984 24.11771965026855 89.88570404052734 29.59518623352051 C 92.28397369384766 35.26533508300781 93.5 41.28937149047852 93.5 47.5 C 93.5 53.71062850952148 92.28397369384766 59.73468017578125 89.88570404052734 65.40481567382812 C 87.56893157958984 70.88229370117188 84.25196075439453 75.80186462402344 80.02691650390625 80.02691650390625 C 75.80186462402344 84.25196075439453 70.88229370117188 87.56893157958984 65.40481567382812 89.88570404052734 C 59.73468017578125 92.28397369384766 53.71062850952148 93.5 47.5 93.5 Z" stroke="none"/>
              <path d="M 47.5 3 C 41.49121475219727 3 35.66376876831055 4.176155090332031 30.17950439453125 6.495796203613281 C 24.88084411621094 8.736953735351562 20.12152099609375 11.94598388671875 16.03375244140625 16.03375244140625 C 11.94598388671875 20.12152099609375 8.736953735351562 24.88084411621094 6.495796203613281 30.17950439453125 C 4.176155090332031 35.66376876831055 3 41.49121475219727 3 47.5 C 3 53.50878524780273 4.176155090332031 59.33623123168945 6.495796203613281 64.82049560546875 C 8.736953735351562 70.11915588378906 11.94598388671875 74.87847900390625 16.03375244140625 78.96624755859375 C 20.12152099609375 83.05401611328125 24.88084411621094 86.26304626464844 30.17950439453125 88.50419616699219 C 35.66376876831055 90.82384490966797 41.49121475219727 92 47.5 92 C 53.50878524780273 92 59.33623123168945 90.82384490966797 64.82049560546875 88.50419616699219 C 70.11915588378906 86.26304626464844 74.87847900390625 83.05401611328125 78.96624755859375 78.96624755859375 C 83.05401611328125 74.87847900390625 86.26304626464844 70.11915588378906 88.50419616699219 64.82049560546875 C 90.82384490966797 59.33623123168945 92 53.50878524780273 92 47.5 C 92 41.49121475219727 90.82384490966797 35.66376876831055 88.50419616699219 30.17950439453125 C 86.26304626464844 24.88084411621094 83.05401611328125 20.12152099609375 78.96624755859375 16.03375244140625 C 74.87847900390625 11.94598388671875 70.11915588378906 8.736953735351562 64.82049560546875 6.495796203613281 C 59.33623123168945 4.176155090332031 53.50878524780273 3 47.5 3 M 47.5 0 C 73.7335205078125 0 95 21.2664794921875 95 47.5 C 95 73.7335205078125 73.7335205078125 95 47.5 95 C 21.2664794921875 95 0 73.7335205078125 0 47.5 C 0 21.2664794921875 21.2664794921875 0 47.5 0 Z" stroke="none" fill="#ee70f7"/>
            </g>
          </g>
        </g>
      </g>
      <g id="_2._Electro_car_side_view_tesla" data-name="2. Electro car side view tesla" transform="translate(1170.637 3081.218)">
        <path id="Path_987010" data-name="Path 987010" d="M88.568,203.43v11.629a2.233,2.233,0,0,1-2.233,2.233H81.171a6.7,6.7,0,0,1-13.388.014H44.6A6.7,6.7,0,1,1,31.2,217H26.033a2.233,2.233,0,0,1-2.233-2.233V209.19a4.467,4.467,0,0,1,3.272-4.3L39.625,201.4c12.11-12.856,30.61-14.692,46.181-3.378A6.686,6.686,0,0,1,88.568,203.43Z" transform="translate(-6.849 -107.43)" fill="#fe4f60"/>
        <path id="Path_987011" data-name="Path 987011" d="M176.705,193.994l-3.305,4.87a6.7,6.7,0,0,1-5.212,2.491H137.25C147.338,190.646,162.287,187.193,176.705,193.994Z" transform="translate(-104.464 -107.391)" fill="#d6f4fc"/>
        <path id="Path_987012" data-name="Path 987012" d="M352.231,339.285a6.7,6.7,0,1,1-6.7-6.965A6.7,6.7,0,0,1,352.231,339.285Z" transform="translate(-277.915 -229.423)" fill="#42434d"/>
        <path id="Path_987013" data-name="Path 987013" d="M90.235,339.3a6.7,6.7,0,1,1-1.861-4.919A6.7,6.7,0,0,1,90.235,339.3Z" transform="translate(-52.487 -229.423)" fill="#42434d"/>
        <path id="Path_987014" data-name="Path 987014" d="M421.663,224.976v11.629a2.233,2.233,0,0,1-2.233,2.233,1.89,1.89,0,0,1-1.89-1.89v-9.6a6.686,6.686,0,0,0-2.752-5.413c-.794-.576-1.738-1.219-2.819-1.877a2.233,2.233,0,0,1-.681-3.157l.9-1.322a41.992,41.992,0,0,1,6.726,3.983A6.686,6.686,0,0,1,421.663,224.976Z" transform="translate(-339.922 -128.977)" fill="#e84857"/>
        <path id="Path_987015" data-name="Path 987015" d="M87.015,333.045a1.015,1.015,0,0,1-.528,1.89,6.715,6.715,0,0,0-6.728,6.74,1.015,1.015,0,0,1-1.887.537,6.7,6.7,0,0,1,9.142-9.167Z" transform="translate(-52.589 -229.276)" fill="#4d4e59"/>
        <path id="Path_987016" data-name="Path 987016" d="M348.854,333.045a1.015,1.015,0,0,1-.528,1.89,6.715,6.715,0,0,0-6.728,6.74,1.015,1.015,0,0,1-1.887.537,6.7,6.7,0,0,1,9.142-9.167Z" transform="translate(-277.885 -229.277)" fill="#4d4e59"/>
        <path id="Path_987017" data-name="Path 987017" d="M39.829,268.32a1.669,1.669,0,0,1,.537,3.249L31.459,274.6a4.466,4.466,0,0,0-3.272,4.3v3.064a1.954,1.954,0,0,1-1.954,1.954A2.233,2.233,0,0,1,24,281.691v-5.576a4.467,4.467,0,0,1,3.272-4.3l12.553-3.489Z" transform="translate(-7.021 -174.356)" fill="#ff6d7a"/>
        <path id="Path_987018" data-name="Path 987018" d="M176.7,194.018l-1.165,1.717a1.722,1.722,0,0,1-1.954.674,32.675,32.675,0,0,0-29.81,4.632,1.743,1.743,0,0,1-1.026.338h-5.5C147.189,190.828,162.126,187.142,176.7,194.018Z" transform="translate(-104.464 -107.415)" fill="#e8f8fc"/>
        <path id="Path_987019" data-name="Path 987019" d="M82.836,96v13.863a1.117,1.117,0,0,1-1.117,1.117H79.067a1.117,1.117,0,1,1,0-2.233H80.6V96a5.593,5.593,0,0,0-2.3-4.515c-4.274-3.1-12.486-7.767-22.681-7.236l.727,5.6a1.117,1.117,0,0,1-2.215.289L53.4,84.445a32.409,32.409,0,0,0-17.885,8.4H63.724a5.559,5.559,0,0,0,4.339-2.075,1.117,1.117,0,0,1,1.738,1.4,7.786,7.786,0,0,1-6.081,2.906H32.949L20.527,98.526a3.362,3.362,0,0,0-2.454,3.228v6.693h1.675a1.117,1.117,0,0,1,0,2.233H16.957a1.117,1.117,0,0,1-1.117-1.117v-7.8a5.6,5.6,0,0,1,4.09-5.379l12.255-3.406c12.164-12.7,31.047-15.194,47.432-3.3A7.833,7.833,0,0,1,82.836,96ZM38.87,109.6a7.816,7.816,0,1,1-7.816-7.816A7.816,7.816,0,0,1,38.87,109.6Zm-2.233,0a5.583,5.583,0,1,0-5.583,5.583A5.583,5.583,0,0,0,36.637,109.6Zm38.8,0a7.816,7.816,0,1,1-7.816-7.816A7.816,7.816,0,0,1,75.438,109.6Zm-2.233,0a5.583,5.583,0,1,0-5.583,5.583,5.583,5.583,0,0,0,5.583-5.583Zm-16.47-.837H42.359a1.117,1.117,0,0,0,0,2.233H56.735a1.117,1.117,0,0,0,0-2.233ZM74.763,77.32a2.094,2.094,0,1,1-2.96,0A2.1,2.1,0,0,1,74.763,77.32Zm3.651-2.071a1.117,1.117,0,0,0,0-1.58,7.258,7.258,0,0,0-10.263,0,1.117,1.117,0,1,0,1.579,1.579,5.025,5.025,0,0,1,7.106,0,1.117,1.117,0,0,0,1.572,0ZM65.584,71.1a10.887,10.887,0,0,1,15.4,0,1.117,1.117,0,0,0,1.579-1.58,13.12,13.12,0,0,0-18.554,0,1.117,1.117,0,0,0,1.579,1.58Z"/>
      </g>
    </g>
  </g>
</svg>
