<svg xmlns="http://www.w3.org/2000/svg" xmlns:xlink="http://www.w3.org/1999/xlink" width="101.5" height="101.5" viewBox="0 0 101.5 101.5">
  <defs>
    <filter id="Path_982547" x="0" y="0" width="101.5" height="101.5" filterUnits="userSpaceOnUse">
      <feOffset dy="3" input="SourceAlpha"/>
      <feGaussianBlur stdDeviation="3" result="blur"/>
      <feFlood flood-opacity="0.161"/>
      <feComposite operator="in" in2="blur"/>
      <feComposite in="SourceGraphic"/>
    </filter>
  </defs>
  <g id="Group_1150836" data-name="Group 1150836" transform="translate(-1032.623 -11201.932)">
    <g id="Group_1150799" data-name="Group 1150799">
      <g id="Group_1150753" data-name="Group 1150753">
        <g id="Group_1149578" data-name="Group 1149578" transform="translate(708.623 7497.754)">
          <g id="Group_1147086" data-name="Group 1147086" transform="translate(333 3710.178)">
            <g transform="matrix(1, 0, 0, 1, -9, -6)" filter="url(#Path_982547)">
              <g id="Path_982547-2" data-name="Path 982547" transform="translate(9 6)" fill="#fdeffe">
                <path d="M 41.75 82 C 36.31562423706055 82 31.04459953308105 80.93599700927734 26.08334159851074 78.83757781982422 C 21.29058837890625 76.81040191650391 16.98592948913574 73.90802001953125 13.28895282745361 70.21104431152344 C 9.591976165771484 66.51406860351562 6.689599990844727 62.20942306518555 4.662435531616211 57.41666030883789 C 2.563999891281128 52.45539855957031 1.5 47.18437576293945 1.5 41.75 C 1.5 36.31562423706055 2.563999891281128 31.04459953308105 4.662435531616211 26.08334159851074 C 6.689599990844727 21.29058837890625 9.591976165771484 16.98592948913574 13.28895282745361 13.28895282745361 C 16.98592948913574 9.591976165771484 21.29058837890625 6.689599990844727 26.08334159851074 4.662435531616211 C 31.04459953308105 2.563999891281128 36.31562423706055 1.5 41.75 1.5 C 47.18437576293945 1.5 52.45539855957031 2.563999891281128 57.41666030883789 4.662435531616211 C 62.20942306518555 6.689599990844727 66.51406860351562 9.591976165771484 70.21104431152344 13.28895282745361 C 73.90802001953125 16.98592948913574 76.81040191650391 21.29058837890625 78.83757781982422 26.08334159851074 C 80.93599700927734 31.04459953308105 82 36.31562423706055 82 41.75 C 82 47.18437576293945 80.93599700927734 52.45539855957031 78.83757781982422 57.41666030883789 C 76.81040191650391 62.20942306518555 73.90802001953125 66.51408386230469 70.21104431152344 70.21104431152344 C 66.51408386230469 73.90802001953125 62.20942306518555 76.81040191650391 57.41666030883789 78.83757781982422 C 52.45539855957031 80.93599700927734 47.18437576293945 82 41.75 82 Z" stroke="none"/>
                <path d="M 41.75 3 C 36.5174674987793 3 31.44303894042969 4.024131774902344 26.66767883300781 6.043930053710938 C 22.05370712280273 7.9954833984375 17.90931701660156 10.7899169921875 14.34961700439453 14.34961700439453 C 10.7899169921875 17.90931701660156 7.9954833984375 22.05370712280273 6.043930053710938 26.66767883300781 C 4.024131774902344 31.44303894042969 3 36.5174674987793 3 41.75 C 3 46.9825325012207 4.024131774902344 52.05697250366211 6.043930053710938 56.83233261108398 C 7.9954833984375 61.44629287719727 10.7899169921875 65.59069061279297 14.34961700439453 69.150390625 C 17.90931701660156 72.71009063720703 22.05370712280273 75.5045166015625 26.66767883300781 77.45606994628906 C 31.44303894042969 79.47586822509766 36.5174674987793 80.5 41.75 80.5 C 46.9825325012207 80.5 52.05697250366211 79.47586822509766 56.83233261108398 77.45606994628906 C 61.44629287719727 75.5045166015625 65.59069061279297 72.71009063720703 69.150390625 69.150390625 C 72.71009063720703 65.59069061279297 75.5045166015625 61.44629287719727 77.45606994628906 56.83233261108398 C 79.47586822509766 52.05697250366211 80.5 46.9825325012207 80.5 41.75 C 80.5 36.5174674987793 79.47586822509766 31.44303894042969 77.45606994628906 26.66767883300781 C 75.5045166015625 22.05370712280273 72.71009063720703 17.90931701660156 69.150390625 14.34961700439453 C 65.59069061279297 10.7899169921875 61.44629287719727 7.9954833984375 56.83233261108398 6.043930053710938 C 52.05697250366211 4.024131774902344 46.9825325012207 3 41.75 3 M 41.75 0 C 64.80789184570312 0 83.5 18.69212341308594 83.5 41.75 C 83.5 64.80789184570312 64.80789184570312 83.5 41.75 83.5 C 18.69212341308594 83.5 0 64.80789184570312 0 41.75 C 0 18.69212341308594 18.69212341308594 0 41.75 0 Z" stroke="none" fill="#ee70f7"/>
              </g>
            </g>
          </g>
        </g>
        <g id="rutina" transform="translate(1041.133 11216.627)">
          <g id="Group_1150346" data-name="Group 1150346" transform="translate(19.052 8.833)">
            <g id="Group_1150344" data-name="Group 1150344" transform="translate(0 0)">
              <path id="Path_987087" data-name="Path 987087" d="M56.277,49.117a1.837,1.837,0,0,1,1.834,1.834V84.693a1.837,1.837,0,0,1-1.834,1.834H28.037A1.837,1.837,0,0,1,26.2,84.693V50.951a1.837,1.837,0,0,1,1.834-1.834h28.24Z" transform="translate(-26.203 -45.625)" fill="#837683" fill-rule="evenodd"/>
              <path id="Path_987088" data-name="Path 987088" d="M289.151,86.528h2.367a1.837,1.837,0,0,0,1.834-1.834V50.952a1.837,1.837,0,0,0-1.834-1.834h-2.367Z" transform="translate(-261.443 -45.626)" fill="#685e68" fill-rule="evenodd"/>
              <path id="Path_987089" data-name="Path 987089" d="M76.393,73.328H51.237a.826.826,0,0,0-.825.825v30.658a.826.826,0,0,0,.825.825H76.393a.826.826,0,0,0,.825-.825V74.153a.826.826,0,0,0-.825-.825Z" transform="translate(-47.861 -67.285)" fill="#eceff1" fill-rule="evenodd"/>
              <path id="Path_987090" data-name="Path 987090" d="M289.151,105.635h.825q.039,0,.077,0a.826.826,0,0,0,.748-.821V74.152a.827.827,0,0,0-.748-.821c-.025,0-.051,0-.077,0h-.825Z" transform="translate(-261.443 -67.284)" fill="#d1d1d6" fill-rule="evenodd"/>
              <path id="Path_987091" data-name="Path 987091" d="M111.431,18.359h2.614a.81.81,0,0,0,.757-.5,3.118,3.118,0,0,1,5.729,0,.81.81,0,0,0,.757.5H123.9a.826.826,0,0,1,.825.825V22.3a.826.826,0,0,1-.825.825H111.431a.826.826,0,0,1-.825-.825V19.184A.826.826,0,0,1,111.431,18.359Z" transform="translate(-101.712 -15.975)" fill="#e3a76f" fill-rule="evenodd"/>
              <path id="Path_987092" data-name="Path 987092" d="M123.077,42.541H110.606a.826.826,0,0,0,.825.825H123.9a.826.826,0,0,0,.825-.825V39.423a.826.826,0,0,0-.825-.825v3.119a.826.826,0,0,1-.825.825Z" transform="translate(-101.712 -36.214)" fill="#c48958" fill-rule="evenodd"/>
              <path id="Path_987093" data-name="Path 987093" d="M92.4,289.851h3.093a1.023,1.023,0,0,1,1.02,1.02v3.093a1.023,1.023,0,0,1-1.02,1.02H92.4a1.023,1.023,0,0,1-1.02-1.02v-3.093A1.023,1.023,0,0,1,92.4,289.851Z" transform="translate(-84.512 -260.992)" fill="#ffe177" fill-rule="evenodd"/>
              <path id="Path_987094" data-name="Path 987094" d="M119.986,289.851h1.1a1.023,1.023,0,0,1,1.02,1.02v3.093a1.023,1.023,0,0,1-1.02,1.02h-1.1a1.023,1.023,0,0,0,1.02-1.02v-3.093A1.023,1.023,0,0,0,119.986,289.851Z" transform="translate(-110.104 -260.992)" fill="#ffd064" fill-rule="evenodd"/>
              <path id="Path_987095" data-name="Path 987095" d="M92.4,207.535h3.093a1.023,1.023,0,0,1,1.02,1.02v3.093a1.023,1.023,0,0,1-1.02,1.02H92.4a1.023,1.023,0,0,1-1.02-1.02v-3.093A1.023,1.023,0,0,1,92.4,207.535Z" transform="translate(-84.512 -187.35)" fill="#6cf5c2" fill-rule="evenodd"/>
              <path id="Path_987096" data-name="Path 987096" d="M119.986,207.535h1.1a1.023,1.023,0,0,1,1.02,1.021v3.093a1.023,1.023,0,0,1-1.02,1.02h-1.1a1.023,1.023,0,0,0,1.02-1.02v-3.093a1.023,1.023,0,0,0-1.02-1.021Z" transform="translate(-110.104 -187.35)" fill="#00e499" fill-rule="evenodd"/>
              <path id="Path_987097" data-name="Path 987097" d="M92.4,125.219h3.093a1.023,1.023,0,0,1,1.02,1.02v3.093a1.023,1.023,0,0,1-1.02,1.02H92.4a1.023,1.023,0,0,1-1.02-1.02v-3.093A1.023,1.023,0,0,1,92.4,125.219Z" transform="translate(-84.512 -113.708)" fill="#8ac9fe" fill-rule="evenodd"/>
              <path id="Path_987098" data-name="Path 987098" d="M119.986,125.219h1.1a1.023,1.023,0,0,1,1.02,1.02v3.093a1.023,1.023,0,0,1-1.02,1.02h-1.1a1.023,1.023,0,0,0,1.02-1.02v-3.093A1.023,1.023,0,0,0,119.986,125.219Z" transform="translate(-110.104 -113.708)" fill="#60b7ff" fill-rule="evenodd"/>
            </g>
            <g id="Group_1150345" data-name="Group 1150345" transform="translate(22.598 24.748)">
              <path id="Path_987099" data-name="Path 987099" d="M253.117,252.553a8.873,8.873,0,0,1,2.6,1.077l1.688-.75,1.989,1.989-.749,1.687a8.866,8.866,0,0,1,1.077,2.6l1.722.663v2.813l-1.722.663a8.871,8.871,0,0,1-1.077,2.6l.75,1.688-1.989,1.989-1.687-.749a8.87,8.87,0,0,1-2.6,1.077l-.663,1.722h-2.813l-.663-1.722a8.868,8.868,0,0,1-2.6-1.077l-1.688.75-1.989-1.989.749-1.687a8.867,8.867,0,0,1-1.077-2.6l-1.722-.663v-2.813l1.722-.663a8.866,8.866,0,0,1,1.077-2.6l-.749-1.687,1.989-1.989,1.688.75a8.868,8.868,0,0,1,2.6-1.077l.663-1.722h2.813Z" transform="translate(-240.656 -250.831)" fill="#ffe177" fill-rule="evenodd"/>
              <path id="Path_987100" data-name="Path 987100" d="M278.46,268.817l-1.688.749-.26-.26,1.582-.7Q278.275,268.715,278.46,268.817Zm6.735-16.263a8.872,8.872,0,0,1,2.6,1.077l-.48.213a11.7,11.7,0,0,0-2.962-1.29l-.663-1.722h.845Zm2.6,16.263a8.87,8.87,0,0,1-2.6,1.077l-.663,1.722h-.845l.663-1.722a11.689,11.689,0,0,0,2.963-1.29Zm-11.28-15.676.26-.26,1.688.75q-.185.1-.365.213Zm12.382,0,.585-.26,1.989,1.989-.749,1.687a8.868,8.868,0,0,1,1.077,2.6l1.722.663v2.813l-1.722.663a8.871,8.871,0,0,1-1.077,2.6l.75,1.688-1.989,1.989-.585-.26,1.729-1.729-.75-1.688a8.868,8.868,0,0,0,1.077-2.6l1.722-.663v-2.813l-1.722-.663a8.868,8.868,0,0,0-1.077-2.6l.749-1.687Z" transform="translate(-272.735 -250.832)" fill="#ffd064" fill-rule="evenodd"/>
              <circle id="Ellipse_11700" data-name="Ellipse 11700" cx="4.905" cy="4.905" r="4.905" transform="translate(3.448 10.392) rotate(-45)" fill="#eceff1"/>
              <path id="Path_987101" data-name="Path 987101" d="M297.631,302.9a4.905,4.905,0,1,0,0,9.81q.2,0,.39-.015a4.905,4.905,0,0,1,0-9.779C297.893,302.907,297.763,302.9,297.631,302.9Z" transform="translate(-287.239 -297.415)" fill="#d1d1d6" fill-rule="evenodd"/>
            </g>
          </g>
          <path id="Path_987102" data-name="Path 987102" d="M56.1,43.974a4.062,4.062,0,1,0-4.062,4.062A4.065,4.065,0,0,0,56.1,43.974Zm1.686,0a5.748,5.748,0,1,1-5.748-5.748A5.755,5.755,0,0,1,57.789,43.974Zm3.8.828-1.18.455a.844.844,0,0,0-.516.591,7.981,7.981,0,0,1-.977,2.35.845.845,0,0,0-.05.784l.511,1.158-1.166,1.17L57.05,50.8a.842.842,0,0,0-.784.053,8.035,8.035,0,0,1-2.351.974.836.836,0,0,0-.59.517l-.456,1.181H51.212l-.456-1.182a.835.835,0,0,0-.59-.517,8.038,8.038,0,0,1-2.351-.974.841.841,0,0,0-.784-.053l-1.156.514-1.17-1.17.511-1.158a.844.844,0,0,0-.05-.784,7.973,7.973,0,0,1-.977-2.351.845.845,0,0,0-.516-.592l-1.18-.454V43.146l1.18-.454a.846.846,0,0,0,.516-.592,7.973,7.973,0,0,1,.977-2.35.845.845,0,0,0,.05-.784l-.511-1.159,1.17-1.17,1.156.514a.841.841,0,0,0,.784-.053,8.035,8.035,0,0,1,2.351-.974.836.836,0,0,0,.59-.517l.456-1.182h1.657l.456,1.182a.835.835,0,0,0,.59.517,8.035,8.035,0,0,1,2.351.974.841.841,0,0,0,.784.053l1.161-.514,1.166,1.17-.511,1.158a.844.844,0,0,0,.05.784,7.975,7.975,0,0,1,.977,2.351.846.846,0,0,0,.516.592l1.18.454Zm-.174,1.873a9.883,9.883,0,0,1-.833,2.018l.57,1.293a.837.837,0,0,1-.174.938l-1.989,1.989a.843.843,0,0,1-.937.175l-1.295-.574a9.7,9.7,0,0,1-2.014.837l-.511,1.319a.839.839,0,0,1-.784.54H50.637a.84.84,0,0,1-.789-.54l-.511-1.319a9.7,9.7,0,0,1-2.014-.837l-1.295.575a.843.843,0,0,1-.937-.175L43.1,50.923a.837.837,0,0,1-.174-.938l.57-1.293a9.606,9.606,0,0,1-.833-2.018l-1.319-.507a.841.841,0,0,1-.541-.787V42.568a.841.841,0,0,1,.541-.787l1.319-.508a9.881,9.881,0,0,1,.833-2.017l-.57-1.293a.837.837,0,0,1,.174-.938l1.989-1.989a.843.843,0,0,1,.937-.175l1.295.575a9.7,9.7,0,0,1,2.014-.837l.511-1.319a.84.84,0,0,1,.789-.54h2.812a.839.839,0,0,1,.784.54l.511,1.319a9.7,9.7,0,0,1,2.014.837l1.295-.575a.843.843,0,0,1,.937.175l1.989,1.989a.837.837,0,0,1,.174.938l-.57,1.293a9.613,9.613,0,0,1,.833,2.018l1.319.508a.841.841,0,0,1,.541.787V45.38a.842.842,0,0,1-.541.787Zm-12.161-31.8V27.927q.431-.074.863-.125V14.161a.993.993,0,0,0-.992-.991H42.91v.865h5.5A.846.846,0,0,1,49.253,14.878Zm-8.03-2.816H38.034a.842.842,0,0,1-.818-.645,2.273,2.273,0,0,0-4.419,0,.848.848,0,0,1-.823.645H28.789v3.082H41.223ZM27.1,14.035H21.6a.843.843,0,0,0-.843.843V47.185a.843.843,0,0,0,.843.843H36.269c.074.291.159.579.248.865H20.883A.989.989,0,0,1,19.9,47.9V14.161a.989.989,0,0,1,.987-.991H27.1ZM67.034,53.328a.844.844,0,0,1-.58,1.042l-2.738.782a.832.832,0,0,1-.233.032.843.843,0,0,1-.843-.812l-.1-2.847a.841.841,0,1,1,1.681-.06l.02.522A14.6,14.6,0,0,0,44.7,31.351a.843.843,0,0,1-.848-1.457,16.272,16.272,0,0,1,3.715-1.581V15.721H42.91v.265a.843.843,0,0,1-.843.843H27.946a.843.843,0,0,1-.843-.843v-.265H22.446V46.342H35.931a15.906,15.906,0,0,1-.159-1.689,16.51,16.51,0,0,1,.02-1.718h-.317a.843.843,0,1,1,0-1.686h.511a15.87,15.87,0,0,1,.466-1.981h-.977a.843.843,0,1,1,0-1.686h1.587a15.877,15.877,0,0,1,1.314-2.466l-.288.081a.843.843,0,1,1-.461-1.621l2.738-.782a.844.844,0,0,1,1.076.78l.1,2.847a.848.848,0,0,1-.813.873H40.7a.84.84,0,0,1-.843-.813l-.02-.53a14.579,14.579,0,0,0-1.384,2.63.92.92,0,0,1-.109.284,14.629,14.629,0,0,0-.8,3.114.827.827,0,0,1,.01.111.805.805,0,0,1-.06.31A14.63,14.63,0,0,0,59.376,56.6a.844.844,0,0,1,.853,1.457,16.309,16.309,0,0,1-23.078-7.474H20.883A2.679,2.679,0,0,1,18.21,47.9V14.161a2.679,2.679,0,0,1,2.673-2.677H27.1v-.265a.842.842,0,0,1,.843-.843h3.422a3.964,3.964,0,0,1,7.271,0h3.427a.842.842,0,0,1,.843.843v.265h6.215A2.68,2.68,0,0,1,51.8,14.161v13.53A16.291,16.291,0,0,1,65.71,52.83l.283-.081a.844.844,0,0,1,1.042.579ZM35,10.566a.825.825,0,1,1-.823.824A.828.828,0,0,1,35,10.566Zm-4.8,28.147a.178.178,0,0,0-.174-.178h-3.1a.182.182,0,0,0-.179.178v3.092a.182.182,0,0,0,.179.178h3.095a.178.178,0,0,0,.174-.178V38.713Zm1.686,0a1.863,1.863,0,0,0-1.86-1.863H26.939a1.863,1.863,0,0,0-1.86,1.863v3.092a1.863,1.863,0,0,0,1.86,1.863h3.095a1.863,1.863,0,0,0,1.86-1.863ZM30.208,30.04a.178.178,0,0,0-.174-.178h-3.1a.182.182,0,0,0-.179.178v3.092a.182.182,0,0,0,.179.178h3.095a.178.178,0,0,0,.174-.178V30.04Zm1.686,3.092V30.04a1.863,1.863,0,0,0-1.86-1.863H26.939a1.863,1.863,0,0,0-1.86,1.863v3.092A1.863,1.863,0,0,0,26.939,35h3.095a1.863,1.863,0,0,0,1.86-1.863ZM30.208,21.366a.177.177,0,0,0-.174-.177h-3.1a.182.182,0,0,0-.179.177v3.092a.182.182,0,0,0,.179.178h3.095a.178.178,0,0,0,.174-.178V21.366Zm1.686,3.092V21.366a1.863,1.863,0,0,0-1.86-1.863H26.939a1.863,1.863,0,0,0-1.86,1.863v3.092a1.863,1.863,0,0,0,1.86,1.863h3.095A1.863,1.863,0,0,0,31.894,24.458Zm3.581,8.118a.843.843,0,1,0,0,1.686h.784a.843.843,0,1,0,0-1.686Zm7.643-2.824a.843.843,0,0,0-.843-.843h-6.8a.843.843,0,1,0,0,1.686h6.8a.843.843,0,0,0,.843-.843Zm-7.643-7.83a.843.843,0,1,1,0-1.686H44.09a.843.843,0,1,1,0,1.686Zm-.843,2.825a.843.843,0,0,1,.843-.843H44.09a.843.843,0,1,1,0,1.686H35.475A.843.843,0,0,1,34.632,24.746Z" transform="translate(0 0)" fill="#242222" fill-rule="evenodd"/>
        </g>
      </g>
    </g>
  </g>
</svg>
