<svg xmlns="http://www.w3.org/2000/svg" xmlns:xlink="http://www.w3.org/1999/xlink" width="101.5" height="101.5" viewBox="0 0 101.5 101.5">
  <defs>
    <filter id="Path_982547" x="0" y="0" width="101.5" height="101.5" filterUnits="userSpaceOnUse">
      <feOffset dy="3" input="SourceAlpha"/>
      <feGaussianBlur stdDeviation="3" result="blur"/>
      <feFlood flood-opacity="0.161"/>
      <feComposite operator="in" in2="blur"/>
      <feComposite in="SourceGraphic"/>
    </filter>
  </defs>
  <g id="Group_1150810" data-name="Group 1150810" transform="translate(-1032.745 -12464.784)">
    <g id="Group_1150259" data-name="Group 1150259" transform="translate(0 -66.362)">
      <g id="Group_1149003" data-name="Group 1149003" transform="translate(708.745 8826.969)">
        <g id="Group_1147086" data-name="Group 1147086" transform="translate(333 3710.178)">
          <g transform="matrix(1, 0, 0, 1, -9, -6)" filter="url(#Path_982547)">
            <g id="Path_982547-2" data-name="Path 982547" transform="translate(9 6)" fill="#fdeffe">
              <path d="M 41.75 82 C 36.31562423706055 82 31.04459953308105 80.93599700927734 26.08334159851074 78.83757781982422 C 21.29058837890625 76.81040191650391 16.98592948913574 73.90802001953125 13.28895282745361 70.21104431152344 C 9.591976165771484 66.51406860351562 6.689599990844727 62.20942306518555 4.662435531616211 57.41666030883789 C 2.563999891281128 52.45539855957031 1.5 47.18437576293945 1.5 41.75 C 1.5 36.31562423706055 2.563999891281128 31.04459953308105 4.662435531616211 26.08334159851074 C 6.689599990844727 21.29058837890625 9.591976165771484 16.98592948913574 13.28895282745361 13.28895282745361 C 16.98592948913574 9.591976165771484 21.29058837890625 6.689599990844727 26.08334159851074 4.662435531616211 C 31.04459953308105 2.563999891281128 36.31562423706055 1.5 41.75 1.5 C 47.18437576293945 1.5 52.45539855957031 2.563999891281128 57.41666030883789 4.662435531616211 C 62.20942306518555 6.689599990844727 66.51406860351562 9.591976165771484 70.21104431152344 13.28895282745361 C 73.90802001953125 16.98592948913574 76.81040191650391 21.29058837890625 78.83757781982422 26.08334159851074 C 80.93599700927734 31.04459953308105 82 36.31562423706055 82 41.75 C 82 47.18437576293945 80.93599700927734 52.45539855957031 78.83757781982422 57.41666030883789 C 76.81040191650391 62.20942306518555 73.90802001953125 66.51408386230469 70.21104431152344 70.21104431152344 C 66.51408386230469 73.90802001953125 62.20942306518555 76.81040191650391 57.41666030883789 78.83757781982422 C 52.45539855957031 80.93599700927734 47.18437576293945 82 41.75 82 Z" stroke="none"/>
              <path d="M 41.75 3 C 36.5174674987793 3 31.44303894042969 4.024131774902344 26.66767883300781 6.043930053710938 C 22.05370712280273 7.9954833984375 17.90931701660156 10.7899169921875 14.34961700439453 14.34961700439453 C 10.7899169921875 17.90931701660156 7.9954833984375 22.05370712280273 6.043930053710938 26.66767883300781 C 4.024131774902344 31.44303894042969 3 36.5174674987793 3 41.75 C 3 46.9825325012207 4.024131774902344 52.05697250366211 6.043930053710938 56.83233261108398 C 7.9954833984375 61.44629287719727 10.7899169921875 65.59069061279297 14.34961700439453 69.150390625 C 17.90931701660156 72.71009063720703 22.05370712280273 75.5045166015625 26.66767883300781 77.45606994628906 C 31.44303894042969 79.47586822509766 36.5174674987793 80.5 41.75 80.5 C 46.9825325012207 80.5 52.05697250366211 79.47586822509766 56.83233261108398 77.45606994628906 C 61.44629287719727 75.5045166015625 65.59069061279297 72.71009063720703 69.150390625 69.150390625 C 72.71009063720703 65.59069061279297 75.5045166015625 61.44629287719727 77.45606994628906 56.83233261108398 C 79.47586822509766 52.05697250366211 80.5 46.9825325012207 80.5 41.75 C 80.5 36.5174674987793 79.47586822509766 31.44303894042969 77.45606994628906 26.66767883300781 C 75.5045166015625 22.05370712280273 72.71009063720703 17.90931701660156 69.150390625 14.34961700439453 C 65.59069061279297 10.7899169921875 61.44629287719727 7.9954833984375 56.83233261108398 6.043930053710938 C 52.05697250366211 4.024131774902344 46.9825325012207 3 41.75 3 M 41.75 0 C 64.80789184570312 0 83.5 18.69212341308594 83.5 41.75 C 83.5 64.80789184570312 64.80789184570312 83.5 41.75 83.5 C 18.69212341308594 83.5 0 64.80789184570312 0 41.75 C 0 18.69212341308594 18.69212341308594 0 41.75 0 Z" stroke="none" fill="#ee70f7"/>
            </g>
          </g>
        </g>
      </g>
      <g id="research" transform="translate(1055.75 12546.77)">
        <path id="Path_986933" data-name="Path 986933" d="M23.778,4.75a3.025,3.025,0,0,0-2.941,2.324h5.882A3.025,3.025,0,0,0,23.778,4.75Z" transform="translate(-1.235 -0.105)" fill="none"/>
        <path id="Path_986934" data-name="Path 986934" d="M4.7,23.21V55.985h35.8V47.394a13.62,13.62,0,1,1,0-24.494V12.75H30.732v3.022a.7.7,0,0,1-.7.7H15.158a.7.7,0,0,1-.7-.7V12.75H4.7v3.022a.7.7,0,0,1-.7.7v6.044a.7.7,0,0,1,.7.7Zm3.022-4.417H37.473a.7.7,0,0,1,0,1.395H7.719a.7.7,0,1,1,0-1.395Zm0,3.719H23.526a.7.7,0,1,1,0,1.395H7.719a.7.7,0,0,1,0-1.395Zm0,3.719H20.736a.7.7,0,0,1,0,1.395H7.719a.7.7,0,1,1,0-1.395Zm0,3.719H18.877a.7.7,0,1,1,0,1.395H7.719a.7.7,0,0,1,0-1.395Zm0,3.719H18.877a.7.7,0,1,1,0,1.395H7.719a.7.7,0,1,1,0-1.395Zm0,3.719H18.877a.7.7,0,1,1,0,1.395H7.719a.7.7,0,1,1,0-1.395Zm0,3.719H18.877a.7.7,0,1,1,0,1.395H7.719a.7.7,0,1,1,0-1.395Zm0,3.719H20.736a.7.7,0,1,1,0,1.395H7.719a.7.7,0,1,1,0-1.395Zm0,3.719H23.526a.7.7,0,1,1,0,1.395H7.719a.7.7,0,1,1,0-1.395Zm0,3.719H37.473a.7.7,0,0,1,0,1.395H7.719a.7.7,0,1,1,0-1.395Z" transform="translate(-0.053 -0.667)" fill="#d8f5ff"/>
        <path id="Path_986935" data-name="Path 986935" d="M16.75,8.75H30.232v6.044H16.75Z" transform="translate(-0.948 -0.386)" fill="#ffe600"/>
        <path id="Path_986936" data-name="Path 986936" d="M46.861,30.474a12.244,12.244,0,1,0,1.056,3.146.69.69,0,0,1,.465-.78L47.7,30.813a.69.69,0,0,1-.841-.339Zm-3.6,12.785a10.393,10.393,0,0,1-11.61,2.128.7.7,0,0,1-.35-.921.659.659,0,0,1,.073-.1l-1.749-1.209a.656.656,0,0,1-.07.1.7.7,0,0,1-.986,0,10.388,10.388,0,1,1,14.691,0Z" transform="translate(-1.432 -1.433)" fill="#0a4b75"/>
        <path id="Path_986937" data-name="Path 986937" d="M32.466,44.36A9,9,0,1,0,29.8,42.518a.687.687,0,0,1,.07.881l1.749,1.209a.688.688,0,0,1,.846-.248Z" transform="translate(-1.679 -1.679)" fill="#00c6ff"/>
        <path id="Path_986938" data-name="Path 986938" d="M0,0H2.3V5.989H0Z" transform="translate(43.288 44.93) rotate(-45)" fill="#d8f5ff"/>
        <path id="Path_986939" data-name="Path 986939" d="M0,0H4.142V5.988H0Z" transform="translate(47.856 50.796) rotate(-45)" fill="#0a4b75"/>
        <path id="Path_986940" data-name="Path 986940" d="M28.709,28.709a10.392,10.392,0,0,0,0,14.691.7.7,0,0,0,.986,0,.655.655,0,0,0,.07-.1.687.687,0,0,0-.069-.882,8.989,8.989,0,1,1,2.666,1.842.688.688,0,0,0-.848.247.659.659,0,0,0-.073.1.7.7,0,0,0,.35.921A10.389,10.389,0,1,0,28.71,28.709Z" transform="translate(-1.574 -1.574)"/>
        <path id="Path_986941" data-name="Path 986941" d="M56.508,51.608l-5.221-5.221a.7.7,0,0,0-.986,0l-.16.159-4.4-4.4a13.63,13.63,0,0,0,2.116-10.217.7.7,0,0,0-.815-.558.651.651,0,0,0-.088.035.69.69,0,0,0-.465.78,12.153,12.153,0,1,1-1.056-3.146.69.69,0,0,0,.843.34.661.661,0,0,0,.093-.025.7.7,0,0,0,.314-.935,13.688,13.688,0,0,0-4.845-5.4V11.386a.7.7,0,0,0-.7-.7H30.679V7.667a.7.7,0,0,0-.7-.7H26.9a4.417,4.417,0,0,0-8.723,0H15.1a.7.7,0,0,0-.7.7v3.022H3.947a.7.7,0,0,0-.7.7V15.1a.7.7,0,0,0,1.395,0V12.083h9.763V15.1a.7.7,0,0,0,.7.7H29.982a.7.7,0,0,0,.7-.7V12.083h9.763V22.234a13.62,13.62,0,1,0,0,24.494v8.591H4.645V22.543a.7.7,0,1,0-1.395,0V56.016a.7.7,0,0,0,.7.7H41.139a.7.7,0,0,0,.7-.7V45.943q.155-.1.307-.2l4.4,4.4-.159.16a.7.7,0,0,0,0,.986l5.221,5.221a.7.7,0,0,0,.986,0l3.915-3.915a.7.7,0,0,0,0-.986ZM52.1,55.029,47.866,50.8l2.929-2.929L55.029,52.1ZM44.921,43.3l4.235,4.234-1.624,1.624L43.3,44.922ZM15.8,14.408V8.364H29.284v6.044Zm6.741-9.763a3.025,3.025,0,0,1,2.941,2.324H19.6a3.025,3.025,0,0,1,2.941-2.324Z"/>
        <path id="Path_986942" data-name="Path 986942" d="M7.947,20.645H37.7a.7.7,0,0,0,0-1.395H7.947a.7.7,0,0,0,0,1.395Z" transform="translate(-0.281 -1.123)"/>
        <path id="Path_986943" data-name="Path 986943" d="M7.947,56.645H37.7a.7.7,0,0,0,0-1.395H7.947a.7.7,0,0,0,0,1.395Z" transform="translate(-0.281 -3.651)"/>
        <path id="Path_986944" data-name="Path 986944" d="M7.947,28.645H20.964a.7.7,0,1,0,0-1.395H7.947a.7.7,0,0,0,0,1.395Z" transform="translate(-0.281 -1.685)"/>
        <path id="Path_986945" data-name="Path 986945" d="M7.947,48.645H20.964a.7.7,0,1,0,0-1.395H7.947a.7.7,0,1,0,0,1.395Z" transform="translate(-0.281 -3.089)"/>
        <path id="Path_986946" data-name="Path 986946" d="M7.947,24.645H23.754a.7.7,0,1,0,0-1.395H7.947a.7.7,0,0,0,0,1.395Z" transform="translate(-0.281 -1.404)"/>
        <path id="Path_986947" data-name="Path 986947" d="M7.947,52.645H23.754a.7.7,0,1,0,0-1.395H7.947a.7.7,0,1,0,0,1.395Z" transform="translate(-0.281 -3.37)"/>
        <path id="Path_986948" data-name="Path 986948" d="M7.947,32.645H19.1a.7.7,0,0,0,0-1.395H7.947a.7.7,0,1,0,0,1.395Z" transform="translate(-0.281 -1.966)"/>
        <path id="Path_986949" data-name="Path 986949" d="M7.947,36.645H19.1a.7.7,0,1,0,0-1.395H7.947a.7.7,0,1,0,0,1.395Z" transform="translate(-0.281 -2.247)"/>
        <path id="Path_986950" data-name="Path 986950" d="M7.947,40.645H19.1a.7.7,0,1,0,0-1.395H7.947a.7.7,0,1,0,0,1.395Z" transform="translate(-0.281 -2.527)"/>
        <path id="Path_986951" data-name="Path 986951" d="M7.947,44.645H19.1a.7.7,0,1,0,0-1.395H7.947a.7.7,0,1,0,0,1.395Z" transform="translate(-0.281 -2.808)"/>
      </g>
    </g>
  </g>
</svg>
