<svg xmlns="http://www.w3.org/2000/svg" xmlns:xlink="http://www.w3.org/1999/xlink" width="101.5" height="101.5" viewBox="0 0 101.5 101.5">
  <defs>
    <filter id="Path_982547" x="0" y="0" width="101.5" height="101.5" filterUnits="userSpaceOnUse">
      <feOffset dy="3" input="SourceAlpha"/>
      <feGaussianBlur stdDeviation="3" result="blur"/>
      <feFlood flood-opacity="0.161"/>
      <feComposite operator="in" in2="blur"/>
      <feComposite in="SourceGraphic"/>
    </filter>
  </defs>
  <g id="Group_1150809" data-name="Group 1150809" transform="translate(-612.5 -12464.784)">
    <g id="Group_1150258" data-name="Group 1150258" transform="translate(0 -66.362)">
      <g id="Group_1149002" data-name="Group 1149002" transform="translate(288.5 8826.969)">
        <g id="Group_1147086" data-name="Group 1147086" transform="translate(333 3710.178)">
          <g transform="matrix(1, 0, 0, 1, -9, -6)" filter="url(#Path_982547)">
            <g id="Path_982547-2" data-name="Path 982547" transform="translate(9 6)" fill="#fdeffe">
              <path d="M 41.75 82 C 36.31562423706055 82 31.04459953308105 80.93599700927734 26.08334159851074 78.83757781982422 C 21.29058837890625 76.81040191650391 16.98592948913574 73.90802001953125 13.28895282745361 70.21104431152344 C 9.591976165771484 66.51406860351562 6.689599990844727 62.20942306518555 4.662435531616211 57.41666030883789 C 2.563999891281128 52.45539855957031 1.5 47.18437576293945 1.5 41.75 C 1.5 36.31562423706055 2.563999891281128 31.04459953308105 4.662435531616211 26.08334159851074 C 6.689599990844727 21.29058837890625 9.591976165771484 16.98592948913574 13.28895282745361 13.28895282745361 C 16.98592948913574 9.591976165771484 21.29058837890625 6.689599990844727 26.08334159851074 4.662435531616211 C 31.04459953308105 2.563999891281128 36.31562423706055 1.5 41.75 1.5 C 47.18437576293945 1.5 52.45539855957031 2.563999891281128 57.41666030883789 4.662435531616211 C 62.20942306518555 6.689599990844727 66.51406860351562 9.591976165771484 70.21104431152344 13.28895282745361 C 73.90802001953125 16.98592948913574 76.81040191650391 21.29058837890625 78.83757781982422 26.08334159851074 C 80.93599700927734 31.04459953308105 82 36.31562423706055 82 41.75 C 82 47.18437576293945 80.93599700927734 52.45539855957031 78.83757781982422 57.41666030883789 C 76.81040191650391 62.20942306518555 73.90802001953125 66.51408386230469 70.21104431152344 70.21104431152344 C 66.51408386230469 73.90802001953125 62.20942306518555 76.81040191650391 57.41666030883789 78.83757781982422 C 52.45539855957031 80.93599700927734 47.18437576293945 82 41.75 82 Z" stroke="none"/>
              <path d="M 41.75 3 C 36.5174674987793 3 31.44303894042969 4.024131774902344 26.66767883300781 6.043930053710938 C 22.05370712280273 7.9954833984375 17.90931701660156 10.7899169921875 14.34961700439453 14.34961700439453 C 10.7899169921875 17.90931701660156 7.9954833984375 22.05370712280273 6.043930053710938 26.66767883300781 C 4.024131774902344 31.44303894042969 3 36.5174674987793 3 41.75 C 3 46.9825325012207 4.024131774902344 52.05697250366211 6.043930053710938 56.83233261108398 C 7.9954833984375 61.44629287719727 10.7899169921875 65.59069061279297 14.34961700439453 69.150390625 C 17.90931701660156 72.71009063720703 22.05370712280273 75.5045166015625 26.66767883300781 77.45606994628906 C 31.44303894042969 79.47586822509766 36.5174674987793 80.5 41.75 80.5 C 46.9825325012207 80.5 52.05697250366211 79.47586822509766 56.83233261108398 77.45606994628906 C 61.44629287719727 75.5045166015625 65.59069061279297 72.71009063720703 69.150390625 69.150390625 C 72.71009063720703 65.59069061279297 75.5045166015625 61.44629287719727 77.45606994628906 56.83233261108398 C 79.47586822509766 52.05697250366211 80.5 46.9825325012207 80.5 41.75 C 80.5 36.5174674987793 79.47586822509766 31.44303894042969 77.45606994628906 26.66767883300781 C 75.5045166015625 22.05370712280273 72.71009063720703 17.90931701660156 69.150390625 14.34961700439453 C 65.59069061279297 10.7899169921875 61.44629287719727 7.9954833984375 56.83233261108398 6.043930053710938 C 52.05697250366211 4.024131774902344 46.9825325012207 3 41.75 3 M 41.75 0 C 64.80789184570312 0 83.5 18.69212341308594 83.5 41.75 C 83.5 64.80789184570312 64.80789184570312 83.5 41.75 83.5 C 18.69212341308594 83.5 0 64.80789184570312 0 41.75 C 0 18.69212341308594 18.69212341308594 0 41.75 0 Z" stroke="none" fill="#ee70f7"/>
            </g>
          </g>
        </g>
      </g>
      <g id="evaluation_9640769" transform="translate(581.58 12538.647)">
        <g id="Group_1150257" data-name="Group 1150257" transform="translate(61.717 14.816)">
          <path id="Path_986924" data-name="Path 986924" d="M67.9,67.941h33.765V21H75.3l-7.4,7.4Z" transform="translate(-67.9 -21)" fill="#e6e6e6" fill-rule="evenodd"/>
          <path id="Path_986925" data-name="Path 986925" d="M148.338,105.4h2.533v1.657a6.67,6.67,0,0,1,2.533,1.05l1.167-1.167,1.8,1.8-1.167,1.167a6.67,6.67,0,0,1,1.05,2.533h1.657v2.533h-1.657a6.67,6.67,0,0,1-1.05,2.533l1.167,1.167-1.8,1.8L153.4,119.3a6.67,6.67,0,0,1-2.533,1.05V122h-2.533v-1.646a6.67,6.67,0,0,1-2.533-1.05l-1.167,1.167-1.8-1.8,1.167-1.167a6.67,6.67,0,0,1-1.05-2.533H141.3v-2.533h1.657a6.67,6.67,0,0,1,1.05-2.533l-1.167-1.167,1.8-1.8,1.167,1.167a6.67,6.67,0,0,1,2.533-1.05Z" transform="translate(-132.733 -95.55)" fill="#ffcd05" fill-rule="evenodd"/>
          <path id="Path_986926" data-name="Path 986926" d="M185.295,145.7a3.595,3.595,0,1,1-3.595,3.595A3.6,3.6,0,0,1,185.295,145.7Z" transform="translate(-168.418 -131.146)" fill="#cc3737" fill-rule="evenodd"/>
          <path id="Path_986927" data-name="Path 986927" d="M287.532,208.576a10.151,10.151,0,1,0-8.823,17.192v5.252H282v-5.252a10.049,10.049,0,0,0,5.532-2.836A10.165,10.165,0,0,0,287.532,208.576Z" transform="translate(-246.589 -184.055)" fill="#cc3737" fill-rule="evenodd"/>
          <path id="Path_986928" data-name="Path 986928" d="M307.516,232.668a7.246,7.246,0,1,0,0,10.247,7.255,7.255,0,0,0,0-10.247Z" transform="translate(-268.627 -206.093)" fill="#e6e6e6" fill-rule="evenodd"/>
          <path id="Path_986929" data-name="Path 986929" d="M338.442,408.2H335.1a1.011,1.011,0,0,0-1,1v7.668a1.011,1.011,0,0,0,1,1h3.338a1.011,1.011,0,0,0,1-1V409.2a1.011,1.011,0,0,0-1-1Z" transform="translate(-303.031 -363.009)" fill="#cc3737" fill-rule="evenodd"/>
          <path id="Path_986930" data-name="Path 986930" d="M108.1,356.2h3.641v3.641H108.1Z" transform="translate(-103.408 -317.078)" fill="#fcb13b" fill-rule="evenodd"/>
          <path id="Path_986931" data-name="Path 986931" d="M108.1,295.3h3.641v3.641H108.1Z" transform="translate(-103.408 -263.286)" fill="#fcb13b" fill-rule="evenodd"/>
        </g>
        <path id="Path_986932" data-name="Path 986932" d="M66.409,46.013H70.05a.812.812,0,0,1,.817.817v3.641a.812.812,0,0,1-.817.817H66.409a.812.812,0,0,1-.817-.817V46.83A.819.819,0,0,1,66.409,46.013Zm2.824,1.634H67.226v2.007h2.007Zm-2.824,5.474H70.05a.812.812,0,0,1,.817.817v3.641a.812.812,0,0,1-.817.817H66.409a.812.812,0,0,1-.817-.817V53.938A.812.812,0,0,1,66.409,53.121Zm2.824,1.634H67.226v2.007h2.007Zm27.894,6.069H93.8a.184.184,0,0,0-.187.187v7.668a.184.184,0,0,0,.187.187h3.326a.184.184,0,0,0,.187-.187V61.011A.192.192,0,0,0,97.127,60.824ZM94.653,59.19H96.31V56.529a.824.824,0,0,1,.747-.817,8.952,8.952,0,0,0,2.7-.9,9.352,9.352,0,1,0-5.789.9.814.814,0,0,1,.677.805V59.19Zm3.28.2a1.809,1.809,0,0,1,1,1.622v7.668A1.823,1.823,0,0,1,97.116,70.5H93.789a1.823,1.823,0,0,1-1.821-1.821V62.586H61.717a.812.812,0,0,1-.817-.817V22.122a.81.81,0,0,1,.233-.479l7.423-7.411a.818.818,0,0,1,.56-.233H95.47a.812.812,0,0,1,.817.817V35.579a10.968,10.968,0,0,1,1.646,21.627ZM91.98,60.941a1.8,1.8,0,0,1,1.039-1.576V57.194a10.964,10.964,0,0,1-8.216-13.2,12.665,12.665,0,0,1-10.667.805l.07.128a.817.817,0,0,1-1.436.782l-1.342-2.416a.812.812,0,0,1,.782-1.2l2.719.058a.812.812,0,0,1,.549,1.4,11.152,11.152,0,0,0,4.295.385,10.9,10.9,0,0,0,6.057-2.649,11.017,11.017,0,0,1,1.879-2.509c.175-.175.362-.35.549-.514a11.029,11.029,0,0,0-.817-11.823.82.82,0,0,1,.175-1.144.829.829,0,0,1,1.144.163A12.7,12.7,0,0,1,90.7,36.641a11.023,11.023,0,0,1,3.957-1.062V15.633H69.933v6.594a.812.812,0,0,1-.817.817H62.534V60.952H91.98Zm8.041-18.966a6.429,6.429,0,1,0,0,9.092A6.431,6.431,0,0,0,100.022,41.975Zm1.155-1.155a8.063,8.063,0,1,1-11.4,0A8.059,8.059,0,0,1,101.177,40.82ZM73.551,58.4a.817.817,0,0,1,0-1.634H83.635a.817.817,0,0,1,0,1.634Zm0-7.1a.817.817,0,0,1,0-1.634h5.766a.817.817,0,0,1,0,1.634ZM82.993,21a.82.82,0,0,1,1.436-.794l1.342,2.428a.812.812,0,0,1-.782,1.2L82.27,23.78a.814.814,0,0,1-.549-1.4A11.029,11.029,0,0,0,69.735,39.5a.817.817,0,0,1-1.307.98A12.65,12.65,0,0,1,83.075,21.13Zm-4.4,7.551a4.412,4.412,0,1,1-4.412,4.412A4.408,4.408,0,0,1,78.593,28.553ZM80.566,31a2.78,2.78,0,1,0,0,3.922A2.785,2.785,0,0,0,80.566,31ZM77.321,23.85h2.533a.812.812,0,0,1,.817.817v1a7.7,7.7,0,0,1,1.6.665l.712-.712a.824.824,0,0,1,1.155,0l1.8,1.8a.824.824,0,0,1,0,1.155l-.712.712a7.7,7.7,0,0,1,.665,1.6h1a.812.812,0,0,1,.817.817v2.544a.823.823,0,0,1-.887.817h-.934a7.7,7.7,0,0,1-.665,1.6l.712.712a.824.824,0,0,1,0,1.155l-1.8,1.8a.824.824,0,0,1-1.155,0l-.712-.712a7.7,7.7,0,0,1-1.6.665V41.3a.812.812,0,0,1-.817.817H77.321A.812.812,0,0,1,76.5,41.3V40.259l-.817-.28a6.84,6.84,0,0,1-.782-.373l-.712.712a.824.824,0,0,1-1.155,0l-1.8-1.8a.824.824,0,0,1,0-1.155l.712-.712a7.7,7.7,0,0,1-.665-1.6h-1a.812.812,0,0,1-.817-.817V31.693a.812.812,0,0,1,.817-.817h1a7.978,7.978,0,0,1,.665-1.6l-.712-.712a.824.824,0,0,1,0-1.155l1.8-1.8a.824.824,0,0,1,1.155,0l.712.712a7.7,7.7,0,0,1,1.6-.665v-1A.817.817,0,0,1,77.321,23.85Zm1.727,1.634h-.9v.84a.822.822,0,0,1-.665.805,6,6,0,0,0-2.183.9.818.818,0,0,1-1.074-.07l-.6-.584-.642.642.6.6a.829.829,0,0,1,.105,1.039,5.824,5.824,0,0,0-.91,2.171.821.821,0,0,1-.817.724h-.829v.91h.829a.834.834,0,0,1,.805.665,5.624,5.624,0,0,0,.9,2.183.806.806,0,0,1-.07,1.074l-.6.584.642.642.6-.6a.827.827,0,0,1,1.039-.093,5.906,5.906,0,0,0,1.074.572,6.8,6.8,0,0,0,1.109.338.818.818,0,0,1,.724.805v.84h.9v-.84a.822.822,0,0,1,.665-.805,6,6,0,0,0,2.183-.9.818.818,0,0,1,1.074.07l.6.6.642-.642-.6-.584a.812.812,0,0,1-.105-1.039,5.949,5.949,0,0,0,.922-2.229.826.826,0,0,1,.805-.665h.84v-.91h-.84a.834.834,0,0,1-.805-.665,6,6,0,0,0-.9-2.183.819.819,0,0,1,.07-1.074l.6-.6-.642-.642-.6.6a.829.829,0,0,1-1.039.093,5.745,5.745,0,0,0-2.171-.91.81.81,0,0,1-.724-.805v-.852ZM63.689,21.411h4.622V16.789Z"/>
      </g>
    </g>
  </g>
</svg>
