<svg xmlns="http://www.w3.org/2000/svg" xmlns:xlink="http://www.w3.org/1999/xlink" width="101.5" height="101.5" viewBox="0 0 101.5 101.5">
  <defs>
    <filter id="Path_982547" x="0" y="0" width="101.5" height="101.5" filterUnits="userSpaceOnUse">
      <feOffset dy="3" input="SourceAlpha"/>
      <feGaussianBlur stdDeviation="3" result="blur"/>
      <feFlood flood-opacity="0.161"/>
      <feComposite operator="in" in2="blur"/>
      <feComposite in="SourceGraphic"/>
    </filter>
  </defs>
  <g id="Group_1150256" data-name="Group 1150256" transform="translate(-192.5 -12531.146)">
    <g id="Group_1148998" data-name="Group 1148998" transform="translate(-131.5 8826.969)">
      <g id="Group_1147086" data-name="Group 1147086" transform="translate(333 3710.178)">
        <g transform="matrix(1, 0, 0, 1, -9, -6)" filter="url(#Path_982547)">
          <g id="Path_982547-2" data-name="Path 982547" transform="translate(9 6)" fill="#fdeffe">
            <path d="M 41.75 82 C 36.31562423706055 82 31.04459953308105 80.93599700927734 26.08334159851074 78.83757781982422 C 21.29058837890625 76.81040191650391 16.98592948913574 73.90802001953125 13.28895282745361 70.21104431152344 C 9.591976165771484 66.51406860351562 6.689599990844727 62.20942306518555 4.662435531616211 57.41666030883789 C 2.563999891281128 52.45539855957031 1.5 47.18437576293945 1.5 41.75 C 1.5 36.31562423706055 2.563999891281128 31.04459953308105 4.662435531616211 26.08334159851074 C 6.689599990844727 21.29058837890625 9.591976165771484 16.98592948913574 13.28895282745361 13.28895282745361 C 16.98592948913574 9.591976165771484 21.29058837890625 6.689599990844727 26.08334159851074 4.662435531616211 C 31.04459953308105 2.563999891281128 36.31562423706055 1.5 41.75 1.5 C 47.18437576293945 1.5 52.45539855957031 2.563999891281128 57.41666030883789 4.662435531616211 C 62.20942306518555 6.689599990844727 66.51406860351562 9.591976165771484 70.21104431152344 13.28895282745361 C 73.90802001953125 16.98592948913574 76.81040191650391 21.29058837890625 78.83757781982422 26.08334159851074 C 80.93599700927734 31.04459953308105 82 36.31562423706055 82 41.75 C 82 47.18437576293945 80.93599700927734 52.45539855957031 78.83757781982422 57.41666030883789 C 76.81040191650391 62.20942306518555 73.90802001953125 66.51408386230469 70.21104431152344 70.21104431152344 C 66.51408386230469 73.90802001953125 62.20942306518555 76.81040191650391 57.41666030883789 78.83757781982422 C 52.45539855957031 80.93599700927734 47.18437576293945 82 41.75 82 Z" stroke="none"/>
            <path d="M 41.75 3 C 36.5174674987793 3 31.44303894042969 4.024131774902344 26.66767883300781 6.043930053710938 C 22.05370712280273 7.9954833984375 17.90931701660156 10.7899169921875 14.34961700439453 14.34961700439453 C 10.7899169921875 17.90931701660156 7.9954833984375 22.05370712280273 6.043930053710938 26.66767883300781 C 4.024131774902344 31.44303894042969 3 36.5174674987793 3 41.75 C 3 46.9825325012207 4.024131774902344 52.05697250366211 6.043930053710938 56.83233261108398 C 7.9954833984375 61.44629287719727 10.7899169921875 65.59069061279297 14.34961700439453 69.150390625 C 17.90931701660156 72.71009063720703 22.05370712280273 75.5045166015625 26.66767883300781 77.45606994628906 C 31.44303894042969 79.47586822509766 36.5174674987793 80.5 41.75 80.5 C 46.9825325012207 80.5 52.05697250366211 79.47586822509766 56.83233261108398 77.45606994628906 C 61.44629287719727 75.5045166015625 65.59069061279297 72.71009063720703 69.150390625 69.150390625 C 72.71009063720703 65.59069061279297 75.5045166015625 61.44629287719727 77.45606994628906 56.83233261108398 C 79.47586822509766 52.05697250366211 80.5 46.9825325012207 80.5 41.75 C 80.5 36.5174674987793 79.47586822509766 31.44303894042969 77.45606994628906 26.66767883300781 C 75.5045166015625 22.05370712280273 72.71009063720703 17.90931701660156 69.150390625 14.34961700439453 C 65.59069061279297 10.7899169921875 61.44629287719727 7.9954833984375 56.83233261108398 6.043930053710938 C 52.05697250366211 4.024131774902344 46.9825325012207 3 41.75 3 M 41.75 0 C 64.80789184570312 0 83.5 18.69212341308594 83.5 41.75 C 83.5 64.80789184570312 64.80789184570312 83.5 41.75 83.5 C 18.69212341308594 83.5 0 64.80789184570312 0 41.75 C 0 18.69212341308594 18.69212341308594 0 41.75 0 Z" stroke="none" fill="#ee70f7"/>
          </g>
        </g>
      </g>
    </g>
    <g id="executive_3206169" transform="translate(218.995 12552.642)">
      <g id="Group_1150254" data-name="Group 1150254" transform="translate(1.782 1.782)">
        <g id="Group_1150245" data-name="Group 1150245">
          <path id="Path_986904" data-name="Path 986904" d="M27.037,2H2.782A.785.785,0,0,0,2,2.782v45.38a.785.785,0,0,0,.782.782H30.949a.785.785,0,0,0,.782-.782V6.694A4.7,4.7,0,0,0,27.037,2Z" transform="translate(-2 -2)" fill="#e6e9ed"/>
        </g>
        <g id="Group_1150246" data-name="Group 1150246" transform="translate(9.389 3.13)">
          <path id="Path_986905" data-name="Path 986905" d="M14,6h3.13V9.13H14Z" transform="translate(-14 -6)" fill="#ff826e"/>
        </g>
        <g id="Group_1150247" data-name="Group 1150247" transform="translate(3.13 3.13)">
          <path id="Path_986906" data-name="Path 986906" d="M6,6H9.13V9.13H6Z" transform="translate(-6 -6)" fill="#ff826e"/>
        </g>
        <g id="Group_1150248" data-name="Group 1150248" transform="translate(6.259 7.824)">
          <path id="Path_986907" data-name="Path 986907" d="M34.5,14.371l2.637,2.637a10.988,10.988,0,0,0-4.444,2.253,10.954,10.954,0,1,0,0,16.775A10.972,10.972,0,0,0,36.6,38.148v.673l-2.1,2.1-.43-.219a3.439,3.439,0,0,0-.595-.227,3.678,3.678,0,0,0-2.418.164c-.008.008-.023.008-.031.016a3.589,3.589,0,0,0-2.089,2.175l-.156.462H22.519l-.156-.462a3.589,3.589,0,0,0-2.089-2.175c-.008-.008-.023-.008-.031-.016a3.645,3.645,0,0,0-3.012.063l-.43.219L14.475,38.6l-2.1-2.1.219-.43a3.44,3.44,0,0,0,.227-.595,3.678,3.678,0,0,0-.164-2.418c-.008-.008-.008-.023-.016-.031a3.661,3.661,0,0,0-2.175-2.089L10,30.778V24.519l.462-.156a3.661,3.661,0,0,0,2.175-2.089c.008-.008.008-.023.016-.031a3.678,3.678,0,0,0,.164-2.418,3.44,3.44,0,0,0-.227-.595l-.219-.43,2.1-2.1L16.8,14.371l.43.219a3.645,3.645,0,0,0,3.012.063c.008-.008.023-.008.031-.016a3.589,3.589,0,0,0,2.089-2.175L22.519,12h6.259l.156.462a3.589,3.589,0,0,0,2.089,2.175c.008.008.023.008.031.016a3.678,3.678,0,0,0,2.418.164,3.439,3.439,0,0,0,.595-.227Z" transform="translate(-10 -12)" fill="#ffc729"/>
        </g>
        <g id="Group_1150249" data-name="Group 1150249" transform="translate(10.954 12.519)">
          <path id="Path_986908" data-name="Path 986908" d="M34,20.566A10.949,10.949,0,0,0,31.914,22.9h-.008a7.821,7.821,0,1,0,.008,12.112A10.949,10.949,0,0,0,34,37.341a10.954,10.954,0,1,1,0-16.775Z" transform="translate(-16 -18)" fill="#fcd770"/>
        </g>
        <g id="Group_1150250" data-name="Group 1150250" transform="translate(32.861 37.556)">
          <path id="Path_986909" data-name="Path 986909" d="M50.259,50v7.824a1.569,1.569,0,0,1-1.565,1.565h-3.13A1.569,1.569,0,0,1,44,57.824V50Z" transform="translate(-44 -50)" fill="#969faa"/>
        </g>
        <g id="Group_1150251" data-name="Group 1150251" transform="translate(32.861 33.972)">
          <path id="Path_986910" data-name="Path 986910" d="M44,45.42a11.019,11.019,0,0,0,6.259,0V49H44V45.42Z" transform="translate(-44 -45.42)" fill="#ccd1d9"/>
        </g>
        <g id="Group_1150252" data-name="Group 1150252" transform="translate(25.037 12.519)">
          <path id="Path_986911" data-name="Path 986911" d="M35.831,35.01a10.957,10.957,0,0,1,2.081-14.443,10.956,10.956,0,1,1,7.042,19.341,10.85,10.85,0,0,1-3.13-.454,10.972,10.972,0,0,1-5.993-4.444Z" transform="translate(-34 -18)" fill="#cf9e76"/>
        </g>
        <g id="Group_1150253" data-name="Group 1150253" transform="translate(28.167 15.648)">
          <ellipse id="Ellipse_11671" data-name="Ellipse 11671" cx="7.5" cy="8" rx="7.5" ry="8" transform="translate(0.306 -0.176)" fill="#69d6f4"/>
        </g>
      </g>
      <g id="Group_1150255" data-name="Group 1150255" transform="translate(1 1)">
        <path id="Path_986912" data-name="Path 986912" d="M45.607,21a8.607,8.607,0,1,0,8.607,8.607A8.617,8.617,0,0,0,45.607,21Zm0,15.648a7.042,7.042,0,1,1,7.042-7.042A7.05,7.05,0,0,1,45.607,36.648Z" transform="translate(-8.833 -5.352)"/>
        <path id="Path_986913" data-name="Path 986913" d="M49.51,25.255a11.74,11.74,0,0,0-14.083-11.5L32.7,11.024l-.4.2V6.477A5.483,5.483,0,0,0,26.82,1H2.565A1.566,1.566,0,0,0,1,2.565v45.38A1.566,1.566,0,0,0,2.565,49.51H30.732A1.566,1.566,0,0,0,32.3,47.945v-8.66l.4.2,1.165-1.165v8.843a2.35,2.35,0,0,0,2.347,2.347h3.13a2.35,2.35,0,0,0,2.347-2.347V36.306A11.747,11.747,0,0,0,49.51,25.255ZM2.565,47.945V2.565H26.82a3.917,3.917,0,0,1,3.912,3.912v5.277a3.1,3.1,0,0,1-1.368-.231,2.843,2.843,0,0,1-1.648-1.7l-.332-1H20l-.332,1a3.012,3.012,0,0,1-4.042,1.674l-.938-.469-2.5,2.494H4.13v1.565h6.5L9.46,16.248l.2.4H4.13v1.565h6.058a3.089,3.089,0,0,1-.232,1.368c-.029.07-.072.13-.1.2H4.13v1.565H7.915l-.656.218v1.347H4.13v1.565h3.13v1.565H4.13V27.6h3.13v1.347l.656.218H4.13v1.565H9.849c.039.077.088.146.121.228a3.006,3.006,0,0,1,.22,1.336H4.13v1.565H9.66l-.2.4,1.165,1.165H4.13v1.565h8.06l2.494,2.494.937-.469a3.011,3.011,0,0,1,4.043,1.674l.332,1h7.387l.332-1A2.864,2.864,0,0,1,29.4,38.975a2.99,2.99,0,0,1,1.336-.22v9.189ZM32.387,37.582a4.58,4.58,0,0,0-6.13,2.539H21.124a4.581,4.581,0,0,0-6.13-2.54l-3.63-3.63a4.58,4.58,0,0,0-2.539-6.13V22.689a4.581,4.581,0,0,0,2.539-6.13l3.63-3.63a4.58,4.58,0,0,0,6.13-2.539h5.133a4.581,4.581,0,0,0,6.13,2.539l1.329,1.329a11.724,11.724,0,0,0-2.978,1.627,11.736,11.736,0,1,0,0,18.743,11.7,11.7,0,0,0,2.978,1.627Zm-3.9-19.471a8.607,8.607,0,1,0,0,14.288,11.929,11.929,0,0,0,1.038,1.19,10.171,10.171,0,1,1,0-16.669,11.921,11.921,0,0,0-1.037,1.19Zm-.872,1.3a11.641,11.641,0,0,0,0,11.692,7.041,7.041,0,1,1,0-11.692ZM39.338,47.945h-3.13a.783.783,0,0,1-.782-.782V40.121h4.694v7.042A.783.783,0,0,1,39.338,47.945Zm.782-9.389H35.426v-1.8a11.777,11.777,0,0,0,4.694,0Zm-2.347-3.13A10.171,10.171,0,1,1,47.945,25.255,10.183,10.183,0,0,1,37.774,35.426Z" transform="translate(-1 -1)"/>
        <path id="Path_986914" data-name="Path 986914" d="M47,31h1.565v1.565H47Z" transform="translate(-11.009 -7.528)"/>
        <path id="Path_986915" data-name="Path 986915" d="M51,31h1.565v1.565H51Z" transform="translate(-11.879 -7.528)"/>
        <path id="Path_986916" data-name="Path 986916" d="M43,31h1.565v1.565H43Z" transform="translate(-10.139 -7.528)"/>
        <path id="Path_986917" data-name="Path 986917" d="M9.694,5H5V9.694H9.694ZM8.13,8.13H6.565V6.565H8.13Z" transform="translate(-1.87 -1.87)"/>
        <path id="Path_986918" data-name="Path 986918" d="M17.694,5H13V9.694h4.694ZM16.13,8.13H14.565V6.565H16.13Z" transform="translate(-3.611 -1.87)"/>
        <path id="Path_986919" data-name="Path 986919" d="M5,13H8.13v1.565H5Z" transform="translate(-1.87 -3.611)"/>
        <path id="Path_986920" data-name="Path 986920" d="M11,13h3.13v1.565H11Z" transform="translate(-3.176 -3.611)"/>
        <path id="Path_986921" data-name="Path 986921" d="M5,49h7.824v1.565H5Z" transform="translate(-1.87 -11.444)"/>
        <path id="Path_986922" data-name="Path 986922" d="M5,53H8.13v1.565H5Z" transform="translate(-1.87 -12.314)"/>
        <path id="Path_986923" data-name="Path 986923" d="M11,53h3.13v1.565H11Z" transform="translate(-3.176 -12.314)"/>
      </g>
    </g>
  </g>
</svg>
