<svg xmlns="http://www.w3.org/2000/svg" xmlns:xlink="http://www.w3.org/1999/xlink" width="113" height="113" viewBox="0 0 113 113">
  <defs>
    <filter id="Path_982547" x="0" y="0" width="113" height="113" filterUnits="userSpaceOnUse">
      <feOffset dy="3" input="SourceAlpha"/>
      <feGaussianBlur stdDeviation="3" result="blur"/>
      <feFlood flood-opacity="0.161"/>
      <feComposite operator="in" in2="blur"/>
      <feComposite in="SourceGraphic"/>
    </filter>
  </defs>
  <g id="Group_1150813" data-name="Group 1150813" transform="translate(-324 -3116.155)">
    <g id="Group_1150784" data-name="Group 1150784">
      <g id="Group_1150760" data-name="Group 1150760" transform="translate(0 -3.341)">
        <g id="Group_1149518" data-name="Group 1149518" transform="translate(0 -584.682)">
          <g id="Group_1147086" data-name="Group 1147086" transform="translate(333 3710.178)">
            <g transform="matrix(1, 0, 0, 1, -9, -6)" filter="url(#Path_982547)">
              <g id="Path_982547-2" data-name="Path 982547" transform="translate(9 6)" fill="#fdeffe">
                <path d="M 47.5 93.5 C 41.28937149047852 93.5 35.26533508300781 92.28397369384766 29.59518623352051 89.88570404052734 C 24.11771965026855 87.56893157958984 19.19813346862793 84.25196075439453 14.97309303283691 80.02691650390625 C 10.74804019927979 75.80186462402344 7.431066513061523 70.88229370117188 5.114293098449707 65.40481567382812 C 2.716026782989502 59.73468017578125 1.5 53.71062850952148 1.5 47.5 C 1.5 41.28937149047852 2.716026782989502 35.26533508300781 5.114293098449707 29.59518623352051 C 7.431066513061523 24.11771965026855 10.74804019927979 19.19813346862793 14.97309303283691 14.97309303283691 C 19.19813346862793 10.74804019927979 24.11771965026855 7.431066513061523 29.59518623352051 5.114293098449707 C 35.26533508300781 2.716026782989502 41.28937149047852 1.5 47.5 1.5 C 53.71062850952148 1.5 59.73468017578125 2.716026782989502 65.40481567382812 5.114293098449707 C 70.88229370117188 7.431066513061523 75.80186462402344 10.74804019927979 80.02691650390625 14.97309303283691 C 84.25196075439453 19.19813346862793 87.56893157958984 24.11771965026855 89.88570404052734 29.59518623352051 C 92.28397369384766 35.26533508300781 93.5 41.28937149047852 93.5 47.5 C 93.5 53.71062850952148 92.28397369384766 59.73468017578125 89.88570404052734 65.40481567382812 C 87.56893157958984 70.88229370117188 84.25196075439453 75.80186462402344 80.02691650390625 80.02691650390625 C 75.80186462402344 84.25196075439453 70.88229370117188 87.56893157958984 65.40481567382812 89.88570404052734 C 59.73468017578125 92.28397369384766 53.71062850952148 93.5 47.5 93.5 Z" stroke="none"/>
                <path d="M 47.5 3 C 41.49121475219727 3 35.66376876831055 4.176155090332031 30.17950439453125 6.495796203613281 C 24.88084411621094 8.736953735351562 20.12152099609375 11.94598388671875 16.03375244140625 16.03375244140625 C 11.94598388671875 20.12152099609375 8.736953735351562 24.88084411621094 6.495796203613281 30.17950439453125 C 4.176155090332031 35.66376876831055 3 41.49121475219727 3 47.5 C 3 53.50878524780273 4.176155090332031 59.33623123168945 6.495796203613281 64.82049560546875 C 8.736953735351562 70.11915588378906 11.94598388671875 74.87847900390625 16.03375244140625 78.96624755859375 C 20.12152099609375 83.05401611328125 24.88084411621094 86.26304626464844 30.17950439453125 88.50419616699219 C 35.66376876831055 90.82384490966797 41.49121475219727 92 47.5 92 C 53.50878524780273 92 59.33623123168945 90.82384490966797 64.82049560546875 88.50419616699219 C 70.11915588378906 86.26304626464844 74.87847900390625 83.05401611328125 78.96624755859375 78.96624755859375 C 83.05401611328125 74.87847900390625 86.26304626464844 70.11915588378906 88.50419616699219 64.82049560546875 C 90.82384490966797 59.33623123168945 92 53.50878524780273 92 47.5 C 92 41.49121475219727 90.82384490966797 35.66376876831055 88.50419616699219 30.17950439453125 C 86.26304626464844 24.88084411621094 83.05401611328125 20.12152099609375 78.96624755859375 16.03375244140625 C 74.87847900390625 11.94598388671875 70.11915588378906 8.736953735351562 64.82049560546875 6.495796203613281 C 59.33623123168945 4.176155090332031 53.50878524780273 3 47.5 3 M 47.5 0 C 73.7335205078125 0 95 21.2664794921875 95 47.5 C 95 73.7335205078125 73.7335205078125 95 47.5 95 C 21.2664794921875 95 0 73.7335205078125 0 47.5 C 0 21.2664794921875 21.2664794921875 0 47.5 0 Z" stroke="none" fill="#ee70f7"/>
              </g>
            </g>
          </g>
        </g>
        <g id="carrito-de-supermercado" transform="translate(349 3141)">
          <path id="Path_986987" data-name="Path 986987" d="M59,30,55.619,48.748A4,4,0,0,1,51.69,52H33l-7.412-7.412L23,30Z" fill="#f0ae42"/>
          <path id="Path_986988" data-name="Path 986988" d="M25.588,44.588,33,52H51.69a3.981,3.981,0,0,0,2.827-1.19V31.95L23.355,32Z" fill="#f9d266"/>
          <path id="Path_986989" data-name="Path 986989" d="M40,24V15.5a5,5,0,0,0-2-4,5,5,0,0,1-2-4V6H30V7.5a5,5,0,0,1-2,4,5,5,0,0,0-2,4V24Z" fill="#c8cded"/>
          <path id="Path_986990" data-name="Path 986990" d="M48,14a4.95,4.95,0,0,0-3.559,1.512,5,5,0,0,1,4.7-8.38Z" fill="#b52f28"/>
          <path id="Path_986991" data-name="Path 986991" d="M54.145,19.133,56.33,6.02a3.452,3.452,0,1,0-6.811-1.135L48,14a5,5,0,0,1,5,5,5.027,5.027,0,0,1,1.146.132Z" fill="#c18e59"/>
          <path id="Path_986992" data-name="Path 986992" d="M58,24a5,5,0,0,0-5-5,4.985,4.985,0,0,0-8.979-3H44a4,4,0,0,0-4,4v4Z" fill="#559b2d"/>
          <path id="Path_986993" data-name="Path 986993" d="M33.33,56H49a3,3,0,0,1,0,6H27L16,53H2V41H22L33.172,52.172A2.829,2.829,0,0,1,33.33,56Z" fill="#fbe1ca"/>
          <path id="Path_986994" data-name="Path 986994" d="M31.171,58a3.8,3.8,0,0,1-2.707-1.122l-5.171-5.171,1.414-1.414,5.171,5.171a1.882,1.882,0,0,0,2.689-.11l1.525,1.292A3.819,3.819,0,0,1,31.171,58Z" fill="#f2b9a1"/>
          <rect id="Rectangle_408434" data-name="Rectangle 408434" width="42" height="6" rx="3" transform="translate(20 24)" fill="#f9d266"/>
          <g id="Group_1150265" data-name="Group 1150265">
            <rect id="Rectangle_408435" data-name="Rectangle 408435" width="4" height="14" rx="2" transform="translate(39 34)" fill="#fce797"/>
            <rect id="Rectangle_408436" data-name="Rectangle 408436" width="4" height="14" rx="2" transform="translate(48 34)" fill="#fce797"/>
            <rect id="Rectangle_408437" data-name="Rectangle 408437" width="4" height="14" rx="2" transform="translate(30 34)" fill="#fce797"/>
          </g>
          <rect id="Rectangle_408438" data-name="Rectangle 408438" width="10" height="4" rx="2" transform="translate(28 2)" fill="#5e87ca"/>
          <path id="Path_986995" data-name="Path 986995" d="M30,24V16h6v8" fill="#e2e7f6"/>
          <path id="Path_986996" data-name="Path 986996" d="M30,18h4v6H30Z" fill="#f2f2f2"/>
          <circle id="Ellipse_11680" data-name="Ellipse 11680" cx="10" cy="10" r="10" transform="translate(2 2)" fill="#f0ae42"/>
          <path id="Path_986997" data-name="Path 986997" d="M16,10V9a3,3,0,0,0-3-3V5H11V6A3,3,0,0,0,8,9v1a3,3,0,0,0,3,3v3a1,1,0,0,1-1-1V14H8v1a3,3,0,0,0,3,3v1h2V18a3,3,0,0,0,3-3V14a3,3,0,0,0-3-3V8a1,1,0,0,1,1,1v1Zm-2,4v1a1,1,0,0,1-1,1V13A1,1,0,0,1,14,14Zm-3-3a1,1,0,0,1-1-1V9a1,1,0,0,1,1-1Z" fill="#f9d266"/>
          <path id="Path_986998" data-name="Path 986998" d="M20.184,26A2.962,2.962,0,0,0,20,27a3,3,0,0,0,3,3H59V26Z" fill="#fce797"/>
          <path id="Path_986999" data-name="Path 986999" fill="#d23f34"/>
          <path id="Path_987000" data-name="Path 987000" d="M43,12a4.984,4.984,0,0,0,1.441,3.512,4.963,4.963,0,0,1,2.8-1.434V9H44.023A4.956,4.956,0,0,0,43,12Z" fill="#d23f34"/>
          <path id="Path_987001" data-name="Path 987001" d="M63,27a4,4,0,0,0-4-4h-.091a6,6,0,0,0-3.64-4.533L57.316,6.185A4.452,4.452,0,1,0,48.533,4.72l-.216,1.3C48.211,6.013,48.106,6,48,6a5.994,5.994,0,0,0-5.106,9.143A4.972,4.972,0,0,0,41,16v-.5a6.032,6.032,0,0,0-2.4-4.8A4.021,4.021,0,0,1,37,7.5V6.816A2.993,2.993,0,0,0,36,1H30a2.993,2.993,0,0,0-1,5.816V7.5a4.021,4.021,0,0,1-1.6,3.2A6.032,6.032,0,0,0,25,15.5V23H23a4,4,0,0,0-.855,7.9l1.9,10.732L22.7,40.29A1,1,0,0,0,22,40H2a1,1,0,0,0-1,1V53a1,1,0,0,0,1,1H15.643l10.724,8.774A1,1,0,0,0,27,63H49a4,4,0,0,0,0-8H34.91a3.648,3.648,0,0,0-.111-2H51.69a5.009,5.009,0,0,0,4.91-4.074L59.853,30.9A4,4,0,0,0,63,27ZM50.506,5.049a2.452,2.452,0,0,1,4.838.806L53.532,16.728a6,6,0,0,0-4.371-3.61ZM47.986,8l-.845,5.068a5.9,5.9,0,0,0-2.547,1.01A3.985,3.985,0,0,1,47.986,8Zm-4.022,9a.938.938,0,0,0,.854-.4A3.986,3.986,0,0,1,52,19a1,1,0,0,0,1,1,4,4,0,0,1,3.858,3H41V20a3,3,0,0,1,2.964-3ZM30,3h6a1,1,0,0,1,0,2H30a1,1,0,0,1,0-2ZM27,15.5a4.021,4.021,0,0,1,1.6-3.2A6.032,6.032,0,0,0,31,7.5V7h4v.5a6.032,6.032,0,0,0,2.4,4.8A4.021,4.021,0,0,1,39,15.5V23H37V16a1,1,0,0,0-1-1H30a1,1,0,0,0-1,1v7H27ZM35,23H31V17h4ZM49,57a2,2,0,0,1,0,4H27.357L16.633,52.226A1,1,0,0,0,16,52H3V42H21.586L32.465,52.879a1.829,1.829,0,1,1-2.586,2.586l-5.172-5.172-1.414,1.414,5.172,5.172A3.825,3.825,0,0,0,33.749,57ZM31,46V36a1,1,0,0,1,2,0V46a1,1,0,0,1-2,0Zm23.637,2.561A3,3,0,0,1,51.69,51H33.414l-2.08-2.081A2.926,2.926,0,0,0,32,49a3,3,0,0,0,3-3V36a3,3,0,0,0-6,0V46a2.926,2.926,0,0,0,.081.666L26.517,44.1,24.193,31H57.8ZM59,29H23a2,2,0,0,1,0-4H59a2,2,0,0,1,0,4Z"/>
          <path id="Path_987002" data-name="Path 987002" d="M41,33a3,3,0,0,0-3,3V46a3,3,0,0,0,6,0V36A3,3,0,0,0,41,33Zm1,13a1,1,0,0,1-2,0V36a1,1,0,0,1,2,0Z"/>
          <path id="Path_987003" data-name="Path 987003" d="M50,33a3,3,0,0,0-3,3V46a3,3,0,0,0,6,0V36a3,3,0,0,0-3-3Zm1,13a1,1,0,0,1-2,0V36a1,1,0,0,1,2,0Z"/>
          <path id="Path_987004" data-name="Path 987004" d="M12,23A11,11,0,1,0,1,12,11,11,0,0,0,12,23ZM12,3a9,9,0,1,1-9,9,9,9,0,0,1,9-9Z"/>
          <path id="Path_987005" data-name="Path 987005" d="M11,18v1h2V18a3,3,0,0,0,3-3V14a3,3,0,0,0-3-3V8a1,1,0,0,1,1,1v1h2V9a3,3,0,0,0-3-3V5H11V6A3,3,0,0,0,8,9v1a3,3,0,0,0,3,3v3a1,1,0,0,1-1-1V14H8v1A3,3,0,0,0,11,18Zm-1-8V9a1,1,0,0,1,1-1v3A1,1,0,0,1,10,10Zm3,3a1,1,0,0,1,1,1v1a1,1,0,0,1-1,1Z"/>
        </g>
      </g>
    </g>
  </g>
</svg>
