<svg xmlns="http://www.w3.org/2000/svg" xmlns:xlink="http://www.w3.org/1999/xlink" width="113" height="113" viewBox="0 0 113 113">
  <defs>
    <filter id="Path_982547" x="0" y="0" width="113" height="113" filterUnits="userSpaceOnUse">
      <feOffset dy="3" input="SourceAlpha"/>
      <feGaussianBlur stdDeviation="3" result="blur"/>
      <feFlood flood-opacity="0.161"/>
      <feComposite operator="in" in2="blur"/>
      <feComposite in="SourceGraphic"/>
    </filter>
  </defs>
  <g id="Group_1150814" data-name="Group 1150814" transform="translate(-744 -3116.155)">
    <g id="Group_1150761" data-name="Group 1150761" transform="translate(0 -3.341)">
      <g id="Group_1149519" data-name="Group 1149519" transform="translate(0 -584.682)">
        <g id="Group_1147087" data-name="Group 1147087" transform="translate(753 3710.178)">
          <g transform="matrix(1, 0, 0, 1, -9, -6)" filter="url(#Path_982547)">
            <g id="Path_982547-2" data-name="Path 982547" transform="translate(9 6)" fill="#fdeffe">
              <path d="M 47.5 93.5 C 41.28937149047852 93.5 35.26533508300781 92.28397369384766 29.59518623352051 89.88570404052734 C 24.11771965026855 87.56893157958984 19.19813346862793 84.25196075439453 14.97309303283691 80.02691650390625 C 10.74804019927979 75.80186462402344 7.431066513061523 70.88229370117188 5.114293098449707 65.40481567382812 C 2.716026782989502 59.73468017578125 1.5 53.71062850952148 1.5 47.5 C 1.5 41.28937149047852 2.716026782989502 35.26533508300781 5.114293098449707 29.59518623352051 C 7.431066513061523 24.11771965026855 10.74804019927979 19.19813346862793 14.97309303283691 14.97309303283691 C 19.19813346862793 10.74804019927979 24.11771965026855 7.431066513061523 29.59518623352051 5.114293098449707 C 35.26533508300781 2.716026782989502 41.28937149047852 1.5 47.5 1.5 C 53.71062850952148 1.5 59.73468017578125 2.716026782989502 65.40481567382812 5.114293098449707 C 70.88229370117188 7.431066513061523 75.80186462402344 10.74804019927979 80.02691650390625 14.97309303283691 C 84.25196075439453 19.19813346862793 87.56893157958984 24.11771965026855 89.88570404052734 29.59518623352051 C 92.28397369384766 35.26533508300781 93.5 41.28937149047852 93.5 47.5 C 93.5 53.71062850952148 92.28397369384766 59.73468017578125 89.88570404052734 65.40481567382812 C 87.56893157958984 70.88229370117188 84.25196075439453 75.80186462402344 80.02691650390625 80.02691650390625 C 75.80186462402344 84.25196075439453 70.88229370117188 87.56893157958984 65.40481567382812 89.88570404052734 C 59.73468017578125 92.28397369384766 53.71062850952148 93.5 47.5 93.5 Z" stroke="none"/>
              <path d="M 47.5 3 C 41.49121475219727 3 35.66376876831055 4.176155090332031 30.17950439453125 6.495796203613281 C 24.88084411621094 8.736953735351562 20.12152099609375 11.94598388671875 16.03375244140625 16.03375244140625 C 11.94598388671875 20.12152099609375 8.736953735351562 24.88084411621094 6.495796203613281 30.17950439453125 C 4.176155090332031 35.66376876831055 3 41.49121475219727 3 47.5 C 3 53.50878524780273 4.176155090332031 59.33623123168945 6.495796203613281 64.82049560546875 C 8.736953735351562 70.11915588378906 11.94598388671875 74.87847900390625 16.03375244140625 78.96624755859375 C 20.12152099609375 83.05401611328125 24.88084411621094 86.26304626464844 30.17950439453125 88.50419616699219 C 35.66376876831055 90.82384490966797 41.49121475219727 92 47.5 92 C 53.50878524780273 92 59.33623123168945 90.82384490966797 64.82049560546875 88.50419616699219 C 70.11915588378906 86.26304626464844 74.87847900390625 83.05401611328125 78.96624755859375 78.96624755859375 C 83.05401611328125 74.87847900390625 86.26304626464844 70.11915588378906 88.50419616699219 64.82049560546875 C 90.82384490966797 59.33623123168945 92 53.50878524780273 92 47.5 C 92 41.49121475219727 90.82384490966797 35.66376876831055 88.50419616699219 30.17950439453125 C 86.26304626464844 24.88084411621094 83.05401611328125 20.12152099609375 78.96624755859375 16.03375244140625 C 74.87847900390625 11.94598388671875 70.11915588378906 8.736953735351562 64.82049560546875 6.495796203613281 C 59.33623123168945 4.176155090332031 53.50878524780273 3 47.5 3 M 47.5 0 C 73.7335205078125 0 95 21.2664794921875 95 47.5 C 95 73.7335205078125 73.7335205078125 95 47.5 95 C 21.2664794921875 95 0 73.7335205078125 0 47.5 C 0 21.2664794921875 21.2664794921875 0 47.5 0 Z" stroke="none" fill="#ee70f7"/>
            </g>
          </g>
        </g>
      </g>
      <g id="netflix" transform="translate(778.595 3138.749)">
        <path id="Path_987006" data-name="Path 987006" d="M16,80.214H28.843V48.107L16,16Zm0,0" transform="translate(-13.86 -13.86)" fill="#fa748f"/>
        <path id="Path_987007" data-name="Path 987007" d="M28.843,16H16L41.686,80.214H54.529Zm0,0" transform="translate(-13.86 -13.86)" fill="#ff3f62"/>
        <path id="Path_987008" data-name="Path 987008" d="M220.843,16H208V48.107l12.843,32.107Zm0,0" transform="translate(-180.174 -13.86)" fill="#fa748f"/>
        <path id="Path_987009" data-name="Path 987009" d="M2.14,68.5H14.983a2.141,2.141,0,0,0,2.14-2.14V45.362L25.839,67.15A2.14,2.14,0,0,0,27.826,68.5H40.669a2.153,2.153,0,0,0,.4-.038.3.3,0,0,0,.07-.02c.042-.009.082-.022.122-.034a2.126,2.126,0,0,0,.337-.13c.035-.017.071-.032.107-.051a2.168,2.168,0,0,0,.375-.262c.017-.015.032-.033.049-.048a2.15,2.15,0,0,0,.266-.306c.013-.018.032-.031.044-.05s.016-.034.026-.05a2.146,2.146,0,0,0,.321-.865c.005-.044.007-.089.01-.134s.012-.1.012-.152V2.14A2.141,2.141,0,0,0,40.669,0H27.826a2.141,2.141,0,0,0-2.14,2.14V23.133L16.971,1.345A2.14,2.14,0,0,0,14.983,0H2.131a2.176,2.176,0,0,0-.4.038c-.025.005-.046.015-.07.02-.042.008-.082.022-.122.034a2.126,2.126,0,0,0-.337.13C1.172.239,1.137.253,1.1.273A2.16,2.16,0,0,0,.727.535C.71.55.695.568.678.583A2.187,2.187,0,0,0,.412.889C.4.907.38.92.368.939S.352.974.342.989a2.146,2.146,0,0,0-.321.865c0,.044-.007.089-.011.134S0,2.089,0,2.14V66.355A2.141,2.141,0,0,0,2.14,68.5Zm10.7-4.281H4.281V13.254l8.562,21.4ZM29.967,4.281h8.562V55.24l-8.562-21.4Zm-16.432,0L37.508,64.214H29.275L5.3,4.281Zm0,0" transform="translate(0 0)" fill="#990612"/>
      </g>
    </g>
  </g>
</svg>
