<svg xmlns="http://www.w3.org/2000/svg" xmlns:xlink="http://www.w3.org/1999/xlink" width="108" height="108" viewBox="0 0 108 108">
  <defs>
    <filter id="Path_982538" x="0" y="0" width="108" height="108" filterUnits="userSpaceOnUse">
      <feOffset dy="3" input="SourceAlpha"/>
      <feGaussianBlur stdDeviation="3" result="blur"/>
      <feFlood flood-opacity="0.161"/>
      <feComposite operator="in" in2="blur"/>
      <feComposite in="SourceGraphic"/>
    </filter>
  </defs>
  <g id="Group_1150830" data-name="Group 1150830" transform="translate(-617 -9582)">
    <g id="Group_1150754" data-name="Group 1150754">
      <g id="Group_1149573" data-name="Group 1149573" transform="translate(416 5416.88)">
        <g id="Group_1146955" data-name="Group 1146955" transform="translate(0 1196.12)">
          <g transform="matrix(1, 0, 0, 1, 201, 2969)" filter="url(#Path_982538)">
            <g id="Path_982538-2" data-name="Path 982538" transform="translate(9 6)" fill="#f3f3f3">
              <path d="M 45 88.5 C 39.12687683105469 88.5 33.43022537231445 87.35007476806641 28.06830024719238 85.08217620849609 C 22.88852500915527 82.89131164550781 18.23629951477051 79.75458526611328 14.2408504486084 75.75914764404297 C 10.24541282653809 71.76370239257812 7.108687400817871 67.11147308349609 4.917825222015381 61.93170166015625 C 2.649924993515015 56.56977462768555 1.5 50.87312316894531 1.5 45 C 1.5 39.12687683105469 2.649924993515015 33.43022537231445 4.917825222015381 28.06830024719238 C 7.108687400817871 22.88852500915527 10.24541282653809 18.23629951477051 14.2408504486084 14.2408504486084 C 18.23629951477051 10.24541282653809 22.88852500915527 7.108687400817871 28.06830024719238 4.917825222015381 C 33.43022537231445 2.649924993515015 39.12687683105469 1.5 45 1.5 C 50.87312316894531 1.5 56.56977462768555 2.649924993515015 61.93170166015625 4.917825222015381 C 67.11147308349609 7.108687400817871 71.76370239257812 10.24541282653809 75.75914764404297 14.2408504486084 C 79.75458526611328 18.23629951477051 82.89131164550781 22.88852500915527 85.08217620849609 28.06830024719238 C 87.35007476806641 33.43022537231445 88.5 39.12687683105469 88.5 45 C 88.5 50.87312316894531 87.35007476806641 56.56977462768555 85.08217620849609 61.93170166015625 C 82.89131164550781 67.11147308349609 79.75458526611328 71.76370239257812 75.75914764404297 75.75914764404297 C 71.76370239257812 79.75458526611328 67.11147308349609 82.89131164550781 61.93170166015625 85.08217620849609 C 56.56977462768555 87.35007476806641 50.87312316894531 88.5 45 88.5 Z" stroke="none"/>
              <path d="M 45 3 C 39.32871246337891 3 33.82865524291992 4.110054016113281 28.65262985229492 6.299339294433594 C 23.65165710449219 8.414573669433594 19.15968322753906 11.44334411621094 15.301513671875 15.301513671875 C 11.44334411621094 19.15968322753906 8.414573669433594 23.65165710449219 6.299339294433594 28.65262985229492 C 4.110054016113281 33.82865524291992 3 39.32871246337891 3 45 C 3 50.67128753662109 4.110054016113281 56.17134475708008 6.299339294433594 61.34737396240234 C 8.414573669433594 66.34834289550781 11.44334411621094 70.84031677246094 15.301513671875 74.698486328125 C 19.15968322753906 78.55665588378906 23.65165710449219 81.58542633056641 28.65262985229492 83.70066070556641 C 33.82865524291992 85.88994598388672 39.32871246337891 87 45 87 C 50.67128753662109 87 56.17134475708008 85.88994598388672 61.34737396240234 83.70066070556641 C 66.34834289550781 81.58542633056641 70.84031677246094 78.55665588378906 74.698486328125 74.698486328125 C 78.55665588378906 70.84031677246094 81.58542633056641 66.34834289550781 83.70066070556641 61.34737396240234 C 85.88994598388672 56.17134475708008 87 50.67128753662109 87 45 C 87 39.32871246337891 85.88994598388672 33.82865524291992 83.70066070556641 28.65262985229492 C 81.58542633056641 23.65165710449219 78.55665588378906 19.15968322753906 74.698486328125 15.301513671875 C 70.84031677246094 11.44334411621094 66.34834289550781 8.414573669433594 61.34737396240234 6.299339294433594 C 56.17134475708008 4.110054016113281 50.67128753662109 3 45 3 M 45 0 C 69.85281372070312 0 90 20.14718627929688 90 45 C 90 69.85281372070312 69.85281372070312 90 45 90 C 20.14718627929688 90 0 69.85281372070312 0 45 C 0 20.14718627929688 20.14718627929688 0 45 0 Z" stroke="none" fill="#205277"/>
            </g>
          </g>
        </g>
      </g>
      <g id="grandes-datos" transform="translate(636.916 9579.969)">
        <g id="Group_1150310" data-name="Group 1150310" transform="translate(31.613 22.856)">
          <circle id="Ellipse_11686" data-name="Ellipse 11686" cx="2.471" cy="2.471" r="2.471" fill="#60b7ff"/>
        </g>
        <g id="Group_1150311" data-name="Group 1150311" transform="translate(31.613 78.265)">
          <circle id="Ellipse_11687" data-name="Ellipse 11687" cx="2.471" cy="2.471" r="2.471" transform="translate(0 0)" fill="#60b7ff"/>
        </g>
        <g id="Group_1150312" data-name="Group 1150312" transform="translate(0.999 49.883)">
          <circle id="Ellipse_11688" data-name="Ellipse 11688" cx="2.471" cy="2.471" r="2.471" fill="#60b7ff"/>
        </g>
        <g id="Group_1150313" data-name="Group 1150313" transform="translate(62.228 49.883)">
          <circle id="Ellipse_11689" data-name="Ellipse 11689" cx="2.471" cy="2.471" r="2.471" fill="#60b7ff"/>
        </g>
        <g id="Group_1150314" data-name="Group 1150314" transform="translate(60.031 40.506)">
          <circle id="Ellipse_11690" data-name="Ellipse 11690" cx="2.471" cy="2.471" r="2.471" transform="translate(0 0)" fill="#60b7ff"/>
        </g>
        <g id="Group_1150315" data-name="Group 1150315" transform="translate(7.836 40.506)">
          <circle id="Ellipse_11691" data-name="Ellipse 11691" cx="2.471" cy="2.471" r="2.471" transform="translate(0 0)" fill="#60b7ff"/>
        </g>
        <g id="Group_1150318" data-name="Group 1150318" transform="translate(16.128 28.714)">
          <g id="Group_1150316" data-name="Group 1150316" transform="translate(30.97 0)">
            <circle id="Ellipse_11692" data-name="Ellipse 11692" cx="2.471" cy="2.471" r="2.471" fill="#60b7ff"/>
          </g>
          <g id="Group_1150317" data-name="Group 1150317" transform="translate(0 0)">
            <circle id="Ellipse_11693" data-name="Ellipse 11693" cx="2.471" cy="2.471" r="2.471" fill="#60b7ff"/>
          </g>
        </g>
        <g id="Group_1150321" data-name="Group 1150321" transform="translate(16.128 73.652)">
          <g id="Group_1150319" data-name="Group 1150319" transform="translate(0 0)">
            <circle id="Ellipse_11694" data-name="Ellipse 11694" cx="2.471" cy="2.471" r="2.471" fill="#60b7ff"/>
          </g>
          <g id="Group_1150320" data-name="Group 1150320" transform="translate(30.97 0)">
            <circle id="Ellipse_11695" data-name="Ellipse 11695" cx="2.471" cy="2.471" r="2.471" fill="#60b7ff"/>
          </g>
        </g>
        <g id="Group_1150322" data-name="Group 1150322" transform="translate(12.661 34.857)">
          <path id="Path_987047" data-name="Path 987047" d="M101.779,140.1a.536.536,0,0,1,.377.156l2.282,2.282a.529.529,0,0,1,.156.377v2.791h4.146V136.37a1.2,1.2,0,0,1,1.2-1.2H123.1a1.2,1.2,0,0,1,1.2,1.2v9.339h4.146v-5.073a.533.533,0,0,1,.533-.533h7.8a.529.529,0,0,1,.377.156l.457.457a7.079,7.079,0,0,0,.333-2.148,7.164,7.164,0,0,0-6.525-7.113,10.123,10.123,0,0,0-19.24-5.866,7.456,7.456,0,0,0-10.678,5.876,7.166,7.166,0,0,0-6.4,7.1,7.093,7.093,0,0,0,.169,1.535h6.514Z" transform="translate(-95.096 -119.499)" fill="#c8effe"/>
        </g>
        <g id="Group_1150324" data-name="Group 1150324" transform="translate(33.878 34.857)">
          <g id="Group_1150323" data-name="Group 1150323">
            <path id="Path_987048" data-name="Path 987048" d="M269.554,131.456a10.121,10.121,0,0,0-15.1-10.548,10.122,10.122,0,0,1,9.694,10.112v.019a2.276,2.276,0,0,0,1.522,2.173,7.166,7.166,0,0,1,4.834,6.755c0,.046,0,.091,0,.137h4.416a.533.533,0,0,1,.377.156l.457.457a7.08,7.08,0,0,0,.333-2.148,7.164,7.164,0,0,0-6.525-7.112Z" transform="translate(-254.45 -119.5)" fill="#99e6fc"/>
          </g>
        </g>
        <g id="Group_1150325" data-name="Group 1150325" transform="translate(26.172 50.397)">
          <path id="Path_987049" data-name="Path 987049" d="M211.065,252.039H197.9a1.331,1.331,0,0,1-1.331-1.331V237.545a1.331,1.331,0,0,1,1.331-1.331h13.162a1.331,1.331,0,0,1,1.331,1.331v13.162A1.331,1.331,0,0,1,211.065,252.039Z" transform="translate(-196.572 -236.214)" fill="#bfbfbf"/>
        </g>
        <g id="Group_1150326" data-name="Group 1150326" transform="translate(36.481 50.397)">
          <path id="Path_987050" data-name="Path 987050" d="M278.184,236.214H274a1.331,1.331,0,0,1,1.331,1.331v13.162A1.331,1.331,0,0,1,274,252.039h4.184a1.331,1.331,0,0,0,1.331-1.331V237.545A1.331,1.331,0,0,0,278.184,236.214Z" transform="translate(-274 -236.214)" fill="#acacac"/>
        </g>
        <g id="Group_1150327" data-name="Group 1150327" transform="translate(30.584 54.809)">
          <path id="Path_987051" data-name="Path 987051" d="M236.315,276.357h-6.2a.4.4,0,0,1-.4-.4v-6.2a.4.4,0,0,1,.4-.4h6.2a.4.4,0,0,1,.4.4v6.2A.4.4,0,0,1,236.315,276.357Z" transform="translate(-229.715 -269.358)" fill="#f9f3f1"/>
        </g>
        <g id="Group_1150328" data-name="Group 1150328" transform="translate(34.426 54.809)">
          <path id="Path_987052" data-name="Path 987052" d="M261.33,269.357h-2.758a.4.4,0,0,1,.4.4v6.2a.4.4,0,0,1-.4.4h2.758a.4.4,0,0,0,.4-.4v-6.2A.4.4,0,0,0,261.33,269.357Z" transform="translate(-258.572 -269.357)" fill="#f3eae6"/>
        </g>
        <g id="Group_1150335" data-name="Group 1150335" transform="translate(10.879 55.328)">
          <g id="Group_1150331" data-name="Group 1150331" transform="translate(34.997)">
            <g id="Group_1150329" data-name="Group 1150329" transform="translate(0)">
              <path id="Path_987053" data-name="Path 987053" d="M353.036,273.252h-7.8a.666.666,0,0,0-.666.666v13.547a.666.666,0,0,0,.666.666h10.081a.666.666,0,0,0,.666-.666V276.2a.666.666,0,0,0-.195-.471l-2.282-2.282A.666.666,0,0,0,353.036,273.252Z" transform="translate(-344.572 -273.252)" fill="#ffd15b"/>
            </g>
            <g id="Group_1150330" data-name="Group 1150330" transform="translate(4.299)">
              <path id="Path_987054" data-name="Path 987054" d="M383.778,275.729l-2.282-2.282a.666.666,0,0,0-.471-.195H376.86a.666.666,0,0,1,.471.195l2.282,2.282a.666.666,0,0,1,.195.471v11.265a.666.666,0,0,1-.666.666h4.165a.666.666,0,0,0,.666-.666V276.2A.666.666,0,0,0,383.778,275.729Z" transform="translate(-376.86 -273.252)" fill="#ffc344"/>
            </g>
          </g>
          <g id="Group_1150334" data-name="Group 1150334">
            <g id="Group_1150332" data-name="Group 1150332">
              <path id="Path_987055" data-name="Path 987055" d="M90.178,273.252h-7.8a.666.666,0,0,0-.666.666v13.547a.666.666,0,0,0,.666.666H92.46a.666.666,0,0,0,.666-.666V276.2a.666.666,0,0,0-.195-.471l-2.282-2.282A.666.666,0,0,0,90.178,273.252Z" transform="translate(-81.714 -273.252)" fill="#ffd15b"/>
            </g>
            <g id="Group_1150333" data-name="Group 1150333" transform="translate(4.28)">
              <path id="Path_987056" data-name="Path 987056" d="M120.8,275.729l-2.282-2.282a.665.665,0,0,0-.471-.195H113.86a.666.666,0,0,1,.471.195l2.282,2.282a.666.666,0,0,1,.195.471v11.265a.666.666,0,0,1-.666.666h4.184a.666.666,0,0,0,.666-.666V276.2a.666.666,0,0,0-.2-.471Z" transform="translate(-113.86 -273.252)" fill="#ffc344"/>
            </g>
          </g>
        </g>
        <g id="Group_1150336" data-name="Group 1150336" transform="translate(0 21.857)">
          <path id="Path_987057" data-name="Path 987057" d="M222.214,263.255v6.2a1.4,1.4,0,0,0,1.4,1.4h6.2a1.4,1.4,0,0,0,1.4-1.4v-6.2a1.4,1.4,0,0,0-1.4-1.4h-6.2A1.4,1.4,0,0,0,222.214,263.255Zm2,.6h5v5h-5Z" transform="translate(-192.628 -229.903)"/>
          <path id="Path_987058" data-name="Path 987058" d="M365.5,300.64h4.108a1,1,0,1,0,0-2H365.5a1,1,0,0,0,0,2Z" transform="translate(-315.97 -261.792)"/>
          <path id="Path_987059" data-name="Path 987059" d="M365.5,325.672h4.108a1,1,0,0,0,0-2H365.5a1,1,0,0,0,0,2Z" transform="translate(-315.97 -283.491)"/>
          <path id="Path_987060" data-name="Path 987060" d="M365.5,350.7h1.966a1,1,0,1,0,0-2H365.5a1,1,0,0,0,0,2Z" transform="translate(-315.97 -305.19)"/>
          <path id="Path_987061" data-name="Path 987061" d="M102.642,300.64h4.108a1,1,0,0,0,0-2h-4.108a1,1,0,0,0,0,2Z" transform="translate(-88.11 -261.792)"/>
          <path id="Path_987062" data-name="Path 987062" d="M102.642,325.672h4.108a1,1,0,0,0,0-2h-4.108a1,1,0,0,0,0,2Z" transform="translate(-88.11 -283.491)"/>
          <path id="Path_987063" data-name="Path 987063" d="M102.642,350.7h1.966a1,1,0,1,0,0-2h-1.966a1,1,0,1,0,0,2Z" transform="translate(-88.11 -305.19)"/>
          <path id="Path_987064" data-name="Path 987064" d="M64.7,48.885a3.475,3.475,0,0,0-3.322,2.471h-5.3A8.228,8.228,0,0,0,50.1,45.977c.03-.334.046-.667.046-1s-.018-.673-.048-1h9.078a3.469,3.469,0,1,0,0-2H49.734a11.155,11.155,0,0,0-8.566-7.911V32.516a.333.333,0,0,1,.333-.333h4.746a3.47,3.47,0,1,0,0-2H41.5a2.333,2.333,0,0,0-2.33,2.33v1.346c-.048,0-.1,0-.143,0a11.1,11.1,0,0,0-3.945.724V28.649a3.47,3.47,0,1,0-2,0V35.58a11.119,11.119,0,0,0-3.827,4.085c-.087-.03-.174-.058-.261-.085V32.516a2.333,2.333,0,0,0-2.33-2.33H21.921a3.47,3.47,0,1,0,0,2h4.746a.333.333,0,0,1,.333.333v6.7c-.175-.011-.351-.018-.528-.018A8.437,8.437,0,0,0,20.2,41.979H13.629a3.47,3.47,0,1,0,0,2h5.226a8.411,8.411,0,0,0-.664,1.972,8.187,8.187,0,0,0-6.11,5.408H6.792a3.469,3.469,0,1,0,0,2h4.893c-.013.19-.023.381-.023.573q0,.2.011.4h-.128a1.666,1.666,0,0,0-1.664,1.664v2.1a1,1,0,0,0,2,0V56.326h7.328l2.087,2.087V69.208H11.878V62.75a1,1,0,0,0-2,0v6.79A1.666,1.666,0,0,0,11.545,71.2H21.626A1.666,1.666,0,0,0,23.29,69.54V62.066h1.883V64.89A2.333,2.333,0,0,0,27,67.164v7.628a.333.333,0,0,1-.333.333H21.921a3.47,3.47,0,1,0,0,2h4.746A2.333,2.333,0,0,0,29,74.792V67.22h4.088V77.413a3.47,3.47,0,1,0,2,0V67.22h4.088v7.572a2.333,2.333,0,0,0,2.33,2.33h4.746a3.469,3.469,0,1,0,0-2H41.5a.333.333,0,0,1-.333-.333V67.164A2.333,2.333,0,0,0,43,64.89V62.066h1.883v1.483a1,1,0,1,0,2,0V56.326H54.2l2.087,2.087V69.208H46.875v-1a1,1,0,1,0-2,0V69.54A1.666,1.666,0,0,0,46.542,71.2H56.623a1.666,1.666,0,0,0,1.664-1.664V58.276A1.653,1.653,0,0,0,57.8,57.1l-1.475-1.475a8.062,8.062,0,0,0,.181-1.7c0-.193-.009-.384-.022-.573h4.893A3.469,3.469,0,1,0,64.7,48.885ZM62.5,41.5a1.472,1.472,0,1,1-1.472,1.472A1.474,1.474,0,0,1,62.5,41.5ZM49.569,29.712A1.472,1.472,0,1,1,48.1,31.185,1.474,1.474,0,0,1,49.569,29.712ZM32.612,25.327A1.472,1.472,0,1,1,34.084,26.8a1.474,1.474,0,0,1-1.472-1.472ZM18.6,32.657a1.472,1.472,0,1,1,1.472-1.473h0A1.474,1.474,0,0,1,18.6,32.657ZM10.307,44.449a1.472,1.472,0,1,1,1.472-1.472A1.474,1.474,0,0,1,10.307,44.449ZM3.47,53.826a1.472,1.472,0,1,1,1.472-1.472A1.474,1.474,0,0,1,3.47,53.826ZM18.6,77.6a1.472,1.472,0,1,1,1.472-1.473h0A1.474,1.474,0,0,1,18.6,77.6Zm16.957,3.14a1.472,1.472,0,1,1-1.472-1.472A1.474,1.474,0,0,1,35.556,80.735Zm14.013-6.085A1.472,1.472,0,1,1,48.1,76.123,1.474,1.474,0,0,1,49.569,74.651ZM46.542,54.329a1.666,1.666,0,0,0-1.664,1.664v4.075H42.995v-8.34a2.333,2.333,0,0,0-2.33-2.33H33.019a1,1,0,0,0,0,2h7.646a.333.333,0,0,1,.333.333V64.89a.333.333,0,0,1-.333.333H27.5a.333.333,0,0,1-.333-.333V51.728A.333.333,0,0,1,27.5,51.4h.856a1,1,0,0,0,0-2H27.5a2.333,2.333,0,0,0-2.33,2.33v8.34H23.29V58.276A1.652,1.652,0,0,0,22.8,57.1L20.52,54.817a1.653,1.653,0,0,0-1.177-.487H13.676c-.009-.135-.016-.27-.016-.4a6.2,6.2,0,0,1,5.507-6.109,1,1,0,0,0,.889-.884,6.452,6.452,0,0,1,7.712-5.609l.063.013a6.391,6.391,0,0,1,1.472.508,1,1,0,0,0,1.354-.5A9.123,9.123,0,0,1,48,46.634a1,1,0,0,0,.9,1.175,6.181,6.181,0,0,1,5.613,6.118c0,.137-.006.274-.016.411-.05,0-.1-.007-.152-.007h-7.8Zm18.156-.5a1.472,1.472,0,1,1,1.472-1.472A1.474,1.474,0,0,1,64.7,53.826Z" transform="translate(0 -21.857)"/>
        </g>
      </g>
    </g>
  </g>
</svg>
