<svg xmlns="http://www.w3.org/2000/svg" xmlns:xlink="http://www.w3.org/1999/xlink" width="113" height="113" viewBox="0 0 113 113">
  <defs>
    <filter id="Path_982547" x="0" y="0" width="113" height="113" filterUnits="userSpaceOnUse">
      <feOffset dy="3" input="SourceAlpha"/>
      <feGaussianBlur stdDeviation="3" result="blur"/>
      <feFlood flood-opacity="0.161"/>
      <feComposite operator="in" in2="blur"/>
      <feComposite in="SourceGraphic"/>
    </filter>
  </defs>
  <g id="Group_1150779" data-name="Group 1150779" transform="translate(-586 -9357.154)">
    <g id="Group_1150118" data-name="Group 1150118" transform="translate(0 -66.362)">
      <g id="Group_1148961" data-name="Group 1148961" transform="translate(-158 5719.339)">
        <g id="Group_1147087" data-name="Group 1147087" transform="translate(753 3710.178)">
          <g transform="matrix(1, 0, 0, 1, -9, -6)" filter="url(#Path_982547)">
            <g id="Path_982547-2" data-name="Path 982547" transform="translate(9 6)" fill="#fdeffe">
              <path d="M 47.5 93.5 C 41.28937149047852 93.5 35.26533508300781 92.28397369384766 29.59518623352051 89.88570404052734 C 24.11771965026855 87.56893157958984 19.19813346862793 84.25196075439453 14.97309303283691 80.02691650390625 C 10.74804019927979 75.80186462402344 7.431066513061523 70.88229370117188 5.114293098449707 65.40481567382812 C 2.716026782989502 59.73468017578125 1.5 53.71062850952148 1.5 47.5 C 1.5 41.28937149047852 2.716026782989502 35.26533508300781 5.114293098449707 29.59518623352051 C 7.431066513061523 24.11771965026855 10.74804019927979 19.19813346862793 14.97309303283691 14.97309303283691 C 19.19813346862793 10.74804019927979 24.11771965026855 7.431066513061523 29.59518623352051 5.114293098449707 C 35.26533508300781 2.716026782989502 41.28937149047852 1.5 47.5 1.5 C 53.71062850952148 1.5 59.73468017578125 2.716026782989502 65.40481567382812 5.114293098449707 C 70.88229370117188 7.431066513061523 75.80186462402344 10.74804019927979 80.02691650390625 14.97309303283691 C 84.25196075439453 19.19813346862793 87.56893157958984 24.11771965026855 89.88570404052734 29.59518623352051 C 92.28397369384766 35.26533508300781 93.5 41.28937149047852 93.5 47.5 C 93.5 53.71062850952148 92.28397369384766 59.73468017578125 89.88570404052734 65.40481567382812 C 87.56893157958984 70.88229370117188 84.25196075439453 75.80186462402344 80.02691650390625 80.02691650390625 C 75.80186462402344 84.25196075439453 70.88229370117188 87.56893157958984 65.40481567382812 89.88570404052734 C 59.73468017578125 92.28397369384766 53.71062850952148 93.5 47.5 93.5 Z" stroke="none"/>
              <path d="M 47.5 3 C 41.49121475219727 3 35.66376876831055 4.176155090332031 30.17950439453125 6.495796203613281 C 24.88084411621094 8.736953735351562 20.12152099609375 11.94598388671875 16.03375244140625 16.03375244140625 C 11.94598388671875 20.12152099609375 8.736953735351562 24.88084411621094 6.495796203613281 30.17950439453125 C 4.176155090332031 35.66376876831055 3 41.49121475219727 3 47.5 C 3 53.50878524780273 4.176155090332031 59.33623123168945 6.495796203613281 64.82049560546875 C 8.736953735351562 70.11915588378906 11.94598388671875 74.87847900390625 16.03375244140625 78.96624755859375 C 20.12152099609375 83.05401611328125 24.88084411621094 86.26304626464844 30.17950439453125 88.50419616699219 C 35.66376876831055 90.82384490966797 41.49121475219727 92 47.5 92 C 53.50878524780273 92 59.33623123168945 90.82384490966797 64.82049560546875 88.50419616699219 C 70.11915588378906 86.26304626464844 74.87847900390625 83.05401611328125 78.96624755859375 78.96624755859375 C 83.05401611328125 74.87847900390625 86.26304626464844 70.11915588378906 88.50419616699219 64.82049560546875 C 90.82384490966797 59.33623123168945 92 53.50878524780273 92 47.5 C 92 41.49121475219727 90.82384490966797 35.66376876831055 88.50419616699219 30.17950439453125 C 86.26304626464844 24.88084411621094 83.05401611328125 20.12152099609375 78.96624755859375 16.03375244140625 C 74.87847900390625 11.94598388671875 70.11915588378906 8.736953735351562 64.82049560546875 6.495796203613281 C 59.33623123168945 4.176155090332031 53.50878524780273 3 47.5 3 M 47.5 0 C 73.7335205078125 0 95 21.2664794921875 95 47.5 C 95 73.7335205078125 73.7335205078125 95 47.5 95 C 21.2664794921875 95 0 73.7335205078125 0 47.5 C 0 21.2664794921875 21.2664794921875 0 47.5 0 Z" stroke="none" fill="#ee70f7"/>
            </g>
          </g>
        </g>
      </g>
      <g id="compra-en-linea" transform="translate(613.534 9446.874)">
        <path id="Path_986046" data-name="Path 986046" d="M78.339,119.926H35.862A3.862,3.862,0,0,0,32,123.788v36.685H82.2V123.788A3.862,3.862,0,0,0,78.339,119.926Zm0,0" transform="translate(-28.139 -105.42)" fill="#4398d1"/>
        <path id="Path_986047" data-name="Path 986047" d="M104.547,151.926H64.965a.965.965,0,0,0-.965.965V186.68h42.478V153.857A1.931,1.931,0,0,0,104.547,151.926Zm0,0" transform="translate(-56.277 -133.558)" fill="#87ced9"/>
        <path id="Path_986048" data-name="Path 986048" d="M212,207.926l-28,28h28Zm0,0" transform="translate(-161.796 -182.8)" fill="#71c4d1"/>
        <path id="Path_986049" data-name="Path 986049" d="M246.481,7.926l3,3.291,4.242-1.351.951,4.349,4.349.951-1.351,4.242,3.291,3-3.291,3,1.351,4.242-4.349.951-.951,4.349L249.479,33.6l-3,3.291-3-3.291-4.242,1.351L238.29,30.6l-4.349-.951,1.351-4.242-3.291-3,3.291-3-1.351-4.242,4.349-.951.951-4.349,4.242,1.351Zm0,0" transform="translate(-204.004 -6.935)" fill="#fdb62f"/>
        <g id="Group_1150117" data-name="Group 1150117" transform="translate(34.754 9.679)">
          <path id="Path_986050" data-name="Path 986050" d="M306.344,91.924,316,82.27l1.366,1.365-9.654,9.654Zm0,0" transform="translate(-304.13 -81.987)" fill="#fd6d2f"/>
          <path id="Path_986051" data-name="Path 986051" d="M290.9,85.718a2.9,2.9,0,1,1,2.9-2.9A2.9,2.9,0,0,1,290.9,85.718Zm0-3.862a.965.965,0,1,0,.965.965A.965.965,0,0,0,290.9,81.857Zm0,0" transform="translate(-288 -79.926)" fill="#fd6d2f"/>
          <path id="Path_986052" data-name="Path 986052" d="M370.9,133.718a2.9,2.9,0,1,1,2.9-2.9A2.9,2.9,0,0,1,370.9,133.718Zm0-3.862a.965.965,0,1,0,.965.965A.965.965,0,0,0,370.9,129.857Zm0,0" transform="translate(-358.346 -122.134)" fill="#fd6d2f"/>
        </g>
        <path id="Path_986053" data-name="Path 986053" d="M123.332,342.316l-3.468,1.407,2.263,4.58h3.8Zm0,0" transform="translate(-105.4 -300.973)" fill="#e0e3e6"/>
        <path id="Path_986054" data-name="Path 986054" d="M141.708,236.58l-11.995-.194-2.592-5.131,9.505-9.406Zm0,0" transform="translate(-111.781 -195.042)" fill="#e0e3e6"/>
        <path id="Path_986055" data-name="Path 986055" d="M96.149,304.467a2.8,2.8,0,0,0,3.9,1.6l2.3-1.139L99.761,299.8l-2.4,1.424A2.752,2.752,0,0,0,96.149,304.467Zm0,0" transform="translate(-84.421 -263.585)" fill="#e3584b"/>
        <path id="Path_986056" data-name="Path 986056" d="M249.281,265.879l3.193-1.11.633,1.823-3.192,1.11Zm0,0" transform="translate(-219.2 -232.784)" fill="#5eb3d1"/>
        <path id="Path_986057" data-name="Path 986057" d="M228.492,204.61l2.129-2.219,1.393,1.337-2.13,2.219Zm0,0" transform="translate(-200.919 -177.933)" fill="#5eb3d1"/>
        <path id="Path_986058" data-name="Path 986058" d="M272,327.926h2.9v1.931H272Zm0,0" transform="translate(-239.177 -288.319)" fill="#5eb3d1"/>
        <path id="Path_986059" data-name="Path 986059" d="M320,279.926h18.343v11.585H320Zm0,0" transform="translate(-281.385 -246.112)" fill="#e3584b"/>
        <path id="Path_986060" data-name="Path 986060" d="M344,303.926h3.862v1.931H344Zm0,0" transform="translate(-302.488 -267.216)" fill="#c9433c"/>
        <path id="Path_986061" data-name="Path 986061" d="M392,303.926h6.758v1.931H392Zm0,0" transform="translate(-344.696 -267.216)" fill="#c9433c"/>
        <path id="Path_986062" data-name="Path 986062" d="M344,335.926h12.55v1.931H344Zm0,0" transform="translate(-302.488 -295.354)" fill="#c9433c"/>
        <path id="Path_986063" data-name="Path 986063" d="M8,183.926H22.481v7.723H8Zm0,0" transform="translate(-7.035 -161.696)" fill="#fd6d2f"/>
        <path id="Path_986064" data-name="Path 986064" d="M32,207.926h1.931v1.931H32Zm0,0" transform="translate(-28.139 -182.8)" fill="#e3584b"/>
        <path id="Path_986065" data-name="Path 986065" d="M64,207.926h4.827v1.931H64Zm0,0" transform="translate(-56.277 -182.8)" fill="#e3584b"/>
        <path id="Path_986066" data-name="Path 986066" d="M61.1,429.718H10.9a2.9,2.9,0,0,1-2.9-2.9v-2.9H30.09a1.746,1.746,0,0,1,1.562.965,1.746,1.746,0,0,0,1.562.965h5.564a1.746,1.746,0,0,0,1.562-.965,1.746,1.746,0,0,1,1.562-.965h22.09v2.9a2.9,2.9,0,0,1-2.9,2.9Zm0,0" transform="translate(-7.035 -372.735)" fill="#d6d9db"/>
        <path id="Path_986067" data-name="Path 986067" d="M71.723,199.926v5.792H64v1.931h9.654v-7.723Zm0,0" transform="translate(-56.277 -175.766)" fill="#71c4d1"/>
        <path id="Path_986068" data-name="Path 986068" d="M32,247.926h3.862v1.931H32Zm0,0" transform="translate(-28.139 -217.973)" fill="#3e8cc7"/>
        <path id="Path_986069" data-name="Path 986069" d="M416,375.926h3.862v1.931H416Zm0,0" transform="translate(-365.8 -330.527)" fill="#3e8cc7"/>
        <path id="Path_986070" data-name="Path 986070" d="M56.958,289.3H55.027v-1.931H53.1V289.3H51.166v-1.931H49.235V289.3H34.868a2.7,2.7,0,0,0-2.431,1.5.773.773,0,0,1-.7.431h-5.56a.773.773,0,0,1-.7-.431,2.7,2.7,0,0,0-2.426-1.5H8.688V271.926H6.757V289.3H4.826V271.926H2.9V289.3H.965a.965.965,0,0,0-.965.965v2.9a3.862,3.862,0,0,0,3.862,3.862h50.2a3.862,3.862,0,0,0,3.862-3.862v-2.9a.965.965,0,0,0-.965-.965Zm-.965,3.862a1.931,1.931,0,0,1-1.931,1.931H3.861a1.931,1.931,0,0,1-1.931-1.931v-1.931H23.055a.773.773,0,0,1,.7.431,2.7,2.7,0,0,0,2.426,1.5h5.564a2.7,2.7,0,0,0,2.431-1.5.773.773,0,0,1,.693-.431H55.993Zm0,0" transform="translate(0 -239.077)"/>
        <path id="Path_986071" data-name="Path 986071" d="M46.2,113.857v-1.931H28.827A4.833,4.833,0,0,0,24,116.753v.965h1.931v-.965a2.9,2.9,0,0,1,2.9-2.9Zm0,0" transform="translate(-21.104 -98.385)"/>
        <path id="Path_986072" data-name="Path 986072" d="M56,145.857H76.273v-1.931H57.931A1.931,1.931,0,0,0,56,145.857Zm0,0" transform="translate(-49.243 -126.523)"/>
        <path id="Path_986073" data-name="Path 986073" d="M251.733,12.177l1.159-3.652a.965.965,0,0,0-.712-1.237l-3.745-.819-.815-3.741a.966.966,0,0,0-1.233-.717l-3.652,1.158L240.149.34a.995.995,0,0,0-1.426,0l-2.582,2.834-3.656-1.163a.965.965,0,0,0-1.236.713l-.819,3.745-3.737.819a.965.965,0,0,0-.713,1.237l1.159,3.652L224.3,14.758a.964.964,0,0,0,0,1.426l2.834,2.582-1.159,3.652a.965.965,0,0,0,.713,1.237l3.745.819.818,3.745a.966.966,0,0,0,1.237.713l3.652-1.163,2.582,2.834a.965.965,0,0,0,1.427,0l2.581-2.834,3.652,1.163a.965.965,0,0,0,1.236-.713l.819-3.745,3.745-.819a.965.965,0,0,0,.713-1.237l-1.158-3.652,2.834-2.582a.965.965,0,0,0,0-1.426Zm-1.758,5.579a.965.965,0,0,0-.269,1.007L250.731,22l-3.314.725a.967.967,0,0,0-.736.736l-.721,3.311-3.233-1.03a.971.971,0,0,0-1.007.27l-2.284,2.512-2.284-2.51a.958.958,0,0,0-1-.269l-3.237,1.027-.725-3.314a.967.967,0,0,0-.736-.736L228.14,22l1.03-3.233a.965.965,0,0,0-.27-1.007l-2.512-2.284,2.51-2.284a.964.964,0,0,0,.269-1.007L228.14,8.948l3.314-.725a.967.967,0,0,0,.736-.736l.721-3.311,3.233,1.03a.965.965,0,0,0,1.007-.27l2.284-2.512,2.284,2.51a.964.964,0,0,0,1.007.269l3.233-1.027.725,3.314a.967.967,0,0,0,.736.736l3.314.725-1.029,3.233a.965.965,0,0,0,.269,1.007l2.508,2.28Zm0,0" transform="translate(-196.959)"/>
        <path id="Path_986074" data-name="Path 986074" d="M306.344,91.924,316,82.27l1.366,1.365-9.654,9.654Zm0,0" transform="translate(-269.377 -72.308)"/>
        <path id="Path_986075" data-name="Path 986075" d="M293.792,82.822a2.9,2.9,0,1,0-2.9,2.9A2.9,2.9,0,0,0,293.792,82.822Zm-3.862,0a.965.965,0,1,1,.965.965A.965.965,0,0,1,289.931,82.822Zm0,0" transform="translate(-253.246 -70.247)"/>
        <path id="Path_986076" data-name="Path 986076" d="M370.9,127.926a2.9,2.9,0,1,0,2.9,2.9A2.9,2.9,0,0,0,370.9,127.926Zm0,3.862a.965.965,0,1,1,.965-.965A.965.965,0,0,1,370.9,131.788Zm0,0" transform="translate(-323.592 -112.454)"/>
        <path id="Path_986077" data-name="Path 986077" d="M102.419,213.871a.958.958,0,0,0-.9.253L92.1,223.449l-2.291,1.363a3.71,3.71,0,0,0,1.4,6.88l2.011,4.069a.965.965,0,0,0,.869.538h3.8a.966.966,0,0,0,.886-1.351l-2-4.614,10.495.174h.017a.965.965,0,0,0,.912-1.28L103.112,214.5a.965.965,0,0,0-.693-.625ZM90,228.577a1.779,1.779,0,0,1,.792-2.109l1.508-.895,1.689,3.339-1.43.708a1.848,1.848,0,0,1-1.533.05A1.789,1.789,0,0,1,90,228.577Zm4.684,5.792-1.46-2.949c.061-.027.126-.037.187-.067l1.392-.689,1.6,3.705Zm1.2-5.977-2.012-3.983,7.916-7.833,4.131,11.979Zm0,0" transform="translate(-77.354 -188.005)"/>
        <path id="Path_986078" data-name="Path 986078" d="M249.281,265.879l3.193-1.11.633,1.823-3.192,1.11Zm0,0" transform="translate(-219.2 -232.784)"/>
        <path id="Path_986079" data-name="Path 986079" d="M228.492,204.61l2.129-2.219,1.393,1.337-2.13,2.219Zm0,0" transform="translate(-200.919 -177.933)"/>
        <path id="Path_986080" data-name="Path 986080" d="M272,327.926h2.9v1.931H272Zm0,0" transform="translate(-239.177 -288.319)"/>
        <path id="Path_986081" data-name="Path 986081" d="M331.308,222.684h-1.931v-6.758h-1.931v6.758h-1.931v-1.931h-1.931v1.931H312.965a.965.965,0,0,0-.965.965v11.585a.965.965,0,0,0,.965.965h18.343a.965.965,0,0,0,.965-.965V223.649A.965.965,0,0,0,331.308,222.684Zm-.965,11.585H313.931v-9.654h16.412Zm0,0" transform="translate(-274.35 -189.835)"/>
        <path id="Path_986082" data-name="Path 986082" d="M344,303.926h3.862v1.931H344Zm0,0" transform="translate(-302.488 -267.216)"/>
        <path id="Path_986083" data-name="Path 986083" d="M392,303.926h6.758v1.931H392Zm0,0" transform="translate(-344.696 -267.216)"/>
        <path id="Path_986084" data-name="Path 986084" d="M344,335.926h12.55v1.931H344Zm0,0" transform="translate(-302.488 -295.354)"/>
        <path id="Path_986085" data-name="Path 986085" d="M.965,185.58H15.446a.965.965,0,0,0,.965-.965v-7.723a.965.965,0,0,0-.965-.965H.965a.965.965,0,0,0-.965.965v7.723A.965.965,0,0,0,.965,185.58Zm.965-7.723h12.55v5.792H1.931Zm0,0" transform="translate(-0.001 -154.662)"/>
        <path id="Path_986086" data-name="Path 986086" d="M32,207.926h1.931v1.931H32Zm0,0" transform="translate(-28.139 -182.8)"/>
        <path id="Path_986087" data-name="Path 986087" d="M64,207.926h4.827v1.931H64Zm0,0" transform="translate(-56.277 -182.8)"/>
      </g>
    </g>
  </g>
</svg>
