<svg xmlns="http://www.w3.org/2000/svg" xmlns:xlink="http://www.w3.org/1999/xlink" width="101.5" height="101.5" viewBox="0 0 101.5 101.5">
  <defs>
    <filter id="Path_982547" x="0" y="0" width="101.5" height="101.5" filterUnits="userSpaceOnUse">
      <feOffset dy="3" input="SourceAlpha"/>
      <feGaussianBlur stdDeviation="3" result="blur"/>
      <feFlood flood-opacity="0.161"/>
      <feComposite operator="in" in2="blur"/>
      <feComposite in="SourceGraphic"/>
    </filter>
  </defs>
  <g id="Group_1150835" data-name="Group 1150835" transform="translate(-612.377 -11201.932)">
    <g id="Group_1150834" data-name="Group 1150834">
      <g id="Group_1150798" data-name="Group 1150798">
        <g id="Group_1150752" data-name="Group 1150752">
          <g id="Group_1149577" data-name="Group 1149577" transform="translate(288.377 7497.754)">
            <g id="Group_1147086" data-name="Group 1147086" transform="translate(333 3710.178)">
              <g transform="matrix(1, 0, 0, 1, -9, -6)" filter="url(#Path_982547)">
                <g id="Path_982547-2" data-name="Path 982547" transform="translate(9 6)" fill="#fdeffe">
                  <path d="M 41.75 82 C 36.31562423706055 82 31.04459953308105 80.93599700927734 26.08334159851074 78.83757781982422 C 21.29058837890625 76.81040191650391 16.98592948913574 73.90802001953125 13.28895282745361 70.21104431152344 C 9.591976165771484 66.51406860351562 6.689599990844727 62.20942306518555 4.662435531616211 57.41666030883789 C 2.563999891281128 52.45539855957031 1.5 47.18437576293945 1.5 41.75 C 1.5 36.31562423706055 2.563999891281128 31.04459953308105 4.662435531616211 26.08334159851074 C 6.689599990844727 21.29058837890625 9.591976165771484 16.98592948913574 13.28895282745361 13.28895282745361 C 16.98592948913574 9.591976165771484 21.29058837890625 6.689599990844727 26.08334159851074 4.662435531616211 C 31.04459953308105 2.563999891281128 36.31562423706055 1.5 41.75 1.5 C 47.18437576293945 1.5 52.45539855957031 2.563999891281128 57.41666030883789 4.662435531616211 C 62.20942306518555 6.689599990844727 66.51406860351562 9.591976165771484 70.21104431152344 13.28895282745361 C 73.90802001953125 16.98592948913574 76.81040191650391 21.29058837890625 78.83757781982422 26.08334159851074 C 80.93599700927734 31.04459953308105 82 36.31562423706055 82 41.75 C 82 47.18437576293945 80.93599700927734 52.45539855957031 78.83757781982422 57.41666030883789 C 76.81040191650391 62.20942306518555 73.90802001953125 66.51408386230469 70.21104431152344 70.21104431152344 C 66.51408386230469 73.90802001953125 62.20942306518555 76.81040191650391 57.41666030883789 78.83757781982422 C 52.45539855957031 80.93599700927734 47.18437576293945 82 41.75 82 Z" stroke="none"/>
                  <path d="M 41.75 3 C 36.5174674987793 3 31.44303894042969 4.024131774902344 26.66767883300781 6.043930053710938 C 22.05370712280273 7.9954833984375 17.90931701660156 10.7899169921875 14.34961700439453 14.34961700439453 C 10.7899169921875 17.90931701660156 7.9954833984375 22.05370712280273 6.043930053710938 26.66767883300781 C 4.024131774902344 31.44303894042969 3 36.5174674987793 3 41.75 C 3 46.9825325012207 4.024131774902344 52.05697250366211 6.043930053710938 56.83233261108398 C 7.9954833984375 61.44629287719727 10.7899169921875 65.59069061279297 14.34961700439453 69.150390625 C 17.90931701660156 72.71009063720703 22.05370712280273 75.5045166015625 26.66767883300781 77.45606994628906 C 31.44303894042969 79.47586822509766 36.5174674987793 80.5 41.75 80.5 C 46.9825325012207 80.5 52.05697250366211 79.47586822509766 56.83233261108398 77.45606994628906 C 61.44629287719727 75.5045166015625 65.59069061279297 72.71009063720703 69.150390625 69.150390625 C 72.71009063720703 65.59069061279297 75.5045166015625 61.44629287719727 77.45606994628906 56.83233261108398 C 79.47586822509766 52.05697250366211 80.5 46.9825325012207 80.5 41.75 C 80.5 36.5174674987793 79.47586822509766 31.44303894042969 77.45606994628906 26.66767883300781 C 75.5045166015625 22.05370712280273 72.71009063720703 17.90931701660156 69.150390625 14.34961700439453 C 65.59069061279297 10.7899169921875 61.44629287719727 7.9954833984375 56.83233261108398 6.043930053710938 C 52.05697250366211 4.024131774902344 46.9825325012207 3 41.75 3 M 41.75 0 C 64.80789184570312 0 83.5 18.69212341308594 83.5 41.75 C 83.5 64.80789184570312 64.80789184570312 83.5 41.75 83.5 C 18.69212341308594 83.5 0 64.80789184570312 0 41.75 C 0 18.69212341308594 18.69212341308594 0 41.75 0 Z" stroke="none" fill="#ee70f7"/>
                </g>
              </g>
            </g>
          </g>
          <g id="datos_2_" data-name="datos (2)" transform="translate(632.814 11225.932)">
            <path id="Path_987074" data-name="Path 987074" d="M16.332,8.533H51.648a3.532,3.532,0,0,1,3.532,3.532V40.318a3.532,3.532,0,0,1-3.532,3.532H16.332A3.532,3.532,0,0,1,12.8,40.318V12.065A3.532,3.532,0,0,1,16.332,8.533Z" transform="translate(-7.65 -7.65)" fill="#87ced9"/>
            <g id="Group_1150339" data-name="Group 1150339" transform="translate(7.799 3.532)">
              <rect id="Rectangle_408442" data-name="Rectangle 408442" width="1.766" height="1.766" fill="#4398d1"/>
              <rect id="Rectangle_408443" data-name="Rectangle 408443" width="1.766" height="1.766" transform="translate(3.532)" fill="#4398d1"/>
              <rect id="Rectangle_408444" data-name="Rectangle 408444" width="1.766" height="1.766" transform="translate(7.063)" fill="#4398d1"/>
              <path id="Path_987075" data-name="Path 987075" d="M67.532,76.8h35.317a3.532,3.532,0,0,1,3.532,3.532v28.253a3.532,3.532,0,0,1-3.532,3.532H67.532A3.532,3.532,0,0,1,64,108.585V80.332A3.532,3.532,0,0,1,67.532,76.8Z" transform="translate(-61.351 -72.385)" fill="#4398d1"/>
            </g>
            <path id="Path_987076" data-name="Path 987076" d="M170.608,76.8h-4.195c-6.328,20.147-18.445,30.33-26.834,35.317h31.028a3.532,3.532,0,0,0,3.532-3.532V80.332A3.532,3.532,0,0,0,170.608,76.8Z" transform="translate(-121.313 -68.854)" fill="#3f8fc4"/>
            <g id="Group_1150340" data-name="Group 1150340" transform="translate(13.096 10.595)">
              <rect id="Rectangle_408445" data-name="Rectangle 408445" width="1.766" height="1.766" fill="#87ced9"/>
              <rect id="Rectangle_408446" data-name="Rectangle 408446" width="1.766" height="1.766" transform="translate(3.532)" fill="#87ced9"/>
              <rect id="Rectangle_408447" data-name="Rectangle 408447" width="1.766" height="1.766" transform="translate(7.063)" fill="#87ced9"/>
            </g>
            <g id="Group_1150341" data-name="Group 1150341" transform="translate(13.096 14.127)">
              <rect id="Rectangle_408448" data-name="Rectangle 408448" width="37.083" height="1.766" transform="translate(0 22.073)" fill="#3685ba"/>
              <rect id="Rectangle_408449" data-name="Rectangle 408449" width="1.766" height="5.298" transform="translate(1.766 15.01)" fill="#3685ba"/>
              <rect id="Rectangle_408450" data-name="Rectangle 408450" width="1.766" height="10.595" transform="translate(5.298 9.712)" fill="#3685ba"/>
              <rect id="Rectangle_408451" data-name="Rectangle 408451" width="1.766" height="7.946" transform="translate(8.829 12.361)" fill="#3685ba"/>
              <rect id="Rectangle_408452" data-name="Rectangle 408452" width="1.766" height="14.127" transform="translate(12.361 6.18)" fill="#3685ba"/>
              <rect id="Rectangle_408453" data-name="Rectangle 408453" width="1.766" height="15.893" transform="translate(15.893 4.415)" fill="#3685ba"/>
              <rect id="Rectangle_408454" data-name="Rectangle 408454" width="1.766" height="6.18" transform="translate(19.424 5.298)" fill="#3685ba"/>
              <rect id="Rectangle_408455" data-name="Rectangle 408455" width="1.766" height="9.712" transform="translate(22.956 1.766)" fill="#3685ba"/>
              <rect id="Rectangle_408456" data-name="Rectangle 408456" width="1.766" height="11.478" transform="translate(26.488)" fill="#3685ba"/>
              <rect id="Rectangle_408457" data-name="Rectangle 408457" width="1.766" height="16.775" transform="translate(30.019 3.532)" fill="#3685ba"/>
              <rect id="Rectangle_408458" data-name="Rectangle 408458" width="1.766" height="13.244" transform="translate(33.551 7.063)" fill="#3685ba"/>
            </g>
            <rect id="Rectangle_408459" data-name="Rectangle 408459" width="3.746" height="14.984" transform="translate(55.481 49.449) rotate(135)" fill="#fdb62f"/>
            <rect id="Rectangle_408460" data-name="Rectangle 408460" width="3.746" height="4.995" transform="translate(48.415 42.383) rotate(135)" fill="#fa962a"/>
            <circle id="Ellipse_11698" data-name="Ellipse 11698" cx="11.478" cy="11.478" r="11.478" transform="translate(25.457 22.956)" fill="#fdb62f"/>
            <circle id="Ellipse_11699" data-name="Ellipse 11699" cx="7.946" cy="7.946" r="7.946" transform="translate(28.989 26.488)" fill="#87ced9"/>
            <g id="Group_1150342" data-name="Group 1150342" transform="translate(28.989 26.487)">
              <path id="Path_987077" data-name="Path 987077" d="M245.171,349.867a7.845,7.845,0,0,0,.632,1.766h14.22a7.842,7.842,0,0,0,.632-1.766Z" transform="translate(-244.967 -340.155)" fill="#4398d1"/>
              <path id="Path_987078" data-name="Path 987078" d="M313.232,263.944V256.05a7.479,7.479,0,0,0-1.766,0v7.894Z" transform="translate(-304.403 -255.997)" fill="#4398d1"/>
              <path id="Path_987079" data-name="Path 987079" d="M279.1,267.947v-7.484a7.908,7.908,0,0,0-1.766.879v6.606Z" transform="translate(-273.801 -260.001)" fill="#4398d1"/>
              <path id="Path_987080" data-name="Path 987080" d="M347.366,267.947v-6.606a7.906,7.906,0,0,0-1.766-.879v7.484Z" transform="translate(-335.005 -260.001)" fill="#4398d1"/>
              <path id="Path_987081" data-name="Path 987081" d="M244.966,284.578a7.909,7.909,0,0,0-1.766,4.989h1.766Z" transform="translate(-243.2 -281.621)" fill="#4398d1"/>
              <path id="Path_987082" data-name="Path 987082" d="M379.733,289.567H381.5a7.909,7.909,0,0,0-1.766-4.989Z" transform="translate(-365.606 -281.621)" fill="#4398d1"/>
            </g>
            <path id="Path_987083" data-name="Path 987083" d="M7.579,36.943l.441-1.709a2.65,2.65,0,0,1-1.987-2.566V4.415A2.649,2.649,0,0,1,8.682,1.766H44a2.649,2.649,0,0,1,2.649,2.649V5.3h1.766V4.415A4.42,4.42,0,0,0,44,0H8.682A4.42,4.42,0,0,0,4.267,4.415V32.668A4.415,4.415,0,0,0,7.579,36.943Z"/>
            <rect id="Rectangle_408461" data-name="Rectangle 408461" width="1.766" height="1.766" transform="translate(7.799 3.532)"/>
            <rect id="Rectangle_408462" data-name="Rectangle 408462" width="1.766" height="1.766" transform="translate(11.33 3.532)"/>
            <rect id="Rectangle_408463" data-name="Rectangle 408463" width="1.766" height="1.766" transform="translate(14.862 3.532)"/>
            <path id="Path_987084" data-name="Path 987084" d="M125.279,160.373h1.4v-1.766h-1.024a11.9,11.9,0,0,0-.742-6.327V143.6h-1.766v5.622a12.425,12.425,0,0,0-1.766-1.833v-7.321h-1.766v6.087a12.3,12.3,0,0,0-1.766-.843v-8.775h-1.766v8.239a12.26,12.26,0,0,0-1.766-.248V138.3h-1.766v6.225a12.262,12.262,0,0,0-1.766.248v-2.942h-1.766v3.478a12.3,12.3,0,0,0-1.766.843v-5.2h-1.766v6.438a12.426,12.426,0,0,0-1.766,1.833v-6.505h-1.766v9.566a11.9,11.9,0,0,0-.742,6.327H89.6v1.766h12a12.334,12.334,0,0,0,18.933,6.576l8.175,8.175a.883.883,0,0,0,1.248,0l2.649-2.649a.884.884,0,0,0,0-1.248l-8.375-8.374A12.2,12.2,0,0,0,125.279,160.373Zm-22.435-3.532a10.6,10.6,0,1,1,10.6,10.6A10.6,10.6,0,0,1,102.844,156.841Zm27.888,15.01-1.4,1.4-7.427-7.427a12.505,12.505,0,0,0,1.329-1.472Z" transform="translate(-76.504 -122.407)"/>
            <path id="Path_987085" data-name="Path 987085" d="M243.5,247.467a8.829,8.829,0,1,0,8.829,8.829A8.829,8.829,0,0,0,243.5,247.467Zm-4.415,3.324v5.5h1.766v-6.543a6.985,6.985,0,0,1,1.766-.458v7h1.766v-7a6.981,6.981,0,0,1,1.766.458V256.3h1.766v-5.5a7,7,0,0,1,2.417,7.271H236.665A7,7,0,0,1,239.082,250.791ZM243.5,263.36a7.064,7.064,0,0,1-6.108-3.532H249.6A7.064,7.064,0,0,1,243.5,263.36Z" transform="translate(-206.561 -221.862)"/>
            <path id="Path_987086" data-name="Path 987086" d="M55.467,72.681v28.253a4.42,4.42,0,0,0,4.415,4.415H71.36v-1.766H59.882a2.649,2.649,0,0,1-2.649-2.649V72.681a2.649,2.649,0,0,1,2.649-2.649H95.2a2.649,2.649,0,0,1,2.649,2.649v28.253a2.649,2.649,0,0,1-.662,1.752l1.324,1.168a4.407,4.407,0,0,0,1.1-2.92V72.681A4.42,4.42,0,0,0,95.2,68.266H59.882A4.42,4.42,0,0,0,55.467,72.681Z" transform="translate(-45.902 -61.203)"/>
            <rect id="Rectangle_408464" data-name="Rectangle 408464" width="1.766" height="1.766" transform="translate(13.096 10.595)"/>
            <rect id="Rectangle_408465" data-name="Rectangle 408465" width="1.766" height="1.766" transform="translate(16.628 10.595)"/>
            <rect id="Rectangle_408466" data-name="Rectangle 408466" width="1.766" height="1.766" transform="translate(20.16 10.595)"/>
            <rect id="Rectangle_408467" data-name="Rectangle 408467" width="1.766" height="5.298" transform="translate(14.862 29.136)"/>
            <rect id="Rectangle_408468" data-name="Rectangle 408468" width="1.766" height="10.595" transform="translate(18.394 23.839)"/>
            <rect id="Rectangle_408469" data-name="Rectangle 408469" width="1.766" height="7.946" transform="translate(21.925 26.488)"/>
          </g>
        </g>
      </g>
    </g>
  </g>
</svg>
