<svg xmlns="http://www.w3.org/2000/svg" xmlns:xlink="http://www.w3.org/1999/xlink" width="113" height="113" viewBox="0 0 113 113">
  <defs>
    <filter id="Path_982547" x="0" y="0" width="113" height="113" filterUnits="userSpaceOnUse">
      <feOffset dy="3" input="SourceAlpha"/>
      <feGaussianBlur stdDeviation="3" result="blur"/>
      <feFlood flood-opacity="0.161"/>
      <feComposite operator="in" in2="blur"/>
      <feComposite in="SourceGraphic"/>
    </filter>
  </defs>
  <g id="Group_1150780" data-name="Group 1150780" transform="translate(-901 -9357.154)">
    <g id="Group_1150123" data-name="Group 1150123" transform="translate(0 -66.362)">
      <g id="Group_1148962" data-name="Group 1148962" transform="translate(157 5719.339)">
        <g id="Group_1147087" data-name="Group 1147087" transform="translate(753 3710.178)">
          <g transform="matrix(1, 0, 0, 1, -9, -6)" filter="url(#Path_982547)">
            <g id="Path_982547-2" data-name="Path 982547" transform="translate(9 6)" fill="#fdeffe">
              <path d="M 47.5 93.5 C 41.28937149047852 93.5 35.26533508300781 92.28397369384766 29.59518623352051 89.88570404052734 C 24.11771965026855 87.56893157958984 19.19813346862793 84.25196075439453 14.97309303283691 80.02691650390625 C 10.74804019927979 75.80186462402344 7.431066513061523 70.88229370117188 5.114293098449707 65.40481567382812 C 2.716026782989502 59.73468017578125 1.5 53.71062850952148 1.5 47.5 C 1.5 41.28937149047852 2.716026782989502 35.26533508300781 5.114293098449707 29.59518623352051 C 7.431066513061523 24.11771965026855 10.74804019927979 19.19813346862793 14.97309303283691 14.97309303283691 C 19.19813346862793 10.74804019927979 24.11771965026855 7.431066513061523 29.59518623352051 5.114293098449707 C 35.26533508300781 2.716026782989502 41.28937149047852 1.5 47.5 1.5 C 53.71062850952148 1.5 59.73468017578125 2.716026782989502 65.40481567382812 5.114293098449707 C 70.88229370117188 7.431066513061523 75.80186462402344 10.74804019927979 80.02691650390625 14.97309303283691 C 84.25196075439453 19.19813346862793 87.56893157958984 24.11771965026855 89.88570404052734 29.59518623352051 C 92.28397369384766 35.26533508300781 93.5 41.28937149047852 93.5 47.5 C 93.5 53.71062850952148 92.28397369384766 59.73468017578125 89.88570404052734 65.40481567382812 C 87.56893157958984 70.88229370117188 84.25196075439453 75.80186462402344 80.02691650390625 80.02691650390625 C 75.80186462402344 84.25196075439453 70.88229370117188 87.56893157958984 65.40481567382812 89.88570404052734 C 59.73468017578125 92.28397369384766 53.71062850952148 93.5 47.5 93.5 Z" stroke="none"/>
              <path d="M 47.5 3 C 41.49121475219727 3 35.66376876831055 4.176155090332031 30.17950439453125 6.495796203613281 C 24.88084411621094 8.736953735351562 20.12152099609375 11.94598388671875 16.03375244140625 16.03375244140625 C 11.94598388671875 20.12152099609375 8.736953735351562 24.88084411621094 6.495796203613281 30.17950439453125 C 4.176155090332031 35.66376876831055 3 41.49121475219727 3 47.5 C 3 53.50878524780273 4.176155090332031 59.33623123168945 6.495796203613281 64.82049560546875 C 8.736953735351562 70.11915588378906 11.94598388671875 74.87847900390625 16.03375244140625 78.96624755859375 C 20.12152099609375 83.05401611328125 24.88084411621094 86.26304626464844 30.17950439453125 88.50419616699219 C 35.66376876831055 90.82384490966797 41.49121475219727 92 47.5 92 C 53.50878524780273 92 59.33623123168945 90.82384490966797 64.82049560546875 88.50419616699219 C 70.11915588378906 86.26304626464844 74.87847900390625 83.05401611328125 78.96624755859375 78.96624755859375 C 83.05401611328125 74.87847900390625 86.26304626464844 70.11915588378906 88.50419616699219 64.82049560546875 C 90.82384490966797 59.33623123168945 92 53.50878524780273 92 47.5 C 92 41.49121475219727 90.82384490966797 35.66376876831055 88.50419616699219 30.17950439453125 C 86.26304626464844 24.88084411621094 83.05401611328125 20.12152099609375 78.96624755859375 16.03375244140625 C 74.87847900390625 11.94598388671875 70.11915588378906 8.736953735351562 64.82049560546875 6.495796203613281 C 59.33623123168945 4.176155090332031 53.50878524780273 3 47.5 3 M 47.5 0 C 73.7335205078125 0 95 21.2664794921875 95 47.5 C 95 73.7335205078125 73.7335205078125 95 47.5 95 C 21.2664794921875 95 0 73.7335205078125 0 47.5 C 0 21.2664794921875 21.2664794921875 0 47.5 0 Z" stroke="none" fill="#ee70f7"/>
            </g>
          </g>
        </g>
      </g>
      <g id="presupuesto" transform="translate(927.988 9447.991)">
        <path id="Path_986088" data-name="Path 986088" d="M140.232,17.872V52.127c0,.068,0,.137,0,.205a4.423,4.423,0,0,1-4.418,4.216H110.946a4.422,4.422,0,0,1-4.423-4.422V12.467a4.416,4.416,0,0,1,4.423-4.423H130.7a4.408,4.408,0,0,1,1.921.44c1.195.575,1.531,1.3,3.679,3.5,2.47,2.682,3.06,2.957,3.563,4.118A4.374,4.374,0,0,1,140.232,17.872Z" transform="translate(-93.959 -7.132)" fill="#ffc477"/>
        <path id="Path_986089" data-name="Path 986089" d="M166.975,17.871V52.127c0,.068,0,.137,0,.205a4.437,4.437,0,0,1-1,.113H141.108a4.422,4.422,0,0,1-4.423-4.422V8.362c0-.07,0-.138,0-.206a4.443,4.443,0,0,1,1-.113h19.75a4.429,4.429,0,0,1,3.232,1.4l2.368,2.533,2.711,2.836a4.451,4.451,0,0,1,1.227,3.055Z" transform="translate(-120.701 -7.131)" fill="#ffdaaa"/>
        <path id="Path_986090" data-name="Path 986090" d="M279.155,181.146v24.866a6.25,6.25,0,0,1-6.25,6.25H256.664a6.25,6.25,0,0,1-6.25-6.25V181.146a6.247,6.247,0,0,1,6.25-6.25h16.241A6.25,6.25,0,0,1,279.155,181.146Z" transform="translate(-221.535 -155.066)" fill="#4cba68"/>
        <path id="Path_986091" data-name="Path 986091" d="M299.363,181.146v24.866a3.208,3.208,0,0,1-3.666,4.2H279.456a6.25,6.25,0,0,1-6.25-6.25V179.094a6.217,6.217,0,0,1,1.211-3.7,6.224,6.224,0,0,1,2.455-.5h16.241A6.25,6.25,0,0,1,299.363,181.146Z" transform="translate(-241.743 -155.066)" fill="#7ccc92"/>
        <path id="Path_986092" data-name="Path 986092" d="M360.829,366.9v2.92a.934.934,0,0,1-.934.935h-2.922a.935.935,0,0,1-.935-.935V366.9a.935.935,0,0,1,.935-.935H359.9A.934.934,0,0,1,360.829,366.9Z" transform="translate(-315.184 -324.475)" fill="#2c733f"/>
        <path id="Path_986093" data-name="Path 986093" d="M308.448,209.093v3.129a2.015,2.015,0,0,1-2.015,2.015H290.312a2.016,2.016,0,0,1-2.015-2.015v-3.129a2.016,2.016,0,0,1,2.015-2.015h16.121A2.015,2.015,0,0,1,308.448,209.093Z" transform="translate(-255.123 -183.599)" fill="#1e81ce"/>
        <path id="Path_986094" data-name="Path 986094" d="M335.19,209.093v3.129a2.015,2.015,0,0,1-2.015,2.015h-12.7a2.016,2.016,0,0,1-2.015-2.015v-3.129a2.016,2.016,0,0,1,2.015-2.015h12.7A2.015,2.015,0,0,1,335.19,209.093Z" transform="translate(-281.864 -183.599)" fill="#3d9ae2"/>
        <g id="Group_1150119" data-name="Group 1150119" transform="translate(33.174 33.856)">
          <path id="Path_986095" data-name="Path 986095" d="M293.088,366.9v2.92a.935.935,0,0,1-.935.935h-2.922a.935.935,0,0,1-.935-.935V366.9a.935.935,0,0,1,.935-.935h2.922A.934.934,0,0,1,293.088,366.9Z" transform="translate(-288.297 -358.332)" fill="#2c733f"/>
          <path id="Path_986096" data-name="Path 986096" d="M360.829,299.543v2.92a.934.934,0,0,1-.934.935h-2.922a.935.935,0,0,1-.935-.935v-2.92a.935.935,0,0,1,.935-.935H359.9A.934.934,0,0,1,360.829,299.543Z" transform="translate(-348.358 -298.608)" fill="#2c733f"/>
        </g>
        <path id="Path_986097" data-name="Path 986097" d="M429.386,299.543v2.92a.935.935,0,0,1-.935.935h-2.92a.935.935,0,0,1-.935-.935v-2.92a.935.935,0,0,1,.935-.935h2.92A.935.935,0,0,1,429.386,299.543Z" transform="translate(-375.968 -264.752)" fill="#ee8700"/>
        <g id="Group_1150120" data-name="Group 1150120" transform="translate(33.174 33.856)">
          <path id="Path_986098" data-name="Path 986098" d="M293.088,299.543v2.92a.935.935,0,0,1-.935.935h-2.922a.935.935,0,0,1-.935-.935v-2.92a.935.935,0,0,1,.935-.935h2.922A.935.935,0,0,1,293.088,299.543Z" transform="translate(-288.297 -298.608)" fill="#2c733f"/>
          <path id="Path_986099" data-name="Path 986099" d="M360.829,430.965v2.922a.934.934,0,0,1-.934.935h-2.922a.935.935,0,0,1-.935-.935v-2.922a.934.934,0,0,1,.935-.934H359.9A.934.934,0,0,1,360.829,430.965Z" transform="translate(-348.358 -415.13)" fill="#2c733f"/>
          <path id="Path_986100" data-name="Path 986100" d="M293.088,430.965v2.922a.935.935,0,0,1-.935.935h-2.922a.935.935,0,0,1-.935-.935v-2.922a.935.935,0,0,1,.935-.934h2.922A.934.934,0,0,1,293.088,430.965Z" transform="translate(-288.297 -415.13)" fill="#2c733f"/>
        </g>
        <path id="Path_986101" data-name="Path 986101" d="M429.386,367.356v9.07a1.594,1.594,0,0,1-1.594,1.595h-1.6a1.594,1.594,0,0,1-1.594-1.595v-9.07a1.389,1.389,0,0,1,1.388-1.388H428A1.388,1.388,0,0,1,429.386,367.356Z" transform="translate(-375.968 -324.474)" fill="#ee8700"/>
        <g id="Group_1150121" data-name="Group 1150121" transform="translate(33.174 33.856)">
          <path id="Path_986102" data-name="Path 986102" d="M360.829,366.9v.869a.934.934,0,0,1-.934.935h-2.922a.935.935,0,0,1-.935-.935V366.9a.935.935,0,0,1,.935-.935H359.9A.934.934,0,0,1,360.829,366.9Z" transform="translate(-348.358 -358.332)" fill="#317f46"/>
          <path id="Path_986103" data-name="Path 986103" d="M293.088,366.9v.869a.935.935,0,0,1-.935.935h-2.922a.935.935,0,0,1-.935-.935V366.9a.935.935,0,0,1,.935-.935h2.922A.934.934,0,0,1,293.088,366.9Z" transform="translate(-288.297 -358.332)" fill="#317f46"/>
          <path id="Path_986104" data-name="Path 986104" d="M360.829,299.543v.869a.934.934,0,0,1-.934.935h-2.922a.935.935,0,0,1-.935-.935v-.869a.935.935,0,0,1,.935-.935H359.9A.934.934,0,0,1,360.829,299.543Z" transform="translate(-348.358 -298.608)" fill="#317f46"/>
        </g>
        <path id="Path_986105" data-name="Path 986105" d="M429.386,299.543v.869a.935.935,0,0,1-.935.935h-2.92a.935.935,0,0,1-.935-.935v-.869a.935.935,0,0,1,.935-.935h2.92A.935.935,0,0,1,429.386,299.543Z" transform="translate(-375.968 -264.752)" fill="#ff9811"/>
        <g id="Group_1150122" data-name="Group 1150122" transform="translate(33.174 33.856)">
          <path id="Path_986106" data-name="Path 986106" d="M293.088,299.543v.869a.935.935,0,0,1-.935.935h-2.922a.935.935,0,0,1-.935-.935v-.869a.935.935,0,0,1,.935-.935h2.922A.935.935,0,0,1,293.088,299.543Z" transform="translate(-288.297 -298.608)" fill="#317f46"/>
          <path id="Path_986107" data-name="Path 986107" d="M360.829,430.965v.87a.934.934,0,0,1-.934.935h-2.922a.935.935,0,0,1-.935-.935v-.87a.934.934,0,0,1,.935-.934H359.9A.934.934,0,0,1,360.829,430.965Z" transform="translate(-348.358 -415.13)" fill="#317f46"/>
          <path id="Path_986108" data-name="Path 986108" d="M293.088,430.965v.87a.935.935,0,0,1-.935.935h-2.922a.935.935,0,0,1-.935-.935v-.87a.935.935,0,0,1,.935-.934h2.922A.934.934,0,0,1,293.088,430.965Z" transform="translate(-288.297 -415.13)" fill="#317f46"/>
        </g>
        <path id="Path_986109" data-name="Path 986109" d="M429.386,367.356v7.018a1.594,1.594,0,0,1-1.594,1.595h-1.6a1.594,1.594,0,0,1-1.594-1.595v-7.018a1.389,1.389,0,0,1,1.388-1.388H428A1.388,1.388,0,0,1,429.386,367.356Z" transform="translate(-375.968 -324.474)" fill="#ff9811"/>
        <path id="Path_986110" data-name="Path 986110" d="M343.9,19.54h-5.542a1.7,1.7,0,0,1-1.7-1.7V11.924a4.417,4.417,0,0,1,1.311.964l2.368,2.533,2.71,2.837A4.379,4.379,0,0,1,343.9,19.54Z" transform="translate(-298.003 -10.572)" fill="#ffb655"/>
        <path id="Path_986111" data-name="Path 986111" d="M87.056,463.817a2.172,2.172,0,0,1-2.166,2.166H71.622a2.166,2.166,0,0,1,0-4.332H84.89A2.172,2.172,0,0,1,87.056,463.817Z" transform="translate(-61.094 -409.309)" fill="#aa6100"/>
        <path id="Path_986112" data-name="Path 986112" d="M87.056,425.612a2.172,2.172,0,0,1-2.166,2.166H71.622a2.166,2.166,0,0,1,0-4.332H84.89A2.172,2.172,0,0,1,87.056,425.612Z" transform="translate(-61.094 -375.436)" fill="#cc7400"/>
        <path id="Path_986113" data-name="Path 986113" d="M87.056,387.408a2.172,2.172,0,0,1-2.166,2.166H71.622a2.166,2.166,0,0,1,0-4.332H84.89A2.172,2.172,0,0,1,87.056,387.408Z" transform="translate(-61.094 -341.563)" fill="#ee8700"/>
        <path id="Path_986114" data-name="Path 986114" d="M87.056,349.2a2.172,2.172,0,0,1-2.166,2.166H71.622a2.172,2.172,0,0,1-2.166-2.166,2.172,2.172,0,0,1,2.166-2.166H84.89A2.172,2.172,0,0,1,87.056,349.2Z" transform="translate(-61.094 -307.689)" fill="#ff9811"/>
        <path id="Path_986115" data-name="Path 986115" d="M84.89,313.166H71.622A2.172,2.172,0,0,1,69.456,311h0a2.172,2.172,0,0,1,2.166-2.166H84.89A2.172,2.172,0,0,1,87.056,311h0A2.172,2.172,0,0,1,84.89,313.166Z" transform="translate(-61.094 -273.818)" fill="#ffa733"/>
        <path id="Path_986116" data-name="Path 986116" d="M25.5,384.374a7.047,7.047,0,0,0-7.344-6.748H15.395a7.056,7.056,0,0,0,.6,14.1h2.158v0c.2.008.4.01.6,0a7.172,7.172,0,0,0,1.311-.179A7.057,7.057,0,0,0,25.5,384.93v-.008C25.508,384.741,25.508,384.558,25.5,384.374Z" transform="translate(-7.158 -334.804)" fill="#cc7400"/>
        <path id="Path_986117" data-name="Path 986117" d="M72.437,386.373v.008A7.057,7.057,0,0,1,67,393a7.06,7.06,0,0,1-5.432-6.568c0-.016,0-.031,0-.047v-.008A7.059,7.059,0,0,1,67,379.255a7.058,7.058,0,0,1,5.434,6.569C72.444,386.009,72.444,386.191,72.437,386.373Z" transform="translate(-54.094 -336.255)" fill="#ee8700"/>
        <path id="Path_986118" data-name="Path 986118" d="M51.37,18.975H47.186V10.74a5.348,5.348,0,0,0-1.478-3.685L43,4.226c-2.295-2.364-2.584-3.032-3.951-3.7A5.347,5.347,0,0,0,36.737,0H16.987a5.341,5.341,0,0,0-5.335,5.335V34.1H10.528a3.076,3.076,0,0,0-2.184,5.244,3.067,3.067,0,0,0-.894,2.166,3.157,3.157,0,0,0,.06.609,7.758,7.758,0,0,0,1.109,15.47L23.8,57.586a3.076,3.076,0,0,0,2.184-5.243,3.061,3.061,0,0,0,.889-2.013h1.155v.617a7.113,7.113,0,0,0,7.1,7.1H51.37a7.113,7.113,0,0,0,7.1-7.1V26.08A7.113,7.113,0,0,0,51.37,18.975ZM39.57,3.225c3.582,3.786,4.389,4.639,4.54,4.8,0,0,0,0,0,0h0l0,.006h0a.019.019,0,0,0,.007.007l0,0s0,0,0,0,0,0,0,0,0,0,0,0H39.57V3.225Zm-29.042,32.7H23.8a1.254,1.254,0,1,1,0,2.508H10.528a1.254,1.254,0,1,1,0-2.508Zm0,4.332H23.8a1.254,1.254,0,1,1,0,2.508H14.631a7.427,7.427,0,0,0-1.155-.417,7.688,7.688,0,0,0-1.824-.268c-.179,0-.358,0-.537,0h-1.7a1.233,1.233,0,0,1-.14-.573A1.256,1.256,0,0,1,10.528,40.259ZM25.05,45.845A1.255,1.255,0,0,1,23.8,47.1h-5.1a7.671,7.671,0,0,0-1.548-2.508H23.8A1.256,1.256,0,0,1,25.05,45.845ZM6.091,44.208A7.869,7.869,0,0,0,4.655,46.05H3.592A6.023,6.023,0,0,1,6.091,44.208ZM2.622,47.76H3.95A7.873,7.873,0,0,0,3.7,49.126H2.3A5.992,5.992,0,0,1,2.622,47.76Zm.147,4.52a5.982,5.982,0,0,1-.429-1.443H3.734a6.881,6.881,0,0,0,.326,1.443Zm1.138,1.71c.56,0,.885,0,.961,0a7.7,7.7,0,0,0,1.227,1.484A6.025,6.025,0,0,1,3.907,53.989Zm7.781,1.893a6.049,6.049,0,1,1,3.832-10.5A6.044,6.044,0,0,1,11.688,55.883ZM23.8,55.762h-7.36A7.812,7.812,0,0,0,18.4,53.254h5.4a1.254,1.254,0,0,1,0,2.508Zm1.244-5.433a1.254,1.254,0,0,1-1.244,1.1H19.024a7.835,7.835,0,0,0,.111-2.508H23.8A1.255,1.255,0,0,1,25.04,50.329Zm2.984-1.824H26.378a3.026,3.026,0,0,0-.4-.495,3.071,3.071,0,0,0,0-4.332,3.071,3.071,0,0,0,0-4.332A3.08,3.08,0,0,0,23.8,34.1H13.476V5.335a3.515,3.515,0,0,1,3.511-3.511H37.746V8.968a.912.912,0,0,0,.912.912h6.6c.19.739.073.495.108,9.1H35.129a7.113,7.113,0,0,0-7.1,7.1V48.505Zm28.742,2.441a5.4,5.4,0,0,1-5.4,5.4H35.129a5.4,5.4,0,0,1-5.4-5.4V26.08a5.4,5.4,0,0,1,5.4-5.4H51.37a5.4,5.4,0,0,1,5.4,5.4V50.946Z"/>
        <path id="Path_986119" data-name="Path 986119" d="M286.729,206.7h-3.1a1.164,1.164,0,0,1-1.16-1.16v-3.129a1.164,1.164,0,0,1,1.16-1.16h16.121a1.162,1.162,0,0,1,1.16,1.16v3.129a1.162,1.162,0,0,1-1.16,1.16h-9.332a.855.855,0,0,0,0,1.71h9.332a2.873,2.873,0,0,0,2.87-2.87v-3.129a2.873,2.873,0,0,0-2.87-2.87H283.627a2.87,2.87,0,0,0-2.87,2.87v3.129a2.87,2.87,0,0,0,2.87,2.87h3.1a.855.855,0,0,0,0-1.71Z" transform="translate(-248.438 -176.914)"/>
        <path id="Path_986120" data-name="Path 986120" d="M282.547,364.929h2.922a1.791,1.791,0,0,0,1.79-1.79v-2.92a1.791,1.791,0,0,0-1.79-1.79h-2.922a1.792,1.792,0,0,0-1.79,1.79v2.92A1.792,1.792,0,0,0,282.547,364.929Zm-.08-4.71a.08.08,0,0,1,.08-.08h2.922a.08.08,0,0,1,.08.08v2.92a.08.08,0,0,1-.08.08h-2.922a.08.08,0,0,1-.08-.08Z" transform="translate(-248.438 -317.79)"/>
        <path id="Path_986121" data-name="Path 986121" d="M421.766,291.068h-2.92a1.791,1.791,0,0,0-1.79,1.79v2.92a1.791,1.791,0,0,0,1.79,1.79h2.92a1.791,1.791,0,0,0,1.79-1.79v-2.92A1.791,1.791,0,0,0,421.766,291.068Zm.08,4.71a.079.079,0,0,1-.08.08h-2.92a.08.08,0,0,1-.08-.08c.035-2.89-.074-3,.08-3h2.92a.079.079,0,0,1,.08.08Z" transform="translate(-369.283 -258.067)"/>
        <path id="Path_986122" data-name="Path 986122" d="M282.547,297.568h2.922a1.791,1.791,0,0,0,1.79-1.79v-2.92a1.791,1.791,0,0,0-1.79-1.79h-2.922a1.792,1.792,0,0,0-1.79,1.79v2.92A1.792,1.792,0,0,0,282.547,297.568Zm-.08-4.71a.08.08,0,0,1,.08-.08h2.922a.08.08,0,0,1,.08.08v2.92a.08.08,0,0,1-.08.08h-2.922a.08.08,0,0,1-.08-.08Z" transform="translate(-248.438 -258.067)"/>
        <path id="Path_986123" data-name="Path 986123" d="M286.784,423.094a1.789,1.789,0,0,0-1.339-.6h-2.922a1.784,1.784,0,0,0-1.338.6,2.445,2.445,0,0,0-.451,1.824V427.2a1.792,1.792,0,0,0,1.79,1.79h2.922a1.791,1.791,0,0,0,1.79-1.79v-2.283A2.466,2.466,0,0,0,286.784,423.094Zm-1.339,4.187c-2.886-.035-3,.074-3-.08,0-3.093-.034-3,.08-3h2.922c.14,0,.054.195.08.717A12.156,12.156,0,0,1,285.444,427.281Z" transform="translate(-248.414 -374.589)"/>
        <path id="Path_986124" data-name="Path 986124" d="M421.311,358.428H419.3a2.246,2.246,0,0,0-2.243,2.243v9.07a2.452,2.452,0,0,0,2.449,2.45h1.6a2.451,2.451,0,0,0,2.449-2.45v-9.07A2.246,2.246,0,0,0,421.311,358.428Zm.534,11.314a.739.739,0,0,1-.739.74h-1.6a.74.74,0,0,1-.739-.74v-9.07a.534.534,0,0,1,.533-.534h2.013a.534.534,0,0,1,.533.534v9.07Z" transform="translate(-369.282 -317.789)"/>
        <path id="Path_986125" data-name="Path 986125" d="M166.328,173.154h0c-1.042-.383-1.8-.66-1.8-1.625,0-.88.585-1.326,1.737-1.326,1.224,0,1.553.539,1.984.539a.821.821,0,0,0,.729-.842c0-.712-1.162-1.065-2.2-1.159V168.1a.81.81,0,1,0-1.62,0v.745a2.65,2.65,0,0,0-2.2,2.771c0,1.99,1.465,2.54,2.642,2.983,1.153.433,2.063.775,2.063,2.091,0,1.087-.6,1.638-1.794,1.638-1.742,0-1.759-1.176-2.423-1.176a.855.855,0,0,0-.743.842c0,.674,1,1.559,2.456,1.789v.621a.81.81,0,1,0,1.62,0v-.637a2.927,2.927,0,0,0,2.456-3.161C169.238,174.223,167.625,173.631,166.328,173.154Z" transform="translate(-143.772 -148.321)"/>
        <path id="Path_986126" data-name="Path 986126" d="M353.188,422.491h-2.922a1.788,1.788,0,0,0-1.339.6,2.455,2.455,0,0,0-.45,1.824V427.2a1.791,1.791,0,0,0,1.79,1.79h2.922a1.791,1.791,0,0,0,1.788-1.79v-2.922a1.791,1.791,0,0,0-1.788-1.788Zm0,4.79c-2.886-.035-3,.074-3-.08v-2.922a.08.08,0,0,1,.08-.079h2.922a.079.079,0,0,1,.079.079C353.233,427.173,353.34,427.281,353.188,427.281Z" transform="translate(-308.477 -374.589)"/>
        <path id="Path_986127" data-name="Path 986127" d="M353.21,291.068h-2.922a1.791,1.791,0,0,0-1.79,1.79v2.92a1.791,1.791,0,0,0,1.79,1.79h2.922a1.762,1.762,0,0,0,.651-.123A1.792,1.792,0,0,0,355,295.778v-2.92A1.792,1.792,0,0,0,353.21,291.068Zm.079,4.71a.079.079,0,0,1-.079.08h-2.922a.08.08,0,0,1-.08-.08v-2.92c0-.154.106-.046,3-.08a.079.079,0,0,1,.079.08v2.92Z" transform="translate(-308.499 -258.067)"/>
        <path id="Path_986128" data-name="Path 986128" d="M353.861,358.551a1.762,1.762,0,0,0-.651-.123h-2.922a1.791,1.791,0,0,0-1.79,1.79v2.92a1.791,1.791,0,0,0,1.79,1.79h2.922a1.791,1.791,0,0,0,1.788-1.79v-2.92A1.792,1.792,0,0,0,353.861,358.551Zm-.572,4.587a.079.079,0,0,1-.079.08h-2.922a.08.08,0,0,1-.08-.08v-2.92a.08.08,0,0,1,.08-.08h2.922a.079.079,0,0,1,.079.08Z" transform="translate(-308.499 -317.789)"/>
        <path id="Path_986129" data-name="Path 986129" d="M320.9,104.752h2.148a.855.855,0,1,0,0-1.71H320.9a.855.855,0,0,0,0,1.71Z" transform="translate(-283.273 -91.359)"/>
        <path id="Path_986130" data-name="Path 986130" d="M157.025,104.752h15.161a.855.855,0,1,0,0-1.71H157.025a.855.855,0,1,0,0,1.71Z" transform="translate(-137.977 -91.359)"/>
        <path id="Path_986131" data-name="Path 986131" d="M159.742,142.182a.855.855,0,0,0,0-1.71h-2.717a.855.855,0,0,0,0,1.71Z" transform="translate(-137.977 -124.545)"/>
        <path id="Path_986132" data-name="Path 986132" d="M226.6,141.327a.855.855,0,0,0-.855-.855H211.154a.855.855,0,1,0,0,1.71h14.591A.855.855,0,0,0,226.6,141.327Z" transform="translate(-185.968 -124.545)"/>
        <path id="Path_986133" data-name="Path 986133" d="M79.225,401.269c0-.215.079-.277.153-.318a1.469,1.469,0,0,1,1.239.084.978.978,0,0,0,.463.141c.843,0,1.51-1.567-.5-1.913v-.054a.866.866,0,1,0-1.733,0v.164a1.944,1.944,0,0,0-1.321,1.947c0,1.458,1.059,1.856,1.833,2.147.738.277.993.4.993.9,0,.314-.084.6-.7.6-.894,0-.787-.706-1.455-.706a.893.893,0,0,0-.826.886c0,.592.616,1.154,1.475,1.382v.065a.866.866,0,0,0,1.733,0v-.088a2.142,2.142,0,0,0,1.475-2.194C82.051,401.718,79.225,402.108,79.225,401.269Z" transform="translate(-68.11 -353.178)"/>
      </g>
    </g>
  </g>
</svg>
