<svg xmlns="http://www.w3.org/2000/svg" xmlns:xlink="http://www.w3.org/1999/xlink" width="108" height="108" viewBox="0 0 108 108">
  <defs>
    <filter id="Path_982538" x="0" y="0" width="108" height="108" filterUnits="userSpaceOnUse">
      <feOffset dy="3" input="SourceAlpha"/>
      <feGaussianBlur stdDeviation="3" result="blur"/>
      <feFlood flood-opacity="0.161"/>
      <feComposite operator="in" in2="blur"/>
      <feComposite in="SourceGraphic"/>
    </filter>
  </defs>
  <g id="Group_1150261" data-name="Group 1150261" transform="translate(-617 -1356)">
    <g id="Group_1149507" data-name="Group 1149507" transform="translate(416 -2809.12)">
      <g id="Group_1146955" data-name="Group 1146955" transform="translate(0 1196.12)">
        <g transform="matrix(1, 0, 0, 1, 201, 2969)" filter="url(#Path_982538)">
          <g id="Path_982538-2" data-name="Path 982538" transform="translate(9 6)" fill="#f3f3f3">
            <path d="M 45 88.5 C 39.12687683105469 88.5 33.43022537231445 87.35007476806641 28.06830024719238 85.08217620849609 C 22.88852500915527 82.89131164550781 18.23629951477051 79.75458526611328 14.2408504486084 75.75914764404297 C 10.24541282653809 71.76370239257812 7.108687400817871 67.11147308349609 4.917825222015381 61.93170166015625 C 2.649924993515015 56.56977462768555 1.5 50.87312316894531 1.5 45 C 1.5 39.12687683105469 2.649924993515015 33.43022537231445 4.917825222015381 28.06830024719238 C 7.108687400817871 22.88852500915527 10.24541282653809 18.23629951477051 14.2408504486084 14.2408504486084 C 18.23629951477051 10.24541282653809 22.88852500915527 7.108687400817871 28.06830024719238 4.917825222015381 C 33.43022537231445 2.649924993515015 39.12687683105469 1.5 45 1.5 C 50.87312316894531 1.5 56.56977462768555 2.649924993515015 61.93170166015625 4.917825222015381 C 67.11147308349609 7.108687400817871 71.76370239257812 10.24541282653809 75.75914764404297 14.2408504486084 C 79.75458526611328 18.23629951477051 82.89131164550781 22.88852500915527 85.08217620849609 28.06830024719238 C 87.35007476806641 33.43022537231445 88.5 39.12687683105469 88.5 45 C 88.5 50.87312316894531 87.35007476806641 56.56977462768555 85.08217620849609 61.93170166015625 C 82.89131164550781 67.11147308349609 79.75458526611328 71.76370239257812 75.75914764404297 75.75914764404297 C 71.76370239257812 79.75458526611328 67.11147308349609 82.89131164550781 61.93170166015625 85.08217620849609 C 56.56977462768555 87.35007476806641 50.87312316894531 88.5 45 88.5 Z" stroke="none"/>
            <path d="M 45 3 C 39.32871246337891 3 33.82865524291992 4.110054016113281 28.65262985229492 6.299339294433594 C 23.65165710449219 8.414573669433594 19.15968322753906 11.44334411621094 15.301513671875 15.301513671875 C 11.44334411621094 19.15968322753906 8.414573669433594 23.65165710449219 6.299339294433594 28.65262985229492 C 4.110054016113281 33.82865524291992 3 39.32871246337891 3 45 C 3 50.67128753662109 4.110054016113281 56.17134475708008 6.299339294433594 61.34737396240234 C 8.414573669433594 66.34834289550781 11.44334411621094 70.84031677246094 15.301513671875 74.698486328125 C 19.15968322753906 78.55665588378906 23.65165710449219 81.58542633056641 28.65262985229492 83.70066070556641 C 33.82865524291992 85.88994598388672 39.32871246337891 87 45 87 C 50.67128753662109 87 56.17134475708008 85.88994598388672 61.34737396240234 83.70066070556641 C 66.34834289550781 81.58542633056641 70.84031677246094 78.55665588378906 74.698486328125 74.698486328125 C 78.55665588378906 70.84031677246094 81.58542633056641 66.34834289550781 83.70066070556641 61.34737396240234 C 85.88994598388672 56.17134475708008 87 50.67128753662109 87 45 C 87 39.32871246337891 85.88994598388672 33.82865524291992 83.70066070556641 28.65262985229492 C 81.58542633056641 23.65165710449219 78.55665588378906 19.15968322753906 74.698486328125 15.301513671875 C 70.84031677246094 11.44334411621094 66.34834289550781 8.414573669433594 61.34737396240234 6.299339294433594 C 56.17134475708008 4.110054016113281 50.67128753662109 3 45 3 M 45 0 C 69.85281372070312 0 90 20.14718627929688 90 45 C 90 69.85281372070312 69.85281372070312 90 45 90 C 20.14718627929688 90 0 69.85281372070312 0 45 C 0 20.14718627929688 20.14718627929688 0 45 0 Z" stroke="none" fill="#fe9d52"/>
          </g>
        </g>
      </g>
    </g>
    <g id="big-data_1_" data-name="big-data (1)" transform="translate(643.36 1381.361)">
      <g id="Group_1150260" data-name="Group 1150260" transform="translate(5.057 5.172)">
        <path id="Path_986952" data-name="Path 986952" d="M6.936,42.693,5.721,41.478,9.4,37.8V33h1.719v5.156a.859.859,0,0,1-.252.607Z" transform="translate(-5.721 -9.673)" fill="#e5e5e5"/>
        <path id="Path_986953" data-name="Path 986953" d="M56.027,42.539l-3.775-3.775A.859.859,0,0,1,52,38.156V33h1.719v4.8l3.523,3.523Z" transform="translate(-12.229 -9.673)" fill="#e5e5e5"/>
        <path id="Path_986954" data-name="Path 986954" d="M53.719,15.433H52V10.276a.859.859,0,0,1,.252-.607l3.813-3.814,1.216,1.216-3.562,3.561Z" transform="translate(-12.229 -5.855)" fill="#e5e5e5"/>
        <path id="Path_986955" data-name="Path 986955" d="M11.148,15.445H9.429v-4.8L5.941,7.156,7.156,5.941l3.74,3.74a.859.859,0,0,1,.252.608Z" transform="translate(-5.752 -5.867)" fill="#e5e5e5"/>
        <path id="Path_986956" data-name="Path 986956" d="M50.668,48.275,48.09,43.118a.859.859,0,0,1-.09-.384V35h1.719v7.531l2.492,4.975Z" transform="translate(-11.667 -9.954)" fill="#e5e5e5"/>
        <path id="Path_986957" data-name="Path 986957" d="M12.722,48.138l-1.537-.768L13.6,42.531V35h1.719v7.734a.859.859,0,0,1-.09.384Z" transform="translate(-6.489 -9.954)" fill="#e5e5e5"/>
      </g>
      <path id="Path_986958" data-name="Path 986958" d="M19,50v6.875c0,1.9,5,3.437,11.172,3.437s11.172-1.539,11.172-3.437V50" transform="translate(-2.531 -6.891)" fill="#3b5892"/>
      <ellipse id="Ellipse_11672" data-name="Ellipse 11672" cx="11" cy="3.5" rx="11" ry="3.5" transform="translate(16.64 39.639)" fill="#5e87ca"/>
      <path id="Path_986959" data-name="Path 986959" d="M31,57h1.719v1.719H31Z" transform="translate(-4.219 -7.876)" fill="#213d68"/>
      <path id="Path_986960" data-name="Path 986960" d="M37,56h1.719v1.719H37Z" transform="translate(-5.063 -7.735)" fill="#213d68"/>
      <path id="Path_986961" data-name="Path 986961" d="M25,56h1.719v1.719H25Z" transform="translate(-3.375 -7.735)" fill="#213d68"/>
      <path id="Path_986962" data-name="Path 986962" d="M15.451,31.219H41.232a9.453,9.453,0,0,0,.814-18.865c.028-.3.046-.6.046-.9a9.444,9.444,0,0,0-16.5-6.284,9.417,9.417,0,0,0-12.6,7.476,9.448,9.448,0,0,0,2.464,18.573Z" transform="translate(-0.702 -0.141)" fill="#c0dafc"/>
      <path id="Path_986963" data-name="Path 986963" d="M37.113,14.234c.034-.344.053-.7.053-1.056A11.086,11.086,0,0,0,29.5,2.633a9.491,9.491,0,0,0-3.908,2.625,9.417,9.417,0,0,0-12.6,7.476,9.448,9.448,0,0,0,2.464,18.573H41.232a9.4,9.4,0,0,0,5.016-1.451,11.067,11.067,0,0,0-9.135-15.622Z" transform="translate(-0.702 -0.23)" fill="#d2e8ff"/>
      <path id="Path_986964" data-name="Path 986964" d="M19,36v6.875c0,1.9,5,3.437,11.172,3.437s11.172-1.539,11.172-3.437V36" transform="translate(-2.531 -4.922)" fill="#4c6cb5"/>
      <ellipse id="Ellipse_11673" data-name="Ellipse 11673" cx="11" cy="3.5" rx="11" ry="3.5" transform="translate(16.64 27.639)" fill="#78a0d4"/>
      <path id="Path_986965" data-name="Path 986965" d="M31,43h1.719v1.719H31Z" transform="translate(-4.219 -5.907)" fill="#3b5892"/>
      <path id="Path_986966" data-name="Path 986966" d="M37,42h1.719v1.719H37Z" transform="translate(-5.063 -5.766)" fill="#3b5892"/>
      <path id="Path_986967" data-name="Path 986967" d="M25,42h1.719v1.719H25Z" transform="translate(-3.375 -5.766)" fill="#3b5892"/>
      <path id="Path_986968" data-name="Path 986968" d="M28.875,12V25.75L22,20.594h3.437V12Z" transform="translate(-2.953 -1.547)" fill="#78a0d4"/>
      <path id="Path_986969" data-name="Path 986969" d="M34,25.75V12l6.875,5.156H37.437V25.75Z" transform="translate(-4.641 -1.547)" fill="#78a0d4"/>
      <circle id="Ellipse_11674" data-name="Ellipse 11674" cx="2.5" cy="2.5" r="2.5" transform="translate(1.64 36.639)" fill="#b52f28"/>
      <circle id="Ellipse_11675" data-name="Ellipse 11675" cx="2.5" cy="2.5" r="2.5" transform="translate(48.64 36.639)" fill="#f0ae42"/>
      <ellipse id="Ellipse_11676" data-name="Ellipse 11676" cx="3" cy="2.5" rx="3" ry="2.5" transform="translate(42.64 42.639)" fill="#b52f28"/>
      <circle id="Ellipse_11677" data-name="Ellipse 11677" cx="2.5" cy="2.5" r="2.5" transform="translate(48.64 1.639)" fill="#f0ae42"/>
      <path id="Path_986970" data-name="Path 986970" d="M56,4.578a2.568,2.568,0,0,0,1.053,2.068,2.545,2.545,0,0,0,.666.1A2.571,2.571,0,0,0,59.244,2.1a2.545,2.545,0,0,0-.666-.1A2.578,2.578,0,0,0,56,4.578Z" transform="translate(-7.735 -0.141)" fill="#f9d266"/>
      <circle id="Ellipse_11678" data-name="Ellipse 11678" cx="2.5" cy="2.5" r="2.5" transform="translate(1.64 1.639)" fill="#f0ae42"/>
      <ellipse id="Ellipse_11679" data-name="Ellipse 11679" cx="3" cy="2.5" rx="3" ry="2.5" transform="translate(6.64 42.639)" fill="#f0ae42"/>
      <path id="Path_986971" data-name="Path 986971" d="M2,4.578A2.568,2.568,0,0,0,3.053,6.647a2.545,2.545,0,0,0,.666.1A2.571,2.571,0,0,0,5.244,2.1,2.545,2.545,0,0,0,4.578,2,2.578,2.578,0,0,0,2,4.578Z" transform="translate(-0.141 -0.141)" fill="#f9d266"/>
      <path id="Path_986972" data-name="Path 986972" d="M2,44.578a2.568,2.568,0,0,0,1.053,2.068,2.545,2.545,0,0,0,.666.1A2.571,2.571,0,0,0,5.244,42.1a2.546,2.546,0,0,0-.666-.1A2.578,2.578,0,0,0,2,44.578Z" transform="translate(-0.141 -5.766)" fill="#d23f34"/>
      <path id="Path_986973" data-name="Path 986973" d="M8,51.578a2.568,2.568,0,0,0,1.053,2.068,2.545,2.545,0,0,0,.666.1A2.571,2.571,0,0,0,11.244,49.1a2.546,2.546,0,0,0-.666-.1A2.578,2.578,0,0,0,8,51.578Z" transform="translate(-0.984 -6.751)" fill="#f9d266"/>
      <path id="Path_986974" data-name="Path 986974" d="M50,51.578a2.568,2.568,0,0,0,1.053,2.068,2.545,2.545,0,0,0,.666.1A2.571,2.571,0,0,0,53.244,49.1a2.546,2.546,0,0,0-.666-.1A2.578,2.578,0,0,0,50,51.578Z" transform="translate(-6.891 -6.751)" fill="#d23f34"/>
      <path id="Path_986975" data-name="Path 986975" d="M56,44.578a2.568,2.568,0,0,0,1.053,2.068,2.546,2.546,0,0,0,.666.1A2.571,2.571,0,0,0,59.244,42.1a2.546,2.546,0,0,0-.666-.1A2.578,2.578,0,0,0,56,44.578Z" transform="translate(-7.735 -5.766)" fill="#f9d266"/>
      <path id="Path_986976" data-name="Path 986976" d="M31,43h1.719v1.719H31Z" transform="translate(-4.219 -5.907)"/>
      <path id="Path_986977" data-name="Path 986977" d="M37,42h1.719v1.719H37Z" transform="translate(-5.063 -5.766)"/>
      <path id="Path_986978" data-name="Path 986978" d="M25,42h1.719v1.719H25Z" transform="translate(-3.375 -5.766)"/>
      <path id="Path_986979" data-name="Path 986979" d="M31,57h1.719v1.719H31Z" transform="translate(-4.219 -7.876)"/>
      <path id="Path_986980" data-name="Path 986980" d="M37,56h1.719v1.719H37Z" transform="translate(-5.063 -7.735)"/>
      <path id="Path_986981" data-name="Path 986981" d="M25,56h1.719v1.719H25Z" transform="translate(-3.375 -7.735)"/>
      <path id="Path_986982" data-name="Path 986982" d="M28.734,11H25.3a.859.859,0,0,0-.859.859v7.734H21.859a.859.859,0,0,0-.516,1.547L28.219,26.3a.859.859,0,0,0,1.375-.687V11.859A.859.859,0,0,0,28.734,11Zm-.859,12.89-3.437-2.578H25.3a.859.859,0,0,0,.859-.859V12.719h1.719Z" transform="translate(-2.813 -1.406)"/>
      <path id="Path_986983" data-name="Path 986983" d="M34.375,11.172A.859.859,0,0,0,33,11.859v13.75a.859.859,0,0,0,.859.859H37.3a.859.859,0,0,0,.859-.859V17.875h2.578a.859.859,0,0,0,.516-1.547ZM37.3,16.156a.859.859,0,0,0-.859.859V24.75H34.719V13.578l3.437,2.578Z" transform="translate(-4.5 -1.406)"/>
      <path id="Path_986984" data-name="Path 986984" d="M50.843,35.375a3.392,3.392,0,0,0-1.735.487L46.546,33.3V29.984a10.264,10.264,0,0,0,0-16.7V9.949l2.562-2.562a3.392,3.392,0,0,0,1.735.487,3.437,3.437,0,1,0-3.437-3.437,3.392,3.392,0,0,0,.487,1.735L45.079,8.986a.859.859,0,0,0-.252.608v2.672a10.166,10.166,0,0,0-2.578-.8v-.15A10.3,10.3,0,0,0,24.642,4.038a10.208,10.208,0,0,0-3.017-.46,10.366,10.366,0,0,0-10.1,8.259,10.4,10.4,0,0,0-1.076.43V9.594a.859.859,0,0,0-.252-.607L7.388,6.172a3.392,3.392,0,0,0,.487-1.735A3.437,3.437,0,1,0,4.437,7.875a3.392,3.392,0,0,0,1.735-.487L8.734,9.949v3.314a10.281,10.281,0,0,0,0,16.721V33.3L6.173,35.862a3.392,3.392,0,0,0-1.735-.487,3.437,3.437,0,1,0,3.437,3.437,3.392,3.392,0,0,0-.487-1.735L10.2,34.263a.859.859,0,0,0,.252-.608V30.992a10.227,10.227,0,0,0,1.719.61v6.152l-1.86,3.718a3.492,3.492,0,1,0,1.531.777L13.8,38.337a.859.859,0,0,0,.086-.384V31.893c.284.024.569.044.859.044h.859v6.016c0,1.045.833,1.9,2.182,2.573-1.425.7-2.182,1.577-2.182,2.583v6.875c0,2.821,6.053,4.3,12.031,4.3s12.031-1.476,12.031-4.3V43.109c0-1.006-.757-1.879-2.182-2.583,1.349-.669,2.182-1.528,2.182-2.573V31.937h.859c.29,0,.575-.02.859-.044v6.059a.859.859,0,0,0,.086.384l1.961,3.913a3.388,3.388,0,1,0,1.531-.781l-1.86-3.718V31.593a10.226,10.226,0,0,0,1.719-.61v2.673a.859.859,0,0,0,.252.607l2.814,2.814a3.392,3.392,0,0,0-.487,1.735,3.437,3.437,0,1,0,3.437-3.437Zm0-32.656a1.719,1.719,0,1,1-1.719,1.719A1.719,1.719,0,0,1,50.843,2.719ZM2.719,4.437A1.719,1.719,0,1,1,4.437,6.156,1.719,1.719,0,0,1,2.719,4.437ZM4.437,40.531a1.719,1.719,0,1,1,1.719-1.719A1.719,1.719,0,0,1,4.437,40.531Zm5.156,6.016a1.719,1.719,0,1,1,1.719-1.719A1.719,1.719,0,0,1,9.594,46.546Zm37.812-1.719a1.719,1.719,0,1,1-1.719-1.719A1.719,1.719,0,0,1,47.406,44.828ZM27.64,52.562c-6.4,0-10.312-1.669-10.312-2.578V45.429c2.22,1.3,6.279,1.977,10.312,1.977s8.093-.675,10.312-1.977v4.555C37.953,50.893,34.037,52.562,27.64,52.562Zm10.312-9.453c0,.909-3.915,2.578-10.312,2.578s-10.312-1.669-10.312-2.578c0-.335.816-1.079,2.957-1.691a30.431,30.431,0,0,0,7.355.832A30.431,30.431,0,0,0,35,41.418C37.136,42.03,37.953,42.774,37.953,43.109ZM27.64,40.531c-6.4,0-10.312-1.669-10.312-2.578V33.4c2.22,1.3,6.279,1.977,10.312,1.977S35.733,34.7,37.953,33.4v4.555C37.953,38.862,34.037,40.531,27.64,40.531ZM17.328,31.078c0-.909,3.915-2.578,10.312-2.578s10.312,1.669,10.312,2.578-3.915,2.578-10.312,2.578S17.328,31.987,17.328,31.078Zm22.129-.859c-1.1-2.258-6.48-3.437-11.816-3.437S16.922,27.96,15.824,30.218H14.75a8.588,8.588,0,0,1-2.241-16.881.859.859,0,0,0,.626-.7A8.631,8.631,0,0,1,21.625,5.3a8.545,8.545,0,0,1,2.967.538A.859.859,0,0,0,25.53,5.6a8.584,8.584,0,0,1,15,5.711c0,.277-.016.549-.041.82a.859.859,0,0,0,.782.937,8.594,8.594,0,0,1-.741,17.149ZM50.843,40.531a1.719,1.719,0,1,1,1.719-1.719A1.719,1.719,0,0,1,50.843,40.531Z" transform="translate(0 0)"/>
    </g>
  </g>
</svg>
