<svg xmlns="http://www.w3.org/2000/svg" xmlns:xlink="http://www.w3.org/1999/xlink" width="113" height="113" viewBox="0 0 113 113">
  <defs>
    <filter id="Path_982547" x="0" y="0" width="113" height="113" filterUnits="userSpaceOnUse">
      <feOffset dy="3" input="SourceAlpha"/>
      <feGaussianBlur stdDeviation="3" result="blur"/>
      <feFlood flood-opacity="0.161"/>
      <feComposite operator="in" in2="blur"/>
      <feComposite in="SourceGraphic"/>
    </filter>
  </defs>
  <g id="Group_1150774" data-name="Group 1150774" transform="translate(-901 -4325.106)">
    <g id="Group_1149608" data-name="Group 1149608" transform="translate(0 -66.362)">
      <g id="Group_1148891" data-name="Group 1148891" transform="translate(157 687.291)">
        <g id="Group_1147087" data-name="Group 1147087" transform="translate(753 3710.178)">
          <g transform="matrix(1, 0, 0, 1, -9, -6)" filter="url(#Path_982547)">
            <g id="Path_982547-2" data-name="Path 982547" transform="translate(9 6)" fill="#fdeffe">
              <path d="M 47.5 93.5 C 41.28937149047852 93.5 35.26533508300781 92.28397369384766 29.59518623352051 89.88570404052734 C 24.11771965026855 87.56893157958984 19.19813346862793 84.25196075439453 14.97309303283691 80.02691650390625 C 10.74804019927979 75.80186462402344 7.431066513061523 70.88229370117188 5.114293098449707 65.40481567382812 C 2.716026782989502 59.73468017578125 1.5 53.71062850952148 1.5 47.5 C 1.5 41.28937149047852 2.716026782989502 35.26533508300781 5.114293098449707 29.59518623352051 C 7.431066513061523 24.11771965026855 10.74804019927979 19.19813346862793 14.97309303283691 14.97309303283691 C 19.19813346862793 10.74804019927979 24.11771965026855 7.431066513061523 29.59518623352051 5.114293098449707 C 35.26533508300781 2.716026782989502 41.28937149047852 1.5 47.5 1.5 C 53.71062850952148 1.5 59.73468017578125 2.716026782989502 65.40481567382812 5.114293098449707 C 70.88229370117188 7.431066513061523 75.80186462402344 10.74804019927979 80.02691650390625 14.97309303283691 C 84.25196075439453 19.19813346862793 87.56893157958984 24.11771965026855 89.88570404052734 29.59518623352051 C 92.28397369384766 35.26533508300781 93.5 41.28937149047852 93.5 47.5 C 93.5 53.71062850952148 92.28397369384766 59.73468017578125 89.88570404052734 65.40481567382812 C 87.56893157958984 70.88229370117188 84.25196075439453 75.80186462402344 80.02691650390625 80.02691650390625 C 75.80186462402344 84.25196075439453 70.88229370117188 87.56893157958984 65.40481567382812 89.88570404052734 C 59.73468017578125 92.28397369384766 53.71062850952148 93.5 47.5 93.5 Z" stroke="none"/>
              <path d="M 47.5 3 C 41.49121475219727 3 35.66376876831055 4.176155090332031 30.17950439453125 6.495796203613281 C 24.88084411621094 8.736953735351562 20.12152099609375 11.94598388671875 16.03375244140625 16.03375244140625 C 11.94598388671875 20.12152099609375 8.736953735351562 24.88084411621094 6.495796203613281 30.17950439453125 C 4.176155090332031 35.66376876831055 3 41.49121475219727 3 47.5 C 3 53.50878524780273 4.176155090332031 59.33623123168945 6.495796203613281 64.82049560546875 C 8.736953735351562 70.11915588378906 11.94598388671875 74.87847900390625 16.03375244140625 78.96624755859375 C 20.12152099609375 83.05401611328125 24.88084411621094 86.26304626464844 30.17950439453125 88.50419616699219 C 35.66376876831055 90.82384490966797 41.49121475219727 92 47.5 92 C 53.50878524780273 92 59.33623123168945 90.82384490966797 64.82049560546875 88.50419616699219 C 70.11915588378906 86.26304626464844 74.87847900390625 83.05401611328125 78.96624755859375 78.96624755859375 C 83.05401611328125 74.87847900390625 86.26304626464844 70.11915588378906 88.50419616699219 64.82049560546875 C 90.82384490966797 59.33623123168945 92 53.50878524780273 92 47.5 C 92 41.49121475219727 90.82384490966797 35.66376876831055 88.50419616699219 30.17950439453125 C 86.26304626464844 24.88084411621094 83.05401611328125 20.12152099609375 78.96624755859375 16.03375244140625 C 74.87847900390625 11.94598388671875 70.11915588378906 8.736953735351562 64.82049560546875 6.495796203613281 C 59.33623123168945 4.176155090332031 53.50878524780273 3 47.5 3 M 47.5 0 C 73.7335205078125 0 95 21.2664794921875 95 47.5 C 95 73.7335205078125 73.7335205078125 95 47.5 95 C 21.2664794921875 95 0 73.7335205078125 0 47.5 C 0 21.2664794921875 21.2664794921875 0 47.5 0 Z" stroke="none" fill="#ee70f7"/>
            </g>
          </g>
        </g>
      </g>
      <g id="Filled_outline" data-name="Filled outline" transform="translate(926.978 4412.978)">
        <rect id="Rectangle_407876" data-name="Rectangle 407876" width="56" height="19" transform="translate(3.023 40.023)" fill="#cdeef6"/>
        <rect id="Rectangle_407877" data-name="Rectangle 407877" width="44" height="27" transform="translate(9.023 3.023)" fill="#f3bb59"/>
        <ellipse id="Ellipse_11669" data-name="Ellipse 11669" cx="3.5" cy="4" rx="3.5" ry="4" transform="translate(14.023 7.023)" fill="#e97131"/>
        <path id="Path_985529" data-name="Path 985529" d="M14.935,19h5.8a1.935,1.935,0,0,1,1.935,1.935v5.8H13v-5.8A1.935,1.935,0,0,1,14.935,19Z" transform="translate(-0.358 -0.554)" fill="#e97131"/>
        <rect id="Rectangle_407878" data-name="Rectangle 407878" width="23" height="4" transform="translate(26.023 7.023)" fill="#fff"/>
        <rect id="Rectangle_407879" data-name="Rectangle 407879" width="20" height="2" transform="translate(25.023 14.023)" fill="#3b73a5"/>
        <rect id="Rectangle_407880" data-name="Rectangle 407880" width="12" height="2" transform="translate(25.023 17.023)" fill="#3b73a5"/>
        <rect id="Rectangle_407881" data-name="Rectangle 407881" width="2" height="2" transform="translate(39.023 17.023)" fill="#3b73a5"/>
        <rect id="Rectangle_407882" data-name="Rectangle 407882" width="2" height="4" transform="translate(25.023 23.023)" fill="#3b73a5"/>
        <rect id="Rectangle_407883" data-name="Rectangle 407883" width="2" height="4" transform="translate(35.023 23.023)" fill="#3b73a5"/>
        <rect id="Rectangle_407884" data-name="Rectangle 407884" width="2" height="4" transform="translate(31.023 23.023)" fill="#3b73a5"/>
        <rect id="Rectangle_407885" data-name="Rectangle 407885" width="2" height="4" transform="translate(39.023 23.023)" fill="#3b73a5"/>
        <rect id="Rectangle_407886" data-name="Rectangle 407886" width="1" height="4" transform="translate(45.023 23.023)" fill="#3b73a5"/>
        <rect id="Rectangle_407887" data-name="Rectangle 407887" width="2" height="4" transform="translate(48.023 23.023)" fill="#3b73a5"/>
        <rect id="Rectangle_407888" data-name="Rectangle 407888" width="44" height="13" transform="translate(9.023 36.023)" fill="#6caade"/>
        <rect id="Rectangle_407889" data-name="Rectangle 407889" width="44" height="9" transform="translate(9.023 40.023)" fill="#3b73a5"/>
        <rect id="Rectangle_407890" data-name="Rectangle 407890" width="44" height="5" transform="translate(9.023 44.023)" fill="#6caade"/>
        <rect id="Rectangle_407891" data-name="Rectangle 407891" width="2" height="2" transform="translate(6.023 54.023)" fill="#6caade"/>
        <rect id="Rectangle_407892" data-name="Rectangle 407892" width="2" height="2" transform="translate(10.023 54.023)" fill="#6caade"/>
        <rect id="Rectangle_407893" data-name="Rectangle 407893" width="2" height="2" transform="translate(54.023 54.023)" fill="#6caade"/>
        <rect id="Rectangle_407894" data-name="Rectangle 407894" width="2" height="2" transform="translate(50.023 54.023)" fill="#6caade"/>
        <path id="Path_985530" data-name="Path 985530" d="M54.436,2H8V31.022H54.436ZM52.5,29.088H9.935V3.935H52.5Z" transform="translate(-0.196)"/>
        <path id="Path_985531" data-name="Path 985531" d="M17.837,15.674A4.837,4.837,0,1,0,13,10.837a4.837,4.837,0,0,0,4.837,4.837Zm0-7.739a2.9,2.9,0,1,1-2.9,2.9A2.9,2.9,0,0,1,17.837,7.935Z" transform="translate(-0.358 -0.13)"/>
        <path id="Path_985532" data-name="Path 985532" d="M23.609,20.9a2.9,2.9,0,0,0-2.9-2.9H14.9A2.9,2.9,0,0,0,12,20.9v6.772H23.609Zm-1.935,4.837H13.935V20.9a.967.967,0,0,1,.967-.967h5.8a.967.967,0,0,1,.967.967Z" transform="translate(-0.326 -0.521)"/>
        <path id="Path_985533" data-name="Path 985533" d="M51.153,6H26v5.8H51.153ZM49.218,9.87H27.935V7.935H49.218Z" transform="translate(-0.782 -0.13)"/>
        <rect id="Rectangle_407895" data-name="Rectangle 407895" width="20" height="2" transform="translate(25.023 14.023)"/>
        <rect id="Rectangle_407896" data-name="Rectangle 407896" width="12" height="2" transform="translate(25.023 17.023)"/>
        <rect id="Rectangle_407897" data-name="Rectangle 407897" width="2" height="2" transform="translate(39.023 17.023)"/>
        <rect id="Rectangle_407898" data-name="Rectangle 407898" width="2" height="4" transform="translate(25.023 23.023)"/>
        <rect id="Rectangle_407899" data-name="Rectangle 407899" width="2" height="4" transform="translate(35.023 23.023)"/>
        <rect id="Rectangle_407900" data-name="Rectangle 407900" width="2" height="4" transform="translate(31.023 23.023)"/>
        <rect id="Rectangle_407901" data-name="Rectangle 407901" width="2" height="4" transform="translate(39.023 23.023)"/>
        <rect id="Rectangle_407902" data-name="Rectangle 407902" width="1" height="4" transform="translate(45.023 23.023)"/>
        <rect id="Rectangle_407903" data-name="Rectangle 407903" width="2" height="4" transform="translate(48.023 23.023)"/>
        <path id="Path_985534" data-name="Path 985534" d="M54.24,36H7.8v3.87H2V61.153H60.045V39.87h-5.8Zm-44.5,1.935H52.306v5.8H9.739Zm0,7.739H52.306v3.87H9.739ZM58.11,59.218H3.935V41.8H7.8v9.674H54.24V41.8h3.87Z" transform="translate(0 -1.108)"/>
        <rect id="Rectangle_407904" data-name="Rectangle 407904" width="2" height="2" transform="translate(6.023 54.023)"/>
        <rect id="Rectangle_407905" data-name="Rectangle 407905" width="2" height="2" transform="translate(10.023 54.023)"/>
        <rect id="Rectangle_407906" data-name="Rectangle 407906" width="2" height="2" transform="translate(54.023 54.023)"/>
        <rect id="Rectangle_407907" data-name="Rectangle 407907" width="2" height="2" transform="translate(50.023 54.023)"/>
      </g>
    </g>
  </g>
</svg>
