<svg xmlns="http://www.w3.org/2000/svg" xmlns:xlink="http://www.w3.org/1999/xlink" width="113" height="113" viewBox="0 0 113 113">
  <defs>
    <filter id="Path_982547" x="0" y="0" width="113" height="113" filterUnits="userSpaceOnUse">
      <feOffset dy="3" input="SourceAlpha"/>
      <feGaussianBlur stdDeviation="3" result="blur"/>
      <feFlood flood-opacity="0.161"/>
      <feComposite operator="in" in2="blur"/>
      <feComposite in="SourceGraphic"/>
    </filter>
  </defs>
  <g id="Group_1150781" data-name="Group 1150781" transform="translate(-1216 -9357.154)">
    <g id="Group_1150137" data-name="Group 1150137" transform="translate(0 -66.362)">
      <g id="Group_1148963" data-name="Group 1148963" transform="translate(472 5719.339)">
        <g id="Group_1147087" data-name="Group 1147087" transform="translate(753 3710.178)">
          <g transform="matrix(1, 0, 0, 1, -9, -6)" filter="url(#Path_982547)">
            <g id="Path_982547-2" data-name="Path 982547" transform="translate(9 6)" fill="#fdeffe">
              <path d="M 47.5 93.5 C 41.28937149047852 93.5 35.26533508300781 92.28397369384766 29.59518623352051 89.88570404052734 C 24.11771965026855 87.56893157958984 19.19813346862793 84.25196075439453 14.97309303283691 80.02691650390625 C 10.74804019927979 75.80186462402344 7.431066513061523 70.88229370117188 5.114293098449707 65.40481567382812 C 2.716026782989502 59.73468017578125 1.5 53.71062850952148 1.5 47.5 C 1.5 41.28937149047852 2.716026782989502 35.26533508300781 5.114293098449707 29.59518623352051 C 7.431066513061523 24.11771965026855 10.74804019927979 19.19813346862793 14.97309303283691 14.97309303283691 C 19.19813346862793 10.74804019927979 24.11771965026855 7.431066513061523 29.59518623352051 5.114293098449707 C 35.26533508300781 2.716026782989502 41.28937149047852 1.5 47.5 1.5 C 53.71062850952148 1.5 59.73468017578125 2.716026782989502 65.40481567382812 5.114293098449707 C 70.88229370117188 7.431066513061523 75.80186462402344 10.74804019927979 80.02691650390625 14.97309303283691 C 84.25196075439453 19.19813346862793 87.56893157958984 24.11771965026855 89.88570404052734 29.59518623352051 C 92.28397369384766 35.26533508300781 93.5 41.28937149047852 93.5 47.5 C 93.5 53.71062850952148 92.28397369384766 59.73468017578125 89.88570404052734 65.40481567382812 C 87.56893157958984 70.88229370117188 84.25196075439453 75.80186462402344 80.02691650390625 80.02691650390625 C 75.80186462402344 84.25196075439453 70.88229370117188 87.56893157958984 65.40481567382812 89.88570404052734 C 59.73468017578125 92.28397369384766 53.71062850952148 93.5 47.5 93.5 Z" stroke="none"/>
              <path d="M 47.5 3 C 41.49121475219727 3 35.66376876831055 4.176155090332031 30.17950439453125 6.495796203613281 C 24.88084411621094 8.736953735351562 20.12152099609375 11.94598388671875 16.03375244140625 16.03375244140625 C 11.94598388671875 20.12152099609375 8.736953735351562 24.88084411621094 6.495796203613281 30.17950439453125 C 4.176155090332031 35.66376876831055 3 41.49121475219727 3 47.5 C 3 53.50878524780273 4.176155090332031 59.33623123168945 6.495796203613281 64.82049560546875 C 8.736953735351562 70.11915588378906 11.94598388671875 74.87847900390625 16.03375244140625 78.96624755859375 C 20.12152099609375 83.05401611328125 24.88084411621094 86.26304626464844 30.17950439453125 88.50419616699219 C 35.66376876831055 90.82384490966797 41.49121475219727 92 47.5 92 C 53.50878524780273 92 59.33623123168945 90.82384490966797 64.82049560546875 88.50419616699219 C 70.11915588378906 86.26304626464844 74.87847900390625 83.05401611328125 78.96624755859375 78.96624755859375 C 83.05401611328125 74.87847900390625 86.26304626464844 70.11915588378906 88.50419616699219 64.82049560546875 C 90.82384490966797 59.33623123168945 92 53.50878524780273 92 47.5 C 92 41.49121475219727 90.82384490966797 35.66376876831055 88.50419616699219 30.17950439453125 C 86.26304626464844 24.88084411621094 83.05401611328125 20.12152099609375 78.96624755859375 16.03375244140625 C 74.87847900390625 11.94598388671875 70.11915588378906 8.736953735351562 64.82049560546875 6.495796203613281 C 59.33623123168945 4.176155090332031 53.50878524780273 3 47.5 3 M 47.5 0 C 73.7335205078125 0 95 21.2664794921875 95 47.5 C 95 73.7335205078125 73.7335205078125 95 47.5 95 C 21.2664794921875 95 0 73.7335205078125 0 47.5 C 0 21.2664794921875 21.2664794921875 0 47.5 0 Z" stroke="none" fill="#ee70f7"/>
            </g>
          </g>
        </g>
      </g>
      <g id="saludable" transform="translate(1243.112 9436.709)">
        <g id="Group_1150135" data-name="Group 1150135" transform="translate(0.861 13.196)">
          <g id="Group_1150134" data-name="Group 1150134" transform="translate(0 0)">
            <g id="Group_1150127" data-name="Group 1150127" transform="translate(0 35.765)">
              <g id="Group_1150126" data-name="Group 1150126" transform="translate(5.47)">
                <g id="Group_1150124" data-name="Group 1150124" transform="translate(8.376)">
                  <path id="Path_986134" data-name="Path 986134" d="M139.9,341.956H128.112v-9.17a1.408,1.408,0,0,1,1.406-1.406A4.618,4.618,0,0,1,134.134,336v.2Z" transform="translate(-128.112 -331.38)" fill="#fdb0a0"/>
                </g>
                <g id="Group_1150125" data-name="Group 1150125">
                  <path id="Path_986135" data-name="Path 986135" d="M66.935,341.956H58.569l-3.42-3.42v-5.751a1.408,1.408,0,0,1,1.406-1.406A4.618,4.618,0,0,1,61.171,336v.2Z" transform="translate(-55.149 -331.38)" fill="#ffcec0"/>
                </g>
              </g>
              <path id="Path_986136" data-name="Path 986136" d="M47.2,341.608a2.819,2.819,0,0,1-2.489-1,5.984,5.984,0,0,0-4.573-2.124h-1.3a7.21,7.21,0,0,1-5.1-2.112l-3.992-3.992a3.4,3.4,0,0,0-4.812,0,2.324,2.324,0,0,0,0,3.287l4.619,4.619a4.525,4.525,0,0,1,1.06,1.674H19.286L13.523,336.2V336a4.617,4.617,0,0,0-4.617-4.617A1.406,1.406,0,0,0,7.5,332.791v4.743a2.429,2.429,0,0,0,.711,1.717l9.465,9.465a3.84,3.84,0,0,0,2.715,1.125H64.553V339.516Z" transform="translate(-7.5 -331.384)" fill="#ffdfd0"/>
              <path id="Path_986137" data-name="Path 986137" d="M470.577,402.686v9.856h3.894V402.216Z" transform="translate(-417.418 -394.084)" fill="#ffcec0"/>
            </g>
            <g id="Group_1150133" data-name="Group 1150133" transform="translate(8.337)">
              <g id="Group_1150128" data-name="Group 1150128">
                <path id="Path_986138" data-name="Path 986138" d="M117.106,23.224a11.6,11.6,0,0,0-16.406,0l-.386.386-.386-.386A11.6,11.6,0,0,0,83.522,39.629L99.3,55.4a1.44,1.44,0,0,0,2.037,0l15.774-15.774A11.6,11.6,0,0,0,117.106,23.224Z" transform="translate(-80.124 -19.826)" fill="#fb3a82"/>
                <path id="Path_986139" data-name="Path 986139" d="M250.653,39.711,234.879,55.484a1.44,1.44,0,0,1-2.036,0l-1.853-1.853,15.068-15.069a11.606,11.606,0,0,0-3.143-18.644,11.6,11.6,0,0,1,7.738,19.793Z" transform="translate(-213.671 -19.907)" fill="#e01058"/>
              </g>
              <g id="Group_1150132" data-name="Group 1150132" transform="translate(26.874 17.892)">
                <g id="Group_1150129" data-name="Group 1150129">
                  <path id="Path_986140" data-name="Path 986140" d="M330.91,177.09a.569.569,0,0,0-.4-.506,34.872,34.872,0,0,0-15.756,0,.57.57,0,0,0-.4.506c-.414,5.977-.259,13.69,8.09,16.667a.563.563,0,0,0,.377,0C331.17,190.781,331.325,183.067,330.91,177.09Z" transform="translate(-314.228 -175.683)" fill="#27d1b3"/>
                </g>
                <g id="Group_1150130" data-name="Group 1150130" transform="translate(6.594 0.249)">
                  <path id="Path_986141" data-name="Path 986141" d="M373.668,195.68a.554.554,0,0,1-.377,0,14.694,14.694,0,0,1-1.621-.686c6.771-3.442,6.878-11.214,6.493-16.783a.584.584,0,0,0-.158-.356,19.664,19.664,0,0,1,3.352.652.568.568,0,0,1,.4.505C382.173,184.991,382.018,192.7,373.668,195.68Z" transform="translate(-371.67 -177.856)" fill="#20b69f"/>
                </g>
                <path id="Path_986142" data-name="Path 986142" d="M331.157,181.307h-5.874v-5.552c-.758-.045-1.593-.072-2.511-.072s-1.754.027-2.511.072v5.552h-5.874a18.7,18.7,0,0,0,.793,5.023h5.08V192.7a14.189,14.189,0,0,0,2.323,1.062.563.563,0,0,0,.377,0,14.184,14.184,0,0,0,2.323-1.062V186.33h5.08a18.7,18.7,0,0,0,.794-5.023Z" transform="translate(-314.369 -175.683)" fill="#e8edf1"/>
                <g id="Group_1150131" data-name="Group 1150131" transform="translate(6.594 5.624)">
                  <path id="Path_986143" data-name="Path 986143" d="M373.668,298.014a14.189,14.189,0,0,0,2.323-1.062V293.46a10.887,10.887,0,0,1-4.321,3.868,14.661,14.661,0,0,0,1.621.686A.554.554,0,0,0,373.668,298.014Z" transform="translate(-371.67 -285.564)" fill="#c5d3dd"/>
                  <path id="Path_986144" data-name="Path 986144" d="M425.623,224.675H422a19.634,19.634,0,0,1-.892,5.023h3.726A18.7,18.7,0,0,0,425.623,224.675Z" transform="translate(-415.428 -224.675)" fill="#c5d3dd"/>
                </g>
              </g>
            </g>
          </g>
        </g>
        <g id="Group_1150136" data-name="Group 1150136" transform="translate(0 12.337)">
          <path id="Path_986145" data-name="Path 986145" d="M17.547,342.339H13.753a2.959,2.959,0,0,1-2.106-.873L2.181,332a1.557,1.557,0,0,1-.459-1.109V326.15a.546.546,0,0,1,.545-.545,3.76,3.76,0,0,1,3.756,3.756v.2a.861.861,0,0,0,.252.609l5.763,5.763a.861.861,0,0,0,.609.252H23.325a3.7,3.7,0,0,1,.061.665.861.861,0,0,0,1.722,0,5.351,5.351,0,0,0-1.577-3.808l-4.619-4.619a1.465,1.465,0,0,1,0-2.069,2.542,2.542,0,0,1,3.594,0l3.992,3.992A8.018,8.018,0,0,0,32.2,332.7h1.3a5.112,5.112,0,0,1,3.915,1.819,3.675,3.675,0,0,0,3.25,1.3l17.353-2.092a.861.861,0,0,0-.206-1.71l-17.353,2.092a1.957,1.957,0,0,1-1.728-.7,6.831,6.831,0,0,0-5.231-2.43H32.2a6.307,6.307,0,0,1-4.489-1.86l-3.992-3.992a4.266,4.266,0,0,0-5.16-.671,5.466,5.466,0,0,0-2.45-.579,2.269,2.269,0,0,0-2.267,2.267v3.682l-.634-.634a5.485,5.485,0,0,0-5.475-5.315,2.271,2.271,0,0,0-2.016,1.231,5.452,5.452,0,0,0-3.454-1.23A2.27,2.27,0,0,0,0,326.149v4.743a3.268,3.268,0,0,0,.964,2.326l9.465,9.465a4.671,4.671,0,0,0,3.324,1.377h3.794a.861.861,0,1,0,0-1.722Zm-1.979-16.19a.547.547,0,0,1,.545-.545,3.76,3.76,0,0,1,1.089.162,3.191,3.191,0,0,0,.492,3.869l4.619,4.619c.066.066.128.134.188.2H18.473l-2.906-2.906v-5.4Zm-8.214-.387a.536.536,0,0,1,.383-.158,3.761,3.761,0,0,1,3.756,3.757v.2a.861.861,0,0,0,.252.609l4.294,4.294H13L7.743,329.2a5.439,5.439,0,0,0-.551-2.231v-.817a.539.539,0,0,1,.162-.387Z" transform="translate(0 -288.118)"/>
          <path id="Path_986146" data-name="Path 986146" d="M215.641,484.666h-36.6a.861.861,0,1,0,0,1.722h36.6a.861.861,0,1,0,0-1.722Z" transform="translate(-157.727 -430.445)"/>
          <path id="Path_986147" data-name="Path 986147" d="M316.245,99.708a.861.861,0,0,0-.861.861v.724h-.724a.861.861,0,1,0,0,1.722h.724v.724a.861.861,0,1,0,1.722,0v-.724h.724a.861.861,0,0,0,0-1.722h-.724v-.724A.861.861,0,0,0,316.245,99.708Z" transform="translate(-277.776 -89.678)"/>
          <path id="Path_986148" data-name="Path 986148" d="M82.929,40.219A.861.861,0,1,0,84.146,39l-4.265-4.264H84.6a.861.861,0,0,0,.836-.655l1.186-4.8,3.9,12.126a.861.861,0,0,0,.819.6l.065,0a.861.861,0,0,0,.785-.721l2.448-15.172,1.713,7.714a.861.861,0,0,0,.841.674h2.373a22.611,22.611,0,0,0,.81,7.427l-6.242,6.242a.58.58,0,0,1-.82,0l-6.5-6.5a.861.861,0,0,0-1.218,1.218l6.5,6.5a2.3,2.3,0,0,0,3.255,0l5.709-5.709a11.66,11.66,0,0,0,4.751,5.136.859.859,0,0,0,.1.06,14.971,14.971,0,0,0,2.421,1.105,1.428,1.428,0,0,0,.955,0,14.964,14.964,0,0,0,2.421-1.105.855.855,0,0,0,.1-.06,11.756,11.756,0,0,0,5.336-6.579c.026-.077.051-.155.076-.233l0-.01a25.927,25.927,0,0,0,.723-9.552,1.438,1.438,0,0,0-1.009-1.27,20.724,20.724,0,0,0-3.536-.686,12.463,12.463,0,0,0-13.164-17.971.861.861,0,0,0,.285,1.7,10.74,10.74,0,0,1,11,16.1c-.816-.052-1.721-.083-2.718-.083a28.714,28.714,0,0,0-8.129.939,1.438,1.438,0,0,0-1.009,1.27q-.012.168-.023.338H97.879L95.341,21.346a.861.861,0,0,0-1.691.05L91.058,37.461l-3.725-11.6a.861.861,0,0,0-.82-.6h-.03a.861.861,0,0,0-.806.654l-1.751,7.094H78.16l-.624-.624A10.74,10.74,0,0,1,92.724,17.2l.386.387a.861.861,0,0,0,1.218,0l.386-.387a10.75,10.75,0,0,1,2.519-1.873.861.861,0,1,0-.814-1.517,12.453,12.453,0,0,0-2.7,1.956,12.462,12.462,0,0,0-17.4,17.84ZM102.458,42.6h2.977v3.892A9.773,9.773,0,0,1,102.458,42.6Zm9.722,3.892V42.6h2.977A9.773,9.773,0,0,1,112.179,46.488Zm4.164-10.637h-4.164V32.084a22.055,22.055,0,0,1,4.061.672C116.309,33.8,116.351,34.833,116.343,35.851Zm-5.885-3.871v4.732a.861.861,0,0,0,.861.861h4.959a17.732,17.732,0,0,1-.527,3.3h-4.431a.861.861,0,0,0-.861.861v5.857a13.681,13.681,0,0,1-1.65.724,13.681,13.681,0,0,1-1.65-.724V41.735a.861.861,0,0,0-.861-.861h-4.431a17.731,17.731,0,0,1-.528-3.3H106.3a.861.861,0,0,0,.861-.861V31.98c.517-.02,1.066-.031,1.65-.031s1.134.011,1.65.031Zm-9.084.776a22.066,22.066,0,0,1,4.061-.672v3.767h-4.164C101.263,34.833,101.3,33.8,101.373,32.756Z" transform="translate(-64.332 -12.337)"/>
        </g>
      </g>
    </g>
  </g>
</svg>
