<svg xmlns="http://www.w3.org/2000/svg" xmlns:xlink="http://www.w3.org/1999/xlink" width="113" height="113" viewBox="0 0 113 113">
  <defs>
    <filter id="Path_982547" x="0" y="0" width="113" height="113" filterUnits="userSpaceOnUse">
      <feOffset dy="3" input="SourceAlpha"/>
      <feGaussianBlur stdDeviation="3" result="blur"/>
      <feFlood flood-opacity="0.161"/>
      <feComposite operator="in" in2="blur"/>
      <feComposite in="SourceGraphic"/>
    </filter>
  </defs>
  <g id="Group_1150803" data-name="Group 1150803" transform="translate(-272 -9357.154)">
    <g id="Group_1148960" data-name="Group 1148960" transform="translate(-52 5652.977)">
      <g id="Group_1147086" data-name="Group 1147086" transform="translate(333 3710.178)">
        <g transform="matrix(1, 0, 0, 1, -9, -6)" filter="url(#Path_982547)">
          <g id="Path_982547-2" data-name="Path 982547" transform="translate(9 6)" fill="#eaf4fb">
            <path d="M 47.5 93.5 C 41.28937149047852 93.5 35.26533508300781 92.28397369384766 29.59518623352051 89.88570404052734 C 24.11771965026855 87.56893157958984 19.19813346862793 84.25196075439453 14.97309303283691 80.02691650390625 C 10.74804019927979 75.80186462402344 7.431066513061523 70.88229370117188 5.114293098449707 65.40481567382812 C 2.716026782989502 59.73468017578125 1.5 53.71062850952148 1.5 47.5 C 1.5 41.28937149047852 2.716026782989502 35.26533508300781 5.114293098449707 29.59518623352051 C 7.431066513061523 24.11771965026855 10.74804019927979 19.19813346862793 14.97309303283691 14.97309303283691 C 19.19813346862793 10.74804019927979 24.11771965026855 7.431066513061523 29.59518623352051 5.114293098449707 C 35.26533508300781 2.716026782989502 41.28937149047852 1.5 47.5 1.5 C 53.71062850952148 1.5 59.73468017578125 2.716026782989502 65.40481567382812 5.114293098449707 C 70.88229370117188 7.431066513061523 75.80186462402344 10.74804019927979 80.02691650390625 14.97309303283691 C 84.25196075439453 19.19813346862793 87.56893157958984 24.11771965026855 89.88570404052734 29.59518623352051 C 92.28397369384766 35.26533508300781 93.5 41.28937149047852 93.5 47.5 C 93.5 53.71062850952148 92.28397369384766 59.73468017578125 89.88570404052734 65.40481567382812 C 87.56893157958984 70.88229370117188 84.25196075439453 75.80186462402344 80.02691650390625 80.02691650390625 C 75.80186462402344 84.25196075439453 70.88229370117188 87.56893157958984 65.40481567382812 89.88570404052734 C 59.73468017578125 92.28397369384766 53.71062850952148 93.5 47.5 93.5 Z" stroke="none"/>
            <path d="M 47.5 3 C 41.49121475219727 3 35.66376876831055 4.176155090332031 30.17950439453125 6.495796203613281 C 24.88084411621094 8.736953735351562 20.12152099609375 11.94598388671875 16.03375244140625 16.03375244140625 C 11.94598388671875 20.12152099609375 8.736953735351562 24.88084411621094 6.495796203613281 30.17950439453125 C 4.176155090332031 35.66376876831055 3 41.49121475219727 3 47.5 C 3 53.50878524780273 4.176155090332031 59.33623123168945 6.495796203613281 64.82049560546875 C 8.736953735351562 70.11915588378906 11.94598388671875 74.87847900390625 16.03375244140625 78.96624755859375 C 20.12152099609375 83.05401611328125 24.88084411621094 86.26304626464844 30.17950439453125 88.50419616699219 C 35.66376876831055 90.82384490966797 41.49121475219727 92 47.5 92 C 53.50878524780273 92 59.33623123168945 90.82384490966797 64.82049560546875 88.50419616699219 C 70.11915588378906 86.26304626464844 74.87847900390625 83.05401611328125 78.96624755859375 78.96624755859375 C 83.05401611328125 74.87847900390625 86.26304626464844 70.11915588378906 88.50419616699219 64.82049560546875 C 90.82384490966797 59.33623123168945 92 53.50878524780273 92 47.5 C 92 41.49121475219727 90.82384490966797 35.66376876831055 88.50419616699219 30.17950439453125 C 86.26304626464844 24.88084411621094 83.05401611328125 20.12152099609375 78.96624755859375 16.03375244140625 C 74.87847900390625 11.94598388671875 70.11915588378906 8.736953735351562 64.82049560546875 6.495796203613281 C 59.33623123168945 4.176155090332031 53.50878524780273 3 47.5 3 M 47.5 0 C 73.7335205078125 0 95 21.2664794921875 95 47.5 C 95 73.7335205078125 73.7335205078125 95 47.5 95 C 21.2664794921875 95 0 73.7335205078125 0 47.5 C 0 21.2664794921875 21.2664794921875 0 47.5 0 Z" stroke="none" fill="#3c97da"/>
          </g>
        </g>
      </g>
    </g>
    <g id="Group_1150116" data-name="Group 1150116" transform="translate(0 -66.362)">
      <g id="logistics" transform="translate(291 9432.368)">
        <g id="Group_1150097" data-name="Group 1150097" transform="translate(33.202 20.664)">
          <path id="Path_986025" data-name="Path 986025" d="M254.159,66.893a10.87,10.87,0,0,1-2.278,6.666v8.578h14.587a1.188,1.188,0,0,1,1.186,1.186v23.3h5.929v-3.789a.269.269,0,0,1,.269-.268.262.262,0,0,1,.145.044l6.641,4.338h3.012a1.318,1.318,0,0,0,1.318-1.318V62.281a1.318,1.318,0,0,0-1.318-1.318H253.2a1.31,1.31,0,0,0-.676.188A10.86,10.86,0,0,1,254.159,66.893Z" transform="translate(-251.881 -60.963)" fill="#fff0ad"/>
        </g>
        <g id="Group_1150098" data-name="Group 1150098" transform="translate(59.45 20.664)">
          <path id="Path_986026" data-name="Path 986026" d="M452.318,62.281v43.347a1.313,1.313,0,0,1-.091.48l1.283.838h3.012a1.318,1.318,0,0,0,1.318-1.318V62.281a1.318,1.318,0,0,0-1.318-1.318H451a1.318,1.318,0,0,1,1.318,1.318Z" transform="translate(-451 -60.963)" fill="#ffe177"/>
        </g>
        <g id="Group_1150099" data-name="Group 1150099" transform="translate(0.989 42.438)">
          <path id="Path_986027" data-name="Path 986027" d="M27.39,237.252V230.2H19.229v-3.657a.4.4,0,0,0-.618-.334l-10.93,7.14a.4.4,0,0,0,0,.669l10.93,7.14a.4.4,0,0,0,.618-.334v-3.573H27.39Z" transform="translate(-7.5 -226.145)" fill="#fd8087"/>
        </g>
        <g id="Group_1150100" data-name="Group 1150100" transform="translate(12.717 50.177)">
          <path id="Path_986028" data-name="Path 986028" d="M104.639,284.857H97.8a1.318,1.318,0,0,0-1.318,1.318v2.049h8.161Z" transform="translate(-96.478 -284.857)" fill="#fe646f"/>
        </g>
        <g id="Group_1150101" data-name="Group 1150101" transform="translate(20.747 41.706)">
          <path id="Path_986029" data-name="Path 986029" d="M169.918,245.478a.268.268,0,0,1,.268-.268H185.75v-23.3a1.318,1.318,0,0,0-1.318-1.318H158.707a1.318,1.318,0,0,0-1.318,1.318v25.724a1.318,1.318,0,0,0,1.318,1.318h11.211Z" transform="translate(-157.389 -220.594)" fill="#ffd15b"/>
        </g>
        <g id="Group_1150102" data-name="Group 1150102" transform="translate(42.313 41.706)">
          <path id="Path_986030" data-name="Path 986030" d="M322.318,221.912v23.3h5.476v-23.3a1.318,1.318,0,0,0-1.318-1.318H321A1.318,1.318,0,0,1,322.318,221.912Z" transform="translate(-321 -220.594)" fill="#ffc344"/>
        </g>
        <g id="Group_1150103" data-name="Group 1150103" transform="translate(31.358 41.706)">
          <path id="Path_986031" data-name="Path 986031" d="M244.629,228.674h-6.348a.4.4,0,0,1-.4-.4v-7.686h7.139v7.686A.4.4,0,0,1,244.629,228.674Z" transform="translate(-237.886 -220.593)" fill="#fe7701"/>
        </g>
        <g id="Group_1150104" data-name="Group 1150104" transform="translate(34.952 41.706)">
          <path id="Path_986032" data-name="Path 986032" d="M265.551,220.594v7.686a.4.4,0,0,1-.4.4H268.3a.4.4,0,0,0,.4-.4v-7.686Z" transform="translate(-265.156 -220.594)" fill="#f46700"/>
        </g>
        <g id="Group_1150106" data-name="Group 1150106" transform="translate(33.144 62.133)">
          <g id="Group_1150105" data-name="Group 1150105">
            <path id="Path_986033" data-name="Path 986033" d="M284.614,382.763l-10.93-7.14a.4.4,0,0,0-.618.334v3.657h-21.23a.4.4,0,0,0-.4.4v6.25a.4.4,0,0,0,.4.4h21.23v3.573a.4.4,0,0,0,.618.334l10.93-7.14a.4.4,0,0,0,0-.669Z" transform="translate(-251.437 -375.558)" fill="#05e39c"/>
          </g>
        </g>
        <g id="Group_1150109" data-name="Group 1150109" transform="translate(33.144 67.83)">
          <g id="Group_1150107" data-name="Group 1150107" transform="translate(21.629)">
            <path id="Path_986034" data-name="Path 986034" d="M427.07,420.288l-2.309-1.508-9.239,6.035v2.947a.4.4,0,0,0,.618.334l10.93-7.14a.4.4,0,0,0,0-.669Z" transform="translate(-415.522 -418.78)" fill="#0ed290"/>
          </g>
          <g id="Group_1150108" data-name="Group 1150108" transform="translate(0 1.324)">
            <path id="Path_986035" data-name="Path 986035" d="M273.066,430.545a1.318,1.318,0,0,0-1.318-1.318H251.836a.4.4,0,0,1-.4-.4v3.685a.4.4,0,0,0,.4.4h21.23Z" transform="translate(-251.437 -428.827)" fill="#0ed290"/>
          </g>
        </g>
        <g id="Group_1150110" data-name="Group 1150110" transform="translate(24.66 59.027)">
          <path id="Path_986036" data-name="Path 986036" d="M191,359.122h-3.263a.659.659,0,0,1-.659-.659v-5.808a.659.659,0,0,1,.659-.659H191a.659.659,0,0,1,.659.659v5.808A.659.659,0,0,1,191,359.122Z" transform="translate(-187.076 -351.995)" fill="#fff"/>
        </g>
        <g id="Group_1150111" data-name="Group 1150111" transform="translate(26.463 59.027)">
          <path id="Path_986037" data-name="Path 986037" d="M202.874,351.995h-2.119a.659.659,0,0,1,.659.659v5.808a.659.659,0,0,1-.659.659h2.119a.659.659,0,0,0,.659-.659v-5.808A.659.659,0,0,0,202.874,351.995Z" transform="translate(-200.755 -351.995)" fill="#f3f0f3"/>
        </g>
        <g id="Group_1150114" data-name="Group 1150114" transform="translate(13.23 15.249)">
          <g id="Group_1150112" data-name="Group 1150112" transform="translate(0 0)">
            <circle id="Ellipse_11670" data-name="Ellipse 11670" cx="11.06" cy="11.06" r="11.06" transform="translate(0 0.553) rotate(-1.432)" fill="#eaf6ff"/>
          </g>
          <g id="Group_1150113" data-name="Group 1150113" transform="translate(8.597 0.285)">
            <path id="Path_986038" data-name="Path 986038" d="M168.305,22.045a11.075,11.075,0,0,0-2.725.339,11.062,11.062,0,0,1,0,21.442,11.061,11.061,0,1,0,2.725-21.781Z" transform="translate(-165.58 -22.045)" fill="#d8ecfe"/>
          </g>
        </g>
        <g id="Group_1150115" data-name="Group 1150115" transform="translate(0 14.545)">
          <path id="Path_986039" data-name="Path 986039" d="M297.27,96.7a.989.989,0,0,0-1.384.2l-2.364,3.152-1.113-1.113a.989.989,0,1,0-1.4,1.4l1.919,1.919a.988.988,0,0,0,.7.29l.07,0a.989.989,0,0,0,.721-.393l3.048-4.064a.988.988,0,0,0-.2-1.384Z" transform="translate(-252.399 -85.699)"/>
          <path id="Path_986040" data-name="Path 986040" d="M370.356,117.212h-12.1a.989.989,0,0,0,0,1.977h12.1a.989.989,0,0,0,0-1.977Z" transform="translate(-310.175 -103.679)"/>
          <path id="Path_986041" data-name="Path 986041" d="M297.27,161.078a.989.989,0,0,0-1.384.2l-2.364,3.152-1.113-1.113a.989.989,0,0,0-1.4,1.4l1.919,1.919a.988.988,0,0,0,.7.29l.07,0a.988.988,0,0,0,.721-.393l3.048-4.064A.988.988,0,0,0,297.27,161.078Z" transform="translate(-252.399 -141.591)"/>
          <path id="Path_986042" data-name="Path 986042" d="M370.356,181.59h-12.1a.989.989,0,0,0,0,1.977h12.1a.989.989,0,0,0,0-1.977Z" transform="translate(-310.175 -159.571)"/>
          <path id="Path_986043" data-name="Path 986043" d="M66.862,68.511l-1.415-.925a2.31,2.31,0,0,0,1.832-2.257V21.982a2.31,2.31,0,0,0-2.307-2.307H58.4a.989.989,0,1,0,0,1.977h6.577a.33.33,0,0,1,.33.33V65.329a.33.33,0,0,1-.33.33H62.5l-6.564-4.288a1.388,1.388,0,0,0-2.147,1.162V65.2H50.1V55.514H60.181a.989.989,0,1,0,0-1.977H50.1V47.028H60.181a.989.989,0,1,0,0-1.977H50.1V43.024a2.31,2.31,0,0,0-2.307-2.307h-13.6v-6.9A12.032,12.032,0,0,0,35.54,21.652H53.782a.989.989,0,1,0,0-1.977H34.52c-.036,0-.071,0-.106.006a12.039,12.039,0,0,0-16.7-3A.989.989,0,0,0,18.836,18.3a10.057,10.057,0,1,1-2.889,3.055.989.989,0,0,0-1.688-1.029A12.046,12.046,0,0,0,32.214,35.886v4.832H22.065a2.31,2.31,0,0,0-2.307,2.307v2.483H13.706V42.838a1.388,1.388,0,0,0-2.147-1.162L.629,48.816a1.388,1.388,0,0,0,0,2.324l10.93,7.14a1.388,1.388,0,0,0,2.147-1.162V54.533h6.052V68.748a2.31,2.31,0,0,0,2.307,2.307h10.09V72.84a1.39,1.39,0,0,0,1.388,1.388H53.785v2.585a1.388,1.388,0,0,0,2.147,1.162l10.93-7.14a1.388,1.388,0,0,0,0-2.324ZM32.346,42.694h5.161v6.1H32.346ZM12.717,52.556a.989.989,0,0,0-.989.989v2.485L2.465,49.978l9.263-6.051V46.5a.989.989,0,0,0,.989.989h7.041v5.072H12.717ZM55.762,75.724V73.239a.989.989,0,0,0-.989-.989H34.132V67.179h2.908a.989.989,0,1,0,0-1.977h-3.5a1.39,1.39,0,0,0-1.388,1.388v2.488H22.065a.33.33,0,0,1-.33-.33V43.024a.33.33,0,0,1,.33-.33h8.3v6.7a1.386,1.386,0,0,0,1.384,1.384H38.1a1.386,1.386,0,0,0,1.384-1.384v-6.7h8.3a.33.33,0,0,1,.33.33V65.2H41.654a.989.989,0,0,0,0,1.977H54.773a.989.989,0,0,0,.989-.989V63.621l9.263,6.051Z" transform="translate(0 -14.545)"/>
          <path id="Path_986044" data-name="Path 986044" d="M184.487,344.495h-3.263a1.65,1.65,0,0,0-1.648,1.648v5.808a1.65,1.65,0,0,0,1.648,1.648h3.263a1.65,1.65,0,0,0,1.648-1.648v-5.808A1.65,1.65,0,0,0,184.487,344.495Zm-.33,7.127h-2.6v-5.149h2.6Z" transform="translate(-155.905 -301.002)"/>
          <path id="Path_986045" data-name="Path 986045" d="M179.744,46.623a.989.989,0,0,0-.989.989v6.832a.989.989,0,0,0,.989.989h5.444a.989.989,0,1,0,0-1.977h-4.455V47.612A.989.989,0,0,0,179.744,46.623Z" transform="translate(-155.192 -42.395)"/>
        </g>
      </g>
    </g>
  </g>
</svg>
