<svg xmlns="http://www.w3.org/2000/svg" xmlns:xlink="http://www.w3.org/1999/xlink" width="113" height="113" viewBox="0 0 113 113">
  <defs>
    <filter id="Path_982547" x="0" y="0" width="113" height="113" filterUnits="userSpaceOnUse">
      <feOffset dy="3" input="SourceAlpha"/>
      <feGaussianBlur stdDeviation="3" result="blur"/>
      <feFlood flood-opacity="0.161"/>
      <feComposite operator="in" in2="blur"/>
      <feComposite in="SourceGraphic"/>
    </filter>
  </defs>
  <g id="Group_1150772" data-name="Group 1150772" transform="translate(-272 -4325.106)">
    <g id="Group_1149604" data-name="Group 1149604" transform="translate(0 -66.362)">
      <g id="Group_1148889" data-name="Group 1148889" transform="translate(-52 687.291)">
        <g id="Group_1147086" data-name="Group 1147086" transform="translate(333 3710.178)">
          <g transform="matrix(1, 0, 0, 1, -9, -6)" filter="url(#Path_982547)">
            <g id="Path_982547-2" data-name="Path 982547" transform="translate(9 6)" fill="#fdeffe">
              <path d="M 47.5 93.5 C 41.28937149047852 93.5 35.26533508300781 92.28397369384766 29.59518623352051 89.88570404052734 C 24.11771965026855 87.56893157958984 19.19813346862793 84.25196075439453 14.97309303283691 80.02691650390625 C 10.74804019927979 75.80186462402344 7.431066513061523 70.88229370117188 5.114293098449707 65.40481567382812 C 2.716026782989502 59.73468017578125 1.5 53.71062850952148 1.5 47.5 C 1.5 41.28937149047852 2.716026782989502 35.26533508300781 5.114293098449707 29.59518623352051 C 7.431066513061523 24.11771965026855 10.74804019927979 19.19813346862793 14.97309303283691 14.97309303283691 C 19.19813346862793 10.74804019927979 24.11771965026855 7.431066513061523 29.59518623352051 5.114293098449707 C 35.26533508300781 2.716026782989502 41.28937149047852 1.5 47.5 1.5 C 53.71062850952148 1.5 59.73468017578125 2.716026782989502 65.40481567382812 5.114293098449707 C 70.88229370117188 7.431066513061523 75.80186462402344 10.74804019927979 80.02691650390625 14.97309303283691 C 84.25196075439453 19.19813346862793 87.56893157958984 24.11771965026855 89.88570404052734 29.59518623352051 C 92.28397369384766 35.26533508300781 93.5 41.28937149047852 93.5 47.5 C 93.5 53.71062850952148 92.28397369384766 59.73468017578125 89.88570404052734 65.40481567382812 C 87.56893157958984 70.88229370117188 84.25196075439453 75.80186462402344 80.02691650390625 80.02691650390625 C 75.80186462402344 84.25196075439453 70.88229370117188 87.56893157958984 65.40481567382812 89.88570404052734 C 59.73468017578125 92.28397369384766 53.71062850952148 93.5 47.5 93.5 Z" stroke="none"/>
              <path d="M 47.5 3 C 41.49121475219727 3 35.66376876831055 4.176155090332031 30.17950439453125 6.495796203613281 C 24.88084411621094 8.736953735351562 20.12152099609375 11.94598388671875 16.03375244140625 16.03375244140625 C 11.94598388671875 20.12152099609375 8.736953735351562 24.88084411621094 6.495796203613281 30.17950439453125 C 4.176155090332031 35.66376876831055 3 41.49121475219727 3 47.5 C 3 53.50878524780273 4.176155090332031 59.33623123168945 6.495796203613281 64.82049560546875 C 8.736953735351562 70.11915588378906 11.94598388671875 74.87847900390625 16.03375244140625 78.96624755859375 C 20.12152099609375 83.05401611328125 24.88084411621094 86.26304626464844 30.17950439453125 88.50419616699219 C 35.66376876831055 90.82384490966797 41.49121475219727 92 47.5 92 C 53.50878524780273 92 59.33623123168945 90.82384490966797 64.82049560546875 88.50419616699219 C 70.11915588378906 86.26304626464844 74.87847900390625 83.05401611328125 78.96624755859375 78.96624755859375 C 83.05401611328125 74.87847900390625 86.26304626464844 70.11915588378906 88.50419616699219 64.82049560546875 C 90.82384490966797 59.33623123168945 92 53.50878524780273 92 47.5 C 92 41.49121475219727 90.82384490966797 35.66376876831055 88.50419616699219 30.17950439453125 C 86.26304626464844 24.88084411621094 83.05401611328125 20.12152099609375 78.96624755859375 16.03375244140625 C 74.87847900390625 11.94598388671875 70.11915588378906 8.736953735351562 64.82049560546875 6.495796203613281 C 59.33623123168945 4.176155090332031 53.50878524780273 3 47.5 3 M 47.5 0 C 73.7335205078125 0 95 21.2664794921875 95 47.5 C 95 73.7335205078125 73.7335205078125 95 47.5 95 C 21.2664794921875 95 0 73.7335205078125 0 47.5 C 0 21.2664794921875 21.2664794921875 0 47.5 0 Z" stroke="none" fill="#ee70f7"/>
            </g>
          </g>
        </g>
      </g>
      <g id="purchasing_16090304" transform="translate(233.51 4397.638)">
        <path id="Path_985477" data-name="Path 985477" d="M267.852,74.979a6.54,6.54,0,1,0-2.394,8.937,6.55,6.55,0,0,0,2.394-8.937Z" transform="translate(-160.712 -50.415)" fill="#ffc338"/>
        <path id="Path_985478" data-name="Path 985478" d="M121.233,43.749a1.13,1.13,0,0,0-.892-.436H83.451l-.012-.048-.01-.038A6.081,6.081,0,0,0,77.546,38.8H71.218a2.73,2.73,0,0,0,0,5.46h6.328a.631.631,0,0,1,.623.44L83.476,65.7a7.018,7.018,0,0,0,2.5,13.575h1.151a5.116,5.116,0,0,0,8.66,0h9.258a5.122,5.122,0,1,0,0-5.46h-9.26a5.114,5.114,0,0,0-8.658,0H85.976a1.557,1.557,0,0,1,0-3.114h23.573a2.727,2.727,0,0,0,2.677-3.25,5.288,5.288,0,0,0,4.482-4l4.73-18.723a1.131,1.131,0,0,0-.2-.971ZM109.376,73.68a2.861,2.861,0,1,1-2.863,2.863A2.864,2.864,0,0,1,109.376,73.68Zm-5.1,2.391c-.014.155-.023.313-.023.472s.008.313.022.468h-7.72c.014-.154.022-.31.022-.468s-.008-.316-.023-.472h7.721ZM91.458,73.68A2.861,2.861,0,1,1,88.6,76.542,2.864,2.864,0,0,1,91.458,73.68Zm17.361-8.448h-3.174l.2-5.221h3.8ZM99,50.8l-.2-5.225h5.347l-.2,5.225H99Zm4.853,2.26-.183,4.692h-4.4l-.183-4.692ZM96.742,50.8h-4.9l-.828-5.225h5.523Zm.088,2.26.183,4.692H92.945L92.2,53.059Zm-6.174,4.692H87.1l-1.186-4.692h4Zm.358,2.26.827,5.221H88.995l-1.32-5.221h3.34Zm3.116,5.221L93.3,60.011h3.8l.2,5.221Zm5.436,0-.2-5.221h4.223l-.2,5.221Zm6.37-7.481.183-4.692h4.629L110,57.751Zm.271-6.952.2-5.225h5.523l-.828,5.225Zm-17.48-5.225.828,5.225h-4.21l-1.321-5.225h4.7ZM70.75,41.536a.47.47,0,0,1,.468-.472h5.2V42h-5.2a.474.474,0,0,1-.468-.468Zm38.8,26.9H85.976a3.817,3.817,0,1,0,0,7.635h.382c-.014.155-.023.313-.023.472s.008.313.022.468h-.382a4.758,4.758,0,0,1-.917-9.427l1.167-.232L80.352,44.114l-.016-.058a2.9,2.9,0,0,0-1.659-1.828v-1a3.834,3.834,0,0,1,2.577,2.607l5.982,23.652h22.314a.472.472,0,0,1,0,.943Zm1.958-3.2h-.4l.827-5.221h3.308l-.727,2.876a3.067,3.067,0,0,1-3.01,2.344Zm4.307-7.481h-3.521l.743-4.692H117ZM117.57,50.8h-4.176l.828-5.225h4.668ZM90.009,76.542a1.45,1.45,0,1,1,1.45,1.45A1.449,1.449,0,0,1,90.009,76.542Zm17.918,0a1.45,1.45,0,1,1,1.45,1.45A1.449,1.449,0,0,1,107.926,76.542ZM83.732,39.177a1.13,1.13,0,0,1,.383-.848L86.8,35.966a1.13,1.13,0,0,1,1.494,1.7l-.437.384h13.636a10.217,10.217,0,0,0,10.194-10.213,1.13,1.13,0,0,1,1.13-1.129h0a1.13,1.13,0,0,1,1.129,1.131,12.477,12.477,0,0,1-12.454,12.471H87.856l.437.384a1.13,1.13,0,0,1-1.494,1.7l-2.683-2.363A1.13,1.13,0,0,1,83.732,39.177Zm13.34-18.964A8.8,8.8,0,1,0,109.1,23.434a8.744,8.744,0,0,0-12.025-3.221ZM104.746,33.5a6.542,6.542,0,1,1,2.394-8.937,6.5,6.5,0,0,1-2.394,8.937Zm-.223-3.967a2.839,2.839,0,0,1-1.918,2.621v.119a1.13,1.13,0,1,1-2.26,0v-.116a2.959,2.959,0,0,1-1.579-1.325,1.13,1.13,0,1,1,1.975-1.1.837.837,0,0,0,.735.365c.427,0,.788-.258.788-.564s0-.377-1.022-.592c-.984-.207-2.815-.592-2.815-2.8a2.842,2.842,0,0,1,1.918-2.624V23.4a1.13,1.13,0,1,1,2.26,0v.116a2.96,2.96,0,0,1,1.579,1.325,1.13,1.13,0,0,1-1.975,1.1.837.837,0,0,0-.735-.365c-.427,0-.788.26-.788.568s0,.374,1.02.588c.985.207,2.817.593,2.817,2.8ZM89,27.835a12.477,12.477,0,0,1,12.47-12.471h13.621l-.437-.384a1.13,1.13,0,1,1,1.494-1.7l2.683,2.363a1.13,1.13,0,0,1,0,1.7l-2.683,2.367a1.13,1.13,0,0,1-1.5-1.7l.441-.389H101.479A10.217,10.217,0,0,0,91.263,27.837a1.13,1.13,0,0,1-1.13,1.129h0A1.13,1.13,0,0,1,89,27.835Z"/>
        <g id="Group_1149603" data-name="Group 1149603" transform="translate(78.676 41.233)">
          <path id="Path_985479" data-name="Path 985479" d="M205.6,350.975h2.847l-.827-5.221h-3.34Z" transform="translate(-195.284 -326.975)" fill="#c4e2ff"/>
          <path id="Path_985480" data-name="Path 985480" d="M233.661,248.787l-.2-5.225h-5.523l.828,5.225Z" transform="translate(-215.595 -239.221)" fill="#c4e2ff"/>
          <path id="Path_985481" data-name="Path 985481" d="M244.95,350.975h3.174l-.2-5.221h-3.8Z" transform="translate(-229.496 -326.975)" fill="#c4e2ff"/>
          <path id="Path_985482" data-name="Path 985482" d="M193.023,301.235h3.554l-.743-4.692h-4Z" transform="translate(-184.597 -284.717)" fill="#c4e2ff"/>
          <path id="Path_985483" data-name="Path 985483" d="M237.07,301.235h4.068l-.183-4.692h-4.629Z" transform="translate(-222.802 -284.717)" fill="#c4e2ff"/>
          <path id="Path_985484" data-name="Path 985484" d="M183.97,248.787l-.828-5.225h-4.7l1.321,5.225Z" transform="translate(-173.091 -239.221)" fill="#c4e2ff"/>
          <path id="Path_985485" data-name="Path 985485" d="M333.548,301.235h4.068l.743-4.692h-4.629Z" transform="translate(-306.288 -284.717)" fill="#c4e2ff"/>
          <path id="Path_985486" data-name="Path 985486" d="M171.462,239.093H149.149l-5.982-23.652a3.834,3.834,0,0,0-2.577-2.607v1a2.9,2.9,0,0,1,1.659,1.828l.016.058,5.874,23.236-1.167.232a4.758,4.758,0,0,0,.917,9.427h.382c-.014-.154-.022-.31-.022-.468s.008-.316.023-.472h-.382a3.817,3.817,0,1,1,0-7.635h23.573a.472.472,0,0,0,0-.943Z" transform="translate(-140.59 -212.833)" fill="#c4e2ff"/>
        </g>
        <path id="Path_985487" data-name="Path 985487" d="M340.5,448.224a2.861,2.861,0,1,0-2.863-2.859A2.862,2.862,0,0,0,340.5,448.224Zm0-4.308a1.45,1.45,0,1,1-1.45,1.45A1.452,1.452,0,0,1,340.5,443.916Z" transform="translate(-231.119 -368.823)" fill="#685e68"/>
        <path id="Path_985488" data-name="Path 985488" d="M267.144,460.367h7.72c-.014-.154-.022-.31-.022-.468s.008-.316.023-.472h-7.721c.014.155.023.313.023.472s-.008.313-.022.468Z" transform="translate(-170.589 -383.356)" fill="#c4e2ff"/>
        <path id="Path_985489" data-name="Path 985489" d="M335.666,243.562l-.2,5.225h4.9l.828-5.225Z" transform="translate(-229.256 -197.988)" fill="#c4e2ff"/>
        <path id="Path_985490" data-name="Path 985490" d="M84.49,212.115a.474.474,0,0,0,.468.468h5.2v-.939h-5.2a.47.47,0,0,0-.468.472Z" transform="translate(-13.74 -170.578)" fill="#a79ba7"/>
        <path id="Path_985491" data-name="Path 985491" d="M213.669,448.224a2.861,2.861,0,1,0-2.863-2.859A2.862,2.862,0,0,0,213.669,448.224Zm0-4.308a1.45,1.45,0,1,1-1.45,1.45A1.452,1.452,0,0,1,213.669,443.916Z" transform="translate(-122.21 -368.823)" fill="#685e68"/>
        <path id="Path_985492" data-name="Path 985492" d="M290.773,350.975h.266l.2-5.221h-4.223l.2,5.221Z" transform="translate(-187.656 -285.743)" fill="#c4e2ff"/>
        <path id="Path_985493" data-name="Path 985493" d="M335.487,345.754h-3.8l-.2,5.221h3.174Z" transform="translate(-225.841 -285.743)" fill="#c4e2ff"/>
        <path id="Path_985494" data-name="Path 985494" d="M289.868,296.543H285.1l.183,4.692h4.4Z" transform="translate(-186.011 -243.484)" fill="#c4e2ff"/>
        <path id="Path_985495" data-name="Path 985495" d="M288.185,248.787l.2-5.225h-5.347l.2,5.225Z" transform="translate(-184.24 -197.988)" fill="#c4e2ff"/>
        <path id="Path_985496" data-name="Path 985496" d="M370.153,350.975h.4a3.067,3.067,0,0,0,3.01-2.344l.727-2.876H370.98l-.827,5.221Z" transform="translate(-259.045 -285.744)" fill="#c4e2ff"/>
        <path id="Path_985497" data-name="Path 985497" d="M386.338,248.787h4.176l1.32-5.225h-4.668Z" transform="translate(-272.944 -197.988)" fill="#c4e2ff"/>
        <path id="Path_985498" data-name="Path 985498" d="M378.542,301.235h3.521l1.185-4.692h-3.963Z" transform="translate(-266.249 -243.484)" fill="#c4e2ff"/>
      </g>
    </g>
  </g>
</svg>
