<svg xmlns="http://www.w3.org/2000/svg" xmlns:xlink="http://www.w3.org/1999/xlink" width="101.5" height="101.5" viewBox="0 0 101.5 101.5">
  <defs>
    <filter id="Path_982547" x="0" y="0" width="101.5" height="101.5" filterUnits="userSpaceOnUse">
      <feOffset dy="3" input="SourceAlpha"/>
      <feGaussianBlur stdDeviation="3" result="blur"/>
      <feFlood flood-opacity="0.161"/>
      <feComposite operator="in" in2="blur"/>
      <feComposite in="SourceGraphic"/>
    </filter>
  </defs>
  <g id="Group_1150833" data-name="Group 1150833" transform="translate(-192.377 -11201.932)">
    <g id="Group_1150797" data-name="Group 1150797">
      <g id="Group_1150751" data-name="Group 1150751">
        <g id="Group_1149576" data-name="Group 1149576" transform="translate(-131.623 7497.754)">
          <g id="Group_1147086" data-name="Group 1147086" transform="translate(333 3710.178)">
            <g transform="matrix(1, 0, 0, 1, -9, -6)" filter="url(#Path_982547)">
              <g id="Path_982547-2" data-name="Path 982547" transform="translate(9 6)" fill="#fdeffe">
                <path d="M 41.75 82 C 36.31562423706055 82 31.04459953308105 80.93599700927734 26.08334159851074 78.83757781982422 C 21.29058837890625 76.81040191650391 16.98592948913574 73.90802001953125 13.28895282745361 70.21104431152344 C 9.591976165771484 66.51406860351562 6.689599990844727 62.20942306518555 4.662435531616211 57.41666030883789 C 2.563999891281128 52.45539855957031 1.5 47.18437576293945 1.5 41.75 C 1.5 36.31562423706055 2.563999891281128 31.04459953308105 4.662435531616211 26.08334159851074 C 6.689599990844727 21.29058837890625 9.591976165771484 16.98592948913574 13.28895282745361 13.28895282745361 C 16.98592948913574 9.591976165771484 21.29058837890625 6.689599990844727 26.08334159851074 4.662435531616211 C 31.04459953308105 2.563999891281128 36.31562423706055 1.5 41.75 1.5 C 47.18437576293945 1.5 52.45539855957031 2.563999891281128 57.41666030883789 4.662435531616211 C 62.20942306518555 6.689599990844727 66.51406860351562 9.591976165771484 70.21104431152344 13.28895282745361 C 73.90802001953125 16.98592948913574 76.81040191650391 21.29058837890625 78.83757781982422 26.08334159851074 C 80.93599700927734 31.04459953308105 82 36.31562423706055 82 41.75 C 82 47.18437576293945 80.93599700927734 52.45539855957031 78.83757781982422 57.41666030883789 C 76.81040191650391 62.20942306518555 73.90802001953125 66.51408386230469 70.21104431152344 70.21104431152344 C 66.51408386230469 73.90802001953125 62.20942306518555 76.81040191650391 57.41666030883789 78.83757781982422 C 52.45539855957031 80.93599700927734 47.18437576293945 82 41.75 82 Z" stroke="none"/>
                <path d="M 41.75 3 C 36.5174674987793 3 31.44303894042969 4.024131774902344 26.66767883300781 6.043930053710938 C 22.05370712280273 7.9954833984375 17.90931701660156 10.7899169921875 14.34961700439453 14.34961700439453 C 10.7899169921875 17.90931701660156 7.9954833984375 22.05370712280273 6.043930053710938 26.66767883300781 C 4.024131774902344 31.44303894042969 3 36.5174674987793 3 41.75 C 3 46.9825325012207 4.024131774902344 52.05697250366211 6.043930053710938 56.83233261108398 C 7.9954833984375 61.44629287719727 10.7899169921875 65.59069061279297 14.34961700439453 69.150390625 C 17.90931701660156 72.71009063720703 22.05370712280273 75.5045166015625 26.66767883300781 77.45606994628906 C 31.44303894042969 79.47586822509766 36.5174674987793 80.5 41.75 80.5 C 46.9825325012207 80.5 52.05697250366211 79.47586822509766 56.83233261108398 77.45606994628906 C 61.44629287719727 75.5045166015625 65.59069061279297 72.71009063720703 69.150390625 69.150390625 C 72.71009063720703 65.59069061279297 75.5045166015625 61.44629287719727 77.45606994628906 56.83233261108398 C 79.47586822509766 52.05697250366211 80.5 46.9825325012207 80.5 41.75 C 80.5 36.5174674987793 79.47586822509766 31.44303894042969 77.45606994628906 26.66767883300781 C 75.5045166015625 22.05370712280273 72.71009063720703 17.90931701660156 69.150390625 14.34961700439453 C 65.59069061279297 10.7899169921875 61.44629287719727 7.9954833984375 56.83233261108398 6.043930053710938 C 52.05697250366211 4.024131774902344 46.9825325012207 3 41.75 3 M 41.75 0 C 64.80789184570312 0 83.5 18.69212341308594 83.5 41.75 C 83.5 64.80789184570312 64.80789184570312 83.5 41.75 83.5 C 18.69212341308594 83.5 0 64.80789184570312 0 41.75 C 0 18.69212341308594 18.69212341308594 0 41.75 0 Z" stroke="none" fill="#ee70f7"/>
              </g>
            </g>
          </g>
        </g>
        <g id="Layer_23" data-name="Layer 23" transform="translate(208.282 11188.354)">
          <path id="Path_987065" data-name="Path 987065" d="M31.466,49a3.464,3.464,0,0,1,2.882,1.543L36.784,54.2H65.361a2.6,2.6,0,0,1,2.6,2.6V86.238a2.6,2.6,0,0,1-2.6,2.6H18.6a2.6,2.6,0,0,1-2.6-2.6V51.6A2.6,2.6,0,0,1,18.6,49Z" transform="translate(-7.134 -8.026)" fill="#f4b357"/>
          <path id="Path_987066" data-name="Path 987066" d="M188.976,68.464H201.1l-1.559-2.078A3.464,3.464,0,0,0,196.77,65h-10.1Z" transform="translate(-159.326 -22.294)" fill="#fae16f"/>
          <path id="Path_987067" data-name="Path 987067" d="M89.361,86.238V56.794a2.6,2.6,0,0,0-2.6-2.6H58.186L55.75,50.543A3.464,3.464,0,0,0,52.868,49H42.6A2.6,2.6,0,0,0,40,51.6v34.64a2.6,2.6,0,0,0,2.6,2.6H86.764a2.6,2.6,0,0,0,2.6-2.6Z" transform="translate(-28.536 -8.026)" fill="#f6c866"/>
          <circle id="Ellipse_11696" data-name="Ellipse 11696" cx="15.767" cy="15.767" r="15.767" transform="translate(19.079 54.488)" fill="#cfe0fc"/>
          <path id="Path_987068" data-name="Path 987068" d="M150.494,177.516a15.584,15.584,0,0,0,.026,31.062,15.586,15.586,0,0,0-.026-31.062Z" transform="translate(-114.327 -122.63)" fill="#e5f0ff"/>
          <path id="Path_987069" data-name="Path 987069" d="M192.866,219.392h2.6v-3.464a3.464,3.464,0,0,1,6.928,0v3.464h2.6a2.573,2.573,0,0,1,.866.159v-3.623a6.928,6.928,0,0,0-13.856,0v3.623A2.573,2.573,0,0,1,192.866,219.392Z" transform="translate(-164.082 -150.706)" fill="#fff"/>
          <rect id="Rectangle_408440" data-name="Rectangle 408440" width="17.897" height="11.931" rx="5.966" transform="translate(25.897 68.976)" fill="#f4b357"/>
          <rect id="Rectangle_408441" data-name="Rectangle 408441" width="16.193" height="11.931" rx="5.966" transform="translate(27.602 68.976)" fill="#f6c866"/>
          <ellipse id="Ellipse_11697" data-name="Ellipse 11697" cx="2.131" cy="1.704" rx="2.131" ry="1.704" transform="translate(32.715 73.238)" fill="#fae16f"/>
          <path id="Path_987070" data-name="Path 987070" d="M129.568,45.2H113.547l-1.3-1.733a4.352,4.352,0,0,0-3.464-1.731H99.126A4.312,4.312,0,0,0,95.673,40H88.866a.866.866,0,0,0,0,1.732h6.806a2.591,2.591,0,0,1,2.162,1.157l2.436,3.653a.866.866,0,0,0,.72.386h28.578A1.734,1.734,0,0,1,131.3,48.66V78.1a1.734,1.734,0,0,1-1.732,1.732h-9.991a16.4,16.4,0,0,0,.292-18.668.866.866,0,0,0-1.44.964,14.732,14.732,0,1,1-2.061-2.455.866.866,0,1,0,1.2-1.25A16.441,16.441,0,0,0,92.795,79.835H90.6a.866.866,0,0,0,0,1.732H94.22a16.378,16.378,0,0,0,23.933,0h11.415a3.468,3.468,0,0,0,3.464-3.464V48.66a3.468,3.468,0,0,0-3.464-3.464ZM100.3,43.464h8.485a2.61,2.61,0,0,1,2.078,1.039l.52.693h-9.928Z" transform="translate(-71.34 0)"/>
          <path id="Path_987071" data-name="Path 987071" d="M15.794,79.836h-4.33A1.734,1.734,0,0,1,9.732,78.1V43.464a1.734,1.734,0,0,1,1.732-1.732h2.6a.866.866,0,1,0,0-1.732h-2.6A3.468,3.468,0,0,0,8,43.464V78.1a3.468,3.468,0,0,0,3.464,3.464h4.33a.866.866,0,1,0,0-1.732Z"/>
          <path id="Path_987072" data-name="Path 987072" d="M177.526,200a7.8,7.8,0,0,0-7.794,7.794v3.08A3.452,3.452,0,0,0,168,213.856v6.928a3.468,3.468,0,0,0,3.464,3.464h12.124a3.468,3.468,0,0,0,3.464-3.464v-6.928a3.452,3.452,0,0,0-1.732-2.982v-3.08A7.8,7.8,0,0,0,177.526,200Zm-6.062,7.794a6.062,6.062,0,0,1,12.124,0v2.6h-1.732v-2.6a4.33,4.33,0,0,0-8.66,0v2.6h-1.732Zm8.66,2.6h-5.2v-2.6a2.6,2.6,0,0,1,5.2,0Zm5.2,10.392a1.734,1.734,0,0,1-1.732,1.732H171.464a1.734,1.734,0,0,1-1.732-1.732v-6.928a1.734,1.734,0,0,1,1.732-1.732h12.124a1.734,1.734,0,0,1,1.732,1.732Z" transform="translate(-142.68 -142.68)"/>
          <path id="Path_987073" data-name="Path 987073" d="M234.6,336a.866.866,0,1,0,0,1.732.866.866,0,1,1-.866.866.866.866,0,1,0-1.732,0,2.6,2.6,0,1,0,2.6-2.6Z" transform="translate(-199.752 -263.958)"/>
        </g>
      </g>
    </g>
  </g>
</svg>
