<svg xmlns="http://www.w3.org/2000/svg" xmlns:xlink="http://www.w3.org/1999/xlink" width="113" height="113" viewBox="0 0 113 113">
  <defs>
    <filter id="Path_982547" x="0" y="0" width="113" height="113" filterUnits="userSpaceOnUse">
      <feOffset dy="3" input="SourceAlpha"/>
      <feGaussianBlur stdDeviation="3" result="blur"/>
      <feFlood flood-opacity="0.161"/>
      <feComposite operator="in" in2="blur"/>
      <feComposite in="SourceGraphic"/>
    </filter>
  </defs>
  <g id="Group_1150773" data-name="Group 1150773" transform="translate(-586 -4325.106)">
    <g id="Group_1149607" data-name="Group 1149607" transform="translate(0 -66.362)">
      <g id="Group_1148890" data-name="Group 1148890" transform="translate(-158 687.291)">
        <g id="Group_1147087" data-name="Group 1147087" transform="translate(753 3710.178)">
          <g transform="matrix(1, 0, 0, 1, -9, -6)" filter="url(#Path_982547)">
            <g id="Path_982547-2" data-name="Path 982547" transform="translate(9 6)" fill="#fdeffe">
              <path d="M 47.5 93.5 C 41.28937149047852 93.5 35.26533508300781 92.28397369384766 29.59518623352051 89.88570404052734 C 24.11771965026855 87.56893157958984 19.19813346862793 84.25196075439453 14.97309303283691 80.02691650390625 C 10.74804019927979 75.80186462402344 7.431066513061523 70.88229370117188 5.114293098449707 65.40481567382812 C 2.716026782989502 59.73468017578125 1.5 53.71062850952148 1.5 47.5 C 1.5 41.28937149047852 2.716026782989502 35.26533508300781 5.114293098449707 29.59518623352051 C 7.431066513061523 24.11771965026855 10.74804019927979 19.19813346862793 14.97309303283691 14.97309303283691 C 19.19813346862793 10.74804019927979 24.11771965026855 7.431066513061523 29.59518623352051 5.114293098449707 C 35.26533508300781 2.716026782989502 41.28937149047852 1.5 47.5 1.5 C 53.71062850952148 1.5 59.73468017578125 2.716026782989502 65.40481567382812 5.114293098449707 C 70.88229370117188 7.431066513061523 75.80186462402344 10.74804019927979 80.02691650390625 14.97309303283691 C 84.25196075439453 19.19813346862793 87.56893157958984 24.11771965026855 89.88570404052734 29.59518623352051 C 92.28397369384766 35.26533508300781 93.5 41.28937149047852 93.5 47.5 C 93.5 53.71062850952148 92.28397369384766 59.73468017578125 89.88570404052734 65.40481567382812 C 87.56893157958984 70.88229370117188 84.25196075439453 75.80186462402344 80.02691650390625 80.02691650390625 C 75.80186462402344 84.25196075439453 70.88229370117188 87.56893157958984 65.40481567382812 89.88570404052734 C 59.73468017578125 92.28397369384766 53.71062850952148 93.5 47.5 93.5 Z" stroke="none"/>
              <path d="M 47.5 3 C 41.49121475219727 3 35.66376876831055 4.176155090332031 30.17950439453125 6.495796203613281 C 24.88084411621094 8.736953735351562 20.12152099609375 11.94598388671875 16.03375244140625 16.03375244140625 C 11.94598388671875 20.12152099609375 8.736953735351562 24.88084411621094 6.495796203613281 30.17950439453125 C 4.176155090332031 35.66376876831055 3 41.49121475219727 3 47.5 C 3 53.50878524780273 4.176155090332031 59.33623123168945 6.495796203613281 64.82049560546875 C 8.736953735351562 70.11915588378906 11.94598388671875 74.87847900390625 16.03375244140625 78.96624755859375 C 20.12152099609375 83.05401611328125 24.88084411621094 86.26304626464844 30.17950439453125 88.50419616699219 C 35.66376876831055 90.82384490966797 41.49121475219727 92 47.5 92 C 53.50878524780273 92 59.33623123168945 90.82384490966797 64.82049560546875 88.50419616699219 C 70.11915588378906 86.26304626464844 74.87847900390625 83.05401611328125 78.96624755859375 78.96624755859375 C 83.05401611328125 74.87847900390625 86.26304626464844 70.11915588378906 88.50419616699219 64.82049560546875 C 90.82384490966797 59.33623123168945 92 53.50878524780273 92 47.5 C 92 41.49121475219727 90.82384490966797 35.66376876831055 88.50419616699219 30.17950439453125 C 86.26304626464844 24.88084411621094 83.05401611328125 20.12152099609375 78.96624755859375 16.03375244140625 C 74.87847900390625 11.94598388671875 70.11915588378906 8.736953735351562 64.82049560546875 6.495796203613281 C 59.33623123168945 4.176155090332031 53.50878524780273 3 47.5 3 M 47.5 0 C 73.7335205078125 0 95 21.2664794921875 95 47.5 C 95 73.7335205078125 73.7335205078125 95 47.5 95 C 21.2664794921875 95 0 73.7335205078125 0 47.5 C 0 21.2664794921875 21.2664794921875 0 47.5 0 Z" stroke="none" fill="#ee70f7"/>
            </g>
          </g>
        </g>
      </g>
      <g id="rating_3913698" transform="translate(609.977 4411.314)">
        <path id="Path_985499" data-name="Path 985499" d="M152.419,160.781h24.864v16.554H152.419Z" transform="translate(-131.848 -141.468)" fill="#5892ba"/>
        <path id="Path_985500" data-name="Path 985500" d="M152.415,160.78h3.6v16.554h-3.6Z" transform="translate(-131.844 -141.467)" fill="#4a80aa"/>
        <path id="Path_985501" data-name="Path 985501" d="M133.913,224.547v7.694H95.285v-7.694a8.273,8.273,0,0,1,5.594-7.827l8.453-2.891V205.05h10.535v8.778l8.453,2.891A8.273,8.273,0,0,1,133.913,224.547Z" transform="translate(-81.576 -180.419)" fill="#ee7249"/>
        <path id="Path_985502" data-name="Path 985502" d="M112.935,278.13l-8.453,2.891a8.273,8.273,0,0,0-5.594,7.827v7.694h-3.6v-7.694a8.273,8.273,0,0,1,5.594-7.827l8.453-2.891Z" transform="translate(-81.576 -244.721)" fill="#e8442d"/>
        <path id="Path_985503" data-name="Path 985503" d="M261.342,278.135l-5.267,2.747a2.368,2.368,0,0,0,3.557,2.047l5.827-3.386Z" transform="translate(-223.052 -244.725)" fill="#eef5f6"/>
        <path id="Path_985504" data-name="Path 985504" d="M310.942,24.675v6.243h-3.374V26.688a2.556,2.556,0,0,0-2.37-2.55l.01-.007V20.49a3.63,3.63,0,0,0-.883-2.38h.053a6.565,6.565,0,0,1,6.565,6.565Z" transform="translate(-265.507 -15.935)" fill="#4a80aa"/>
        <path id="Path_985505" data-name="Path 985505" d="M102.824,393.84v.979a.6.6,0,0,0-1.07.011l-1.226,2.485a.6.6,0,0,1-.453.328l-2.741.4a.587.587,0,0,0-.443.311h-1.6V393.84Z" transform="translate(-81.576 -346.532)" fill="#ffcebf"/>
        <path id="Path_985506" data-name="Path 985506" d="M361.644,393.84v4.513h-1.6a.587.587,0,0,0-.443-.311l-2.741-.4a.6.6,0,0,1-.453-.328l-1.226-2.485a.6.6,0,0,0-1.07-.011v-.979Z" transform="translate(-309.307 -346.532)" fill="#ffcebf"/>
        <path id="Path_985507" data-name="Path 985507" d="M212.222,213.826v-8.779h10.535v8.779l-5.268,2.747Z" transform="translate(-184.467 -180.417)" fill="#ffcebf"/>
        <path id="Path_985508" data-name="Path 985508" d="M180.827,70.791V81.069a9.039,9.039,0,1,0,18.078,0V70.791a2.557,2.557,0,0,0-2.557-2.557H183.384A2.557,2.557,0,0,0,180.827,70.791Z" transform="translate(-156.843 -60.038)" fill="#ffeee6"/>
        <path id="Path_985509" data-name="Path 985509" d="M191.666,89.924a9.045,9.045,0,0,1-10.841-8.858V70.787a2.557,2.557,0,0,1,2.557-2.557h3.6a2.557,2.557,0,0,0-2.557,2.557V81.066a9.04,9.04,0,0,0,7.237,8.858Z" transform="translate(-156.841 -60.034)" fill="#ffdfcf"/>
        <path id="Path_985510" data-name="Path 985510" d="M155.832,17.316v4.327H152.42V16.72A9.218,9.218,0,0,1,161.638,7.5H167.9a3.654,3.654,0,0,1,3.654,3.654V14.8S166.293,19.342,155.832,17.316Z" transform="translate(-131.848 -6.601)" fill="#5892ba"/>
        <path id="Path_985511" data-name="Path 985511" d="M165.238,7.5a9.219,9.219,0,0,0-9.219,9.219v.631l-.191-.036v4.328h-3.413V16.719A9.219,9.219,0,0,1,161.634,7.5Z" transform="translate(-131.844 -6.599)" fill="#4a80aa"/>
        <path id="Path_985512" data-name="Path 985512" d="M151.377,113.134h-1.684a2.336,2.336,0,0,0-2.336,2.336v1.751a2.336,2.336,0,0,0,2.336,2.336h1.684Z" transform="translate(-127.394 -99.544)" fill="#ffcebf"/>
        <path id="Path_985513" data-name="Path 985513" d="M261.342,278.135l-5.267,2.747a2.368,2.368,0,0,0,3.557,2.047l5.827-3.386Z" transform="translate(-223.052 -244.725)" fill="#f2fbff"/>
        <path id="Path_985514" data-name="Path 985514" d="M182.064,278.135l5.268,2.747a2.368,2.368,0,0,1-3.557,2.047l-5.827-3.386Z" transform="translate(-154.309 -244.725)" fill="#eef5f6"/>
        <path id="Path_985515" data-name="Path 985515" d="M182.064,278.135l5.268,2.747a2.368,2.368,0,0,1-3.557,2.047l-5.827-3.386Z" transform="translate(-154.309 -244.725)" fill="#f2fbff"/>
        <path id="Path_985516" data-name="Path 985516" d="M331.323,113.134h1.684a2.336,2.336,0,0,1,2.336,2.336v1.751a2.336,2.336,0,0,1-2.336,2.336h-1.684Z" transform="translate(-289.262 -99.544)" fill="#ffcebf"/>
        <g id="Group_1149605" data-name="Group 1149605" transform="translate(3.473 47.964)">
          <path id="Path_985517" data-name="Path 985517" d="M16.09,399.632l1.226,2.485a.6.6,0,0,0,.452.329l2.742.4a.6.6,0,0,1,.333,1.024L18.859,405.8a.6.6,0,0,0-.173.532l.468,2.731a.6.6,0,0,1-.871.633l-2.452-1.289a.6.6,0,0,0-.559,0L12.819,409.7a.6.6,0,0,1-.871-.633l.468-2.731a.6.6,0,0,0-.173-.532l-1.984-1.934a.6.6,0,0,1,.333-1.024l2.742-.4a.6.6,0,0,0,.452-.329l1.226-2.485a.6.6,0,0,1,1.077,0Z" transform="translate(-10.077 -399.297)" fill="#fed402"/>
          <path id="Path_985518" data-name="Path 985518" d="M114.057,399.632l1.226,2.485a.6.6,0,0,0,.452.329l2.742.4a.6.6,0,0,1,.333,1.024l-1.984,1.934a.6.6,0,0,0-.173.532l.468,2.731a.6.6,0,0,1-.871.633l-2.452-1.289a.6.6,0,0,0-.559,0l-2.452,1.289a.6.6,0,0,1-.871-.633l.468-2.731a.6.6,0,0,0-.173-.532l-1.984-1.934a.6.6,0,0,1,.333-1.024l2.742-.4a.6.6,0,0,0,.452-.329l1.226-2.485A.6.6,0,0,1,114.057,399.632Z" transform="translate(-96.277 -399.297)" fill="#fed402"/>
          <path id="Path_985519" data-name="Path 985519" d="M318.976,399.632l1.226,2.485a.6.6,0,0,0,.452.329l2.742.4a.6.6,0,0,1,.333,1.024l-1.984,1.934a.6.6,0,0,0-.173.532l.468,2.731a.6.6,0,0,1-.871.633l-2.453-1.289a.6.6,0,0,0-.559,0l-2.452,1.289a.6.6,0,0,1-.871-.633l.468-2.731a.6.6,0,0,0-.173-.532l-1.984-1.934a.6.6,0,0,1,.333-1.024l2.742-.4a.6.6,0,0,0,.452-.329l1.226-2.485A.6.6,0,0,1,318.976,399.632Z" transform="translate(-276.581 -399.297)" fill="#fed402"/>
          <path id="Path_985520" data-name="Path 985520" d="M416.943,399.632l1.226,2.485a.6.6,0,0,0,.452.329l2.742.4a.6.6,0,0,1,.333,1.024l-1.984,1.934a.6.6,0,0,0-.173.532l.468,2.731a.6.6,0,0,1-.871.633l-2.452-1.289a.6.6,0,0,0-.559,0l-2.453,1.289a.6.6,0,0,1-.871-.633l.468-2.731a.6.6,0,0,0-.173-.532l-1.984-1.934a.6.6,0,0,1,.333-1.024l2.742-.4a.6.6,0,0,0,.452-.329l1.226-2.485A.6.6,0,0,1,416.943,399.632Z" transform="translate(-362.78 -399.297)" fill="#fed402"/>
        </g>
        <path id="Path_985521" data-name="Path 985521" d="M201.756,385.906l1.849,3.746a.6.6,0,0,0,.452.328l4.134.6a.6.6,0,0,1,.333,1.024l-2.992,2.916a.6.6,0,0,0-.173.532l.706,4.117a.6.6,0,0,1-.871.633l-3.7-1.944a.6.6,0,0,0-.559,0l-3.7,1.944a.6.6,0,0,1-.871-.633l.706-4.117a.6.6,0,0,0-.173-.532l-2.992-2.916a.6.6,0,0,1,.333-1.024l4.134-.6a.6.6,0,0,0,.452-.328l1.849-3.746A.6.6,0,0,1,201.756,385.906Z" transform="translate(-168.195 -339.256)" fill="#fee97d"/>
        <path id="Path_985522" data-name="Path 985522" d="M202.909,394.521a.6.6,0,0,1,.172.531l-.573,3.338-1.01-.531a.6.6,0,0,0-.56,0l-3.7,1.944a.6.6,0,0,1-.872-.633l.706-4.118a.6.6,0,0,0-.172-.531l-2.992-2.917a.6.6,0,0,1,.333-1.025l4.135-.6a.6.6,0,0,0,.452-.328l1.85-3.747a.6.6,0,0,1,1.076,0l1.85,3.747a.6.6,0,0,0,.452.328l.163.024-3.971.577a.6.6,0,0,0-.333,1.025Z" transform="translate(-168.195 -339.255)" fill="#fee45a"/>
        <g id="Group_1149606" data-name="Group 1149606" transform="translate(2.572 0)">
          <path id="Path_985523" data-name="Path 985523" d="M204.847,112.966a.9.9,0,0,0-.9-.9h-2.868a.9.9,0,0,0,0,1.8h2.868A.9.9,0,0,0,204.847,112.966Z" transform="translate(-176.441 -98.604)"/>
          <path id="Path_985524" data-name="Path 985524" d="M217.994,139.024a.9.9,0,0,0-1.8,0v1.182a.9.9,0,0,0,1.8,0Z" transform="translate(-190.532 -121.532)"/>
          <path id="Path_985525" data-name="Path 985525" d="M273.85,113.867h2.868a.9.9,0,1,0,0-1.8H273.85a.9.9,0,0,0,0,1.8Z" transform="translate(-240.471 -98.604)"/>
          <path id="Path_985526" data-name="Path 985526" d="M281.711,138.123a.9.9,0,0,0-.9.9v1.182a.9.9,0,1,0,1.8,0v-1.182A.9.9,0,0,0,281.711,138.123Z" transform="translate(-247.388 -121.532)"/>
          <path id="Path_985527" data-name="Path 985527" d="M229.766,185.677a3.16,3.16,0,1,0,6.32,0,.9.9,0,0,0-1.8,0,1.358,1.358,0,1,1-2.717,0,.9.9,0,0,0-1.8,0Z" transform="translate(-202.475 -162.581)"/>
          <path id="Path_985528" data-name="Path 985528" d="M63.4,51.64a1.492,1.492,0,0,0-1.212-1.022L59.6,50.243,58.444,47.9a1.5,1.5,0,0,0-2.693,0L54.6,50.243l-1.357.2V44.127a9.379,9.379,0,0,0-6.9-8.918v-6.1a.9.9,0,1,0-1.8,0v5.481l-5.344-1.828V28.824a10.374,10.374,0,0,0,3.772-7.909,5.9,5.9,0,0,0,1.572-.1v4.369a.9.9,0,1,0,1.8,0v-5.57a3.22,3.22,0,0,0,.646-1.938V15.926a3.221,3.221,0,0,0-.646-1.938V8.8a7.475,7.475,0,0,0-7.06-7.454A4.539,4.539,0,0,0,36.048,0H34.985a.9.9,0,1,0,0,1.8h1.063A2.756,2.756,0,0,1,38.8,4.555V7.749c-4.132,2.9-9.878,3.006-14.641,2.082a.931.931,0,0,0-1.077.922v1.936a5.793,5.793,0,0,0-1.611.108V10.12A8.328,8.328,0,0,1,29.79,1.8h1.27a.9.9,0,0,0,0-1.8H29.79A10.132,10.132,0,0,0,19.67,10.12v3.921a3.219,3.219,0,0,0-.608,1.885v1.751a3.218,3.218,0,0,0,.608,1.885v15.66a11.063,11.063,0,0,0-3.006,1.428.9.9,0,1,0,1.043,1.469c1.624-1.154,3.977-1.682,5.832-2.317l5.473,3.18a3.228,3.228,0,0,0,3.109.094V42.6a.9.9,0,1,0,1.8,0V39.076a3.228,3.228,0,0,0,3.109-.094L42.5,35.8l3.946,1.35a7.371,7.371,0,0,1,4.985,6.975v2.28H45.7V44.09a.9.9,0,1,0-1.8,0v3.985l-1.069,2.167-2.258.328c-.138-.067-4.422-.715-4.422-.715l-1.779-3.6a1.5,1.5,0,0,0-2.693,0l-1.779,3.6s-4.285.648-4.422.715l-2.258-.328-1.069-2.166V44.811a.9.9,0,1,0-1.8,0v1.6H14.609v-2.28a7.4,7.4,0,0,1,.808-3.357.9.9,0,1,0-1.6-.821,9.213,9.213,0,0,0-1.006,4.177V50.44l-1.357-.2L10.294,47.9a1.5,1.5,0,0,0-2.693,0L6.444,50.243l-2.586.376a1.5,1.5,0,0,0-.832,2.561L4.9,55l-.442,2.575a1.5,1.5,0,0,0,2.179,1.583l2.313-1.216,2.313,1.216a1.5,1.5,0,0,0,2.179-1.583L13,55l1.834-1.788L16.665,55l-.442,2.575A1.5,1.5,0,0,0,18.4,59.161l2.312-1.216,2.312,1.215a1.5,1.5,0,0,0,2.179-1.583L24.765,55l1.191-1.162L27.965,55.8l-.679,3.962a1.5,1.5,0,0,0,2.179,1.583l3.558-1.871,3.558,1.871a1.5,1.5,0,0,0,2.179-1.583L38.08,55.8l2.009-1.959L41.28,55l-.442,2.575a1.5,1.5,0,0,0,2.179,1.583l2.312-1.216,2.312,1.215a1.5,1.5,0,0,0,2.179-1.583L49.38,55l1.834-1.788L53.048,55l-.442,2.575a1.5,1.5,0,0,0,2.179,1.583L57.1,57.946l2.313,1.216a1.5,1.5,0,0,0,2.179-1.583L61.148,55l1.871-1.824a1.492,1.492,0,0,0,.38-1.539ZM45.181,15.926v1.751a1.437,1.437,0,0,1-1.436,1.436h-.783V14.49h.783A1.437,1.437,0,0,1,45.181,15.926ZM44.535,8.8v3.987a5.9,5.9,0,0,0-1.572-.1V10.753A3.473,3.473,0,0,0,40.6,7.475V4.555a4.542,4.542,0,0,0-.16-1.2A5.673,5.673,0,0,1,44.535,8.8Zm-19.65,2.988c4.981.785,10.824.42,15.049-2.634a1.662,1.662,0,0,1,1.227,1.6V21.032a8.256,8.256,0,0,1-8.138,8.137,8.147,8.147,0,0,1-8.138-8.137Zm-4.02,5.889V15.926A1.437,1.437,0,0,1,22.3,14.491h.783v4.622H22.3A1.437,1.437,0,0,1,20.864,17.677Zm.608,16.929v-13.8a5.794,5.794,0,0,0,1.61.108,10.27,10.27,0,0,0,3.772,7.9v3.948Zm8.446,2.819L25.8,35.031l1.883-.644,4.354,2.27A1.488,1.488,0,0,1,29.918,37.425Zm3.1-2.285-4.366-2.277V29.958a10,10,0,0,0,8.733.006v2.9Zm3.1,2.285a1.476,1.476,0,0,1-2.117-.767l4.354-2.27,1.883.644Zm-24.5,16.4a1.5,1.5,0,0,0-.431,1.329l.366,2.131L9.646,56.278a1.5,1.5,0,0,0-1.4,0L6.334,57.284,6.7,55.153a1.5,1.5,0,0,0-.432-1.329L4.72,52.314,6.86,52a1.5,1.5,0,0,0,1.13-.821l.957-1.939L9.9,51.182a1.5,1.5,0,0,0,1.13.821s1.971.385,2.016.432Zm3.205-2.83a1.492,1.492,0,0,0-.222-.166V48.209h4.607l-1,2.033c-1.726.268-2.667.1-3.382.751Zm8.563,2.83a1.5,1.5,0,0,0-.432,1.33l.366,2.131-1.913-1.006a1.5,1.5,0,0,0-1.4,0L18.1,57.284l.366-2.131a1.5,1.5,0,0,0-.432-1.329l-1.549-1.509L18.623,52a1.5,1.5,0,0,0,1.135-.821l.957-1.939.957,1.938A1.5,1.5,0,0,0,22.8,52s1.042.241,1.947.5Zm13.314.8a1.5,1.5,0,0,0-.431,1.329l.6,3.518-3.159-1.661a1.5,1.5,0,0,0-1.4,0l-3.159,1.661.6-3.518a1.5,1.5,0,0,0-.432-1.329L26.78,52.129l3.532-.513a1.5,1.5,0,0,0,1.13-.821l1.58-3.2,1.579,3.2a1.5,1.5,0,0,0,1.131.822l3.532.513Zm11.3-.8a1.5,1.5,0,0,0-.432,1.33l.366,2.131L46.03,56.278a1.5,1.5,0,0,0-1.4,0l-1.914,1.006.366-2.131a1.5,1.5,0,0,0-.432-1.329L41.295,52.5c.031-.074,1.943-.5,1.943-.5a1.5,1.5,0,0,0,1.135-.821l.957-1.939.957,1.938A1.5,1.5,0,0,0,47.418,52l2.14.311Zm3.2-2.83a1.5,1.5,0,0,0-.8-.375l-2.586-.376-1-2.033h4.607v2.619A1.492,1.492,0,0,0,51.214,50.993Zm8.563,2.83a1.5,1.5,0,0,0-.431,1.329l.366,2.131L57.8,56.278a1.5,1.5,0,0,0-1.4,0l-1.914,1.006.366-2.131a1.5,1.5,0,0,0-.432-1.329l-1.424-1.388C53.039,52.388,55.01,52,55.01,52a1.5,1.5,0,0,0,1.13-.821l.957-1.939.957,1.939a1.5,1.5,0,0,0,1.13.821l2.14.311Z" transform="translate(-2.572 0)"/>
        </g>
      </g>
    </g>
  </g>
</svg>
